<mxfile host="app.diagrams.net" modified="2022-01-24T22:33:19.197Z" agent="5.0 (Windows NT 10.0; Win64; x64) AppleWebKit/537.36 (KHTML, like Gecko) Chrome/97.0.4692.71 Safari/537.36" etag="Mv9K07DMR54deSWCLId0" version="16.4.5" type="github">
  <diagram name="Page-1" id="5f0bae14-7c28-e335-631c-24af17079c00">
    <mxGraphModel dx="1615" dy="935" grid="1" gridSize="10" guides="1" tooltips="1" connect="1" arrows="1" fold="1" page="1" pageScale="1" pageWidth="1100" pageHeight="850" background="none" math="0" shadow="0">
      <root>
        <mxCell id="0" />
        <mxCell id="1" parent="0" />
        <mxCell id="jXtKK_LHuf7qZaL2mGFT-22" value="" style="whiteSpace=wrap;html=1;aspect=fixed;strokeWidth=1;" vertex="1" parent="1">
          <mxGeometry x="40" y="160" width="120" height="120" as="geometry" />
        </mxCell>
        <mxCell id="jXtKK_LHuf7qZaL2mGFT-23" value="AWS Workspace&lt;br&gt;" style="text;html=1;align=center;verticalAlign=middle;resizable=0;points=[];autosize=1;strokeColor=none;fillColor=none;strokeWidth=1;" vertex="1" parent="1">
          <mxGeometry x="45" y="140" width="110" height="20" as="geometry" />
        </mxCell>
        <mxCell id="jXtKK_LHuf7qZaL2mGFT-29" value="" style="sketch=0;pointerEvents=1;shadow=0;dashed=0;html=1;strokeColor=none;fillColor=#434445;aspect=fixed;labelPosition=center;verticalLabelPosition=bottom;verticalAlign=top;align=center;outlineConnect=0;shape=mxgraph.vvd.web_browser;strokeWidth=1;" vertex="1" parent="1">
          <mxGeometry x="75" y="204.5" width="50" height="35.5" as="geometry" />
        </mxCell>
        <mxCell id="jXtKK_LHuf7qZaL2mGFT-30" value="Jenkins UI" style="text;html=1;align=center;verticalAlign=middle;resizable=0;points=[];autosize=1;strokeColor=none;fillColor=none;strokeWidth=1;" vertex="1" parent="1">
          <mxGeometry x="65" y="184.5" width="70" height="20" as="geometry" />
        </mxCell>
        <mxCell id="jXtKK_LHuf7qZaL2mGFT-31" value="" style="endArrow=classic;startArrow=classic;html=1;rounded=0;strokeWidth=1;" edge="1" parent="1" source="jXtKK_LHuf7qZaL2mGFT-29">
          <mxGeometry width="50" height="50" relative="1" as="geometry">
            <mxPoint x="460" y="590" as="sourcePoint" />
            <mxPoint x="250" y="220" as="targetPoint" />
          </mxGeometry>
        </mxCell>
        <mxCell id="jXtKK_LHuf7qZaL2mGFT-32" value="" style="whiteSpace=wrap;html=1;aspect=fixed;strokeWidth=1;" vertex="1" parent="1">
          <mxGeometry x="250" y="180" width="80" height="80" as="geometry" />
        </mxCell>
        <mxCell id="jXtKK_LHuf7qZaL2mGFT-33" value="Jenkins Server" style="text;html=1;align=center;verticalAlign=middle;resizable=0;points=[];autosize=1;strokeColor=none;fillColor=none;strokeWidth=1;" vertex="1" parent="1">
          <mxGeometry x="245" y="160" width="90" height="20" as="geometry" />
        </mxCell>
        <mxCell id="jXtKK_LHuf7qZaL2mGFT-35" value="" style="endArrow=classic;html=1;rounded=0;exitX=1;exitY=0.5;exitDx=0;exitDy=0;strokeWidth=1;" edge="1" parent="1" source="jXtKK_LHuf7qZaL2mGFT-32">
          <mxGeometry width="50" height="50" relative="1" as="geometry">
            <mxPoint x="460" y="580" as="sourcePoint" />
            <mxPoint x="440" y="220" as="targetPoint" />
          </mxGeometry>
        </mxCell>
        <mxCell id="jXtKK_LHuf7qZaL2mGFT-36" value="" style="whiteSpace=wrap;html=1;aspect=fixed;strokeWidth=1;" vertex="1" parent="1">
          <mxGeometry x="440" y="180" width="80" height="80" as="geometry" />
        </mxCell>
        <mxCell id="jXtKK_LHuf7qZaL2mGFT-37" value="AWS CodeBuild&lt;br&gt;" style="text;html=1;align=center;verticalAlign=middle;resizable=0;points=[];autosize=1;strokeColor=none;fillColor=none;strokeWidth=1;" vertex="1" parent="1">
          <mxGeometry x="430" y="160" width="100" height="20" as="geometry" />
        </mxCell>
        <mxCell id="jXtKK_LHuf7qZaL2mGFT-38" value="Linux &lt;br&gt;Container" style="text;html=1;align=center;verticalAlign=middle;resizable=0;points=[];autosize=1;strokeColor=none;fillColor=none;strokeWidth=1;" vertex="1" parent="1">
          <mxGeometry x="445" y="184.5" width="70" height="30" as="geometry" />
        </mxCell>
        <mxCell id="jXtKK_LHuf7qZaL2mGFT-39" value="" style="shape=image;verticalLabelPosition=bottom;labelBackgroundColor=default;verticalAlign=top;aspect=fixed;imageAspect=0;image=data:image/png,iVBORw0KGgoAAAANSUhEUgAAAJ8AAADQCAYAAAAZFbNZAAAAAXNSR0IArs4c6QAAAARnQU1BAACxjwv8YQUAAAAJcEhZcwAADsMAAA7DAcdvqGQAAM3rSURBVHhe7L0FoB3VuT2+jut1l9y4K04IBHdKcShWapS2lFJq0FLaPqQUKtDixd0hOAR3CZKQhLhcdznu57/WnnvCJU0Ir32V3/u/72Yy58yZ2fLt9dm2seVJ+D/aKok9Nptt0/mfQdtOOzd8/t9F9uHz/xFJICjIos7ZbNZ8zmQym65viUb+ps+5XM6cC583p8L9hXMBeCOvFz7/bwWe6P8032ZUYMeWNFEikUB/fz8GBgbQ0tKC9vZ2DIVDCIfDGOwfQCwW+wyQdDidTlRWVqKoqAjl5eUYPXo0amtrzefK6iq4HE5zf4H0jNIonP8PfP8/JLFFGm/16tVYunQplixZglWrVmHjxo1oa2tDZ2en0Ywelxs+n888k0ql+N0Fu91uNF4BiGnel0wmkc6k4ff5Dfhq6mpRVVWFmTNnYtKkSdhll10wceLEvwW9Wsf2vxOA/yvApyqM1Dh/04DDVPitAIwt3ZdOp/Hu2+/g5RdfxMJnn0N/XwgbO9qo3frh9niYSBpBrxdeHnmHHQ6lkXfQf7HSI14JyjRTysHBvzwVm9Phhd0hbZpHIp4xIE3n0tSUPGcTCHhLMGH8KIwaNQq77rozDtj/EOy0245WgeQZ5dhEdpWVIMzz+6ZiW6D8tM7yoiyTv6W6/afR/xrNN5Lhn8f8gh+ne2QSRblMFq3NzXh24UI8suBRLP7wIwzRtMZSSfidbhQFy+Eh8LL2LBVRGiUuBxK5DE3wIKKxJNOyQb9szkiVIU/AOYgRF787HW7YqSmLinwI+DzIpO0EexypbI4gJCgTad6fQ3lZJXbaeQeccNxXcMBhB6GkpGS4TlYOys+kvYVrFm0Oyv9M+t9vdlU78r9QzZGNId/tlVdew+ME3IvPP4+eni5jQl00nQ6HyzzjzPFMM+qwu+Cy2ZFKR9E30I0wAet3O1Ar362iFKNHNaC6sgI+v9cCaiaH8NAQhqIR9Pb2o7urF109PA+FCFQC0Z5HkdeFYKDY5Je3U2PZHARjEolkDtk0j1wSU6dNwymnfQ3HHHssqqur+eSnMaIFLsu3tOplab7/V+h/Lfik4QraQT6YqAA8BQv33n0PnnvuObz3zjtIJ1MoLS8j4BzWM9REOrtoKx2Qqc1jKKLAYpAazI5psydh33nzcPCh8zF24iSUVJbCV1wGULMxvuUddpMvuQsbNVqevl4Pwadgpb1tI955fREWL1mGNRvXYNW6DUjGVTigtrqI+VJH2p0EIqPsdBbhWBSZeBo77LATzvnpT3DEUV9WRSw9y7RtBGyhXkbO9NswGAvn/1T6fx58mzO48L3Q3SESqEShUAjXXHONAd6yZcto+nxw+9xIRBNwOT0oLi42QLPnc5Y2ImjCkQQ6w73wMql99tgDP/7R2Zi/7+6wU2NZWibESIPoSVCfyTejTwgCQlpIJtQm4DsZkLj5nVC2OUt5XwK51ABCXf1Y9MFivPzmm3j1jXexePFKgo1CY88gEHChtKjY1CWRIggZUVNZ4vgTv4JLL72MwUqtAagtn93UnSMhM/UvnP+DgSf6X6v5MvT85dOpeoo07777btx4441Y+ckK0yisuOk6iSYTcDtd8DicqKiqRIqBQIAm1k6zuaGnAyme99phF/zwnDNx6JcPgI2gy2cGgWi/0ZiubMry9wwbqfMIXLlhJg8GJDmaahtBl2G65prNSQXpJhhZNuZjU6TMZ1OJHBZ99DEWPPoEHrzvQTRv7ESG6dVRG7qDQdAqIzI4hMFIBDvvsDMuu/RyzN1rPtPOUUOmN2ltQ//hoCvQ/0rwqUpqCJ1fffVV/OEPf8Drr79uwJiIxRGhH0YYYPr06dhnz31w6imn4K333sYvzj8P1XTue2leB4aimMLo85c/Pwcnfv1rRntl+jdQaQlsWTjZvnnCQ0CTxrEM+6fdK6YM4qxDHh6jXl6WlkKOdyr0pRpLZ5NwOYL8zB/dPBdV8l4/ultX4eXnnsHdd92PZ195i+YVqKqohJs+Ypwg7h8chN/lwU0UpiOOOUHZMXFL+0noCpp+Exj/Q+l/reZ77733cPnll+PlF19CPB4nGGyIxWMoLSnGIYccgq985SvYc8+9ESwOGKBcc9W1+P4PzjSfa0qC+P4Z38JZPzwLRdX1SPWuQTqUgsOXI+iotdRtQr9QGkbNK82WpcbLE1x2Is4uXZiP80wB4A3pBAHBewUPfRcpHzucvEaz6RCIi2DPMmp2MsgprYArWEWtGcWLDzyPa/5yPZ597Q2kmUZtRRVNtwN94QEjCJddcQXOPPPM4TQ/9XPlC1pkgfI/kf6fAZ/F0G1LcldXFy677DI89NBDpjNYmsDGZh7T2IRjTjgKJ59wKmZuP2tTWnffczsuvODXWLF2PZlhx8H7zsPVV/0BYybPpi83QOB1mUZ1jjBr8t5EApw9a5VL+WSyaQtwSDNqTZC71IS5T/sVRTqbg0moTml+KNRNZ9Ma1ISCTFlFOezlVcjH7Xj9pddx3gUX442PlqOush5VZaVoaW9BNB7BhRf+Bj/9+S/0oLJgwtbJqMxNIPxbsvL99zX//5OaT5Gsil3opxNJu91yyy3mWLt2rRnqkq+nUYRvfesbOO200zBx4mSjaexUP2vWrMAVf/wjrr/uZhlPVAacuOTSC/HN73ybbUjz3NlMYCUM6Iwfp3blfzn6V3kTZVqAU6e0tJoFHJlYkbSitJC0G7XicN9igfSsSU7P0fya4IhALaQhM154xkHz6vGWwNEwDvGBCL5zxg9x2wNPoaykFNXBAAZDA0hSC//4xz/GL37zG/OMKYeAxXqMJKWvPD/7+d+nGf+fA5+Kq8bSoYhUpKGviy66CA8++CD8fr8Bns4nnXQSfvmz89AwppGulh197R3YsHEtnn76adx6y23Y0Nphnt9z/lxGwddi2rSZyAxuRDIcgsdNcAsciiRzakyCiX/JWIQAlF+lIbQC66yGNGCSthGNUDiFaJS605RfJIVjnlEIK+JZWFA3j9GYvGzqKnw43QxuMnBXj4GzrA5//M2lOPe//oiKoiJU1VQiEk6YPsqfnPsz/OriC/kc9a/xAb9I1Pt/4Ptv0UiGStP96le/QkdHB9yMIgW8efPm4U9/+hN22nEnY4GiAyG8/+47eO2917Fs8Yd4euFLCIUirL0Dv/nF9/DLCy9mokHE+1aZ0Q53Ng6XiSj4tIBHTZfLpKmNpPUIQuPfqQwMJHQebkADPn6XFuMXc03Rrq4VMFYggUsaTs/KDyz4a7pCtG66J+vQHTLbdmTyDrgqquGoGIMbr/oLTj/r1ygtKkF1ZbkJpGKhIXz/hz9lfX5l0sqxvNJ+hXIVePZZ+j/wbZNG+k0imdkLLrgAN930VxPdDQ2FDYPPP/98mqCfIhjwm/vWrm7Bgw/dhQ3rViEZz+DZ5x9He9cggowcr7rqcnz1Gz9AOtKL9FAb7NRkdpcdDCnY6ho2kwbKIRULM2+Z0OH8h82r8rOGtdiww1rQNLrApFuHG100ks2FWoysDzFm7jFem8ZvdeJ3AZxxiKm/w0sNqHK4XXDXzcYdV1yHU390HupKAgykKsiDFOLpKC74r9/gB+f8kGWie6Kuni2CrkD/B77PJfk/Yr6KKu2mzuITTzwRzz77rJkhoqlN8u2kBQ8++GCEh2I0l8Dbb7+NRx58BJHEAOobavHEY49g+coNmNBYi7/efAP22n8vZHpakUpl4GV72xwp02C0c0AiiXQqxMOKYGllTf4OoqSgxdS/J9NmfMIRDWxMJckAkCQNVqDCNZGuW1qP6RIkI7WjlbYAatlv3aNrKocsc97lg2fcNFz589/i7N/+iRF6EV2FAOLRBKNnG66+9gocf9Kp5tmRpHQ+C8b/A99WqcAsgU9mKkMn//jjj8fDDz9s5sZpilNjYyNefPFFTJwwEQP9gwZM995zH1544SVU0iRNmzoWb7/+Gh5+8mlUVJTh5YULMH27PZAdaEWG0aInnyInksQRzWiG52QKmbSN1lYRq7QRyzCMDKMB+bHQgAKatF7h+6byDoNKn0eCVd8LADSsp5az85quW9rTArJ+yzPqNdEyzw7+lJGA6B4CMiOt5vbDW92Ac886D3+65UHUlpfC5vOjv7+XwufAsy88jd3m7bEpL6X7t/TvA5+l3/+DSQwbaXK/+93v4rHHHkNTU5MB3vz587Fo0SKMGtVAjTiARCKGK674I156+UVqwwrU1FZiqK8XTzzzLLwuJ554+kECbx4yXauRozn1CBI0o3kz7yTH6JWmiyZdg/o2JxtMiofoMfgxZfjUjKlBR2orUeE3gUQBxua/G1AJdCTdy5iZYNRMaZaBNxe0pkhpWCC2mT4+G+2v0kzb0yyGHen4IPgf/uuKS3DwPruipz8Mn92F0opyJPMxfP+730dfX5+VFp8v5PufQv9R4Nsac0wj8bj++utx8623mJnBzc3NJrB48vEnEAwGMTAwRK03hL9ceSXWrFlFJ7wUFaUBlBV78Myzj4PWE/fddzN22WknJDpXsSGTcBBceYccfZr0ZBipgQHkEzS9TstJR9Zijxm815lAEZooDkaL2QlYAyaNWJD0Oce0hh/7G1IqOpwEk6ZZ6bBT8zlylsnVYeX0aZ0tkvAxX96QYlbqvnHwu5N+a2igHW6PC3+9/QaMGVuHVS0b4KOQjaqtx8q163DuuT81z3/KWWm6wvHvpf8o8H3K7M+Srq9cudJEsBVl5WYW8ZQpU/DII4+Y33p7e800pquvvtqAcszYJjiddtTX12Lpx59g0cercdv1V+BLR56Aofb1hIz6+lj5bAI2mtZcij5impGhfDfmJ1DIHzPmUM4/tVKOwEoThBqFyAgiMn001fKvaBCZIkHMRO15p+l4lsnc1O3yOVSo8+fVXaT0ZXZNrw+bLUM77PbaDNBS/R2oahhP4bwSXrcTbV3dkgQUeR246847ceNf/2rqZbTrCAH/d2vC/yjwibbGnJtvvtlMaZdJ1Jy7m266yQQZmhzQ0NBgJg0o8Jg0dRICgQCaxo7BilUrcef99+Howw7Ayad/DflUD9wycTlqNwf9Ofl6BnwJgi9l/CqjjQQ65qloVyXQkaOGdOi7xmHtCoBSTIeaj2DI2TRJQENsgptmMfMWA9rPdvL+d0h11yHTq4CHuphXc3DK3DJPDfPZ7X44gj64S8v4Ux923/8I/PnK38OeTNJtzcCl6Vm8+Q+XXY6O9lara4d1+3eDrkCOX5OGP/9HUIE5OheCjPXr1+Occ86hpNgQi8bwl6uuwhFHHGGCj2gkgksuvhi33XqbGW3o7OyiJuzDunVr8fiCx1BWGsQdt12DqppSJPo64CU4HPL4M2wAqpFcitorY2lCmTy1i8CXk+rjodnLMtkmsHB54PJ7+YEasCgA2jtkqD3zLEeO6SkSlTzLJJo6aCqKAc3fT+ocV5lYJDMnQZGuk1GtK1ABW7AGtuIGRHt60bx2IyLUgHvtOR/hUByvvfImykvLGQG7sKG1FUG/H3vts7dJ0/DYnM3Xfxv9R0W7BdBt/lldKGec/m3zfc899zTjtgsef8xEvB8vXkKgrUNZWZm1NoIAVNeMNE86m8bvfvtf+NG55yHSuYSaIA8PgULEabEGG1JjsNJoVjRZwEqOWiwj4PFzVmWgb+ihf5Vz+OHxUZuUVPHGIppi2ec08n1dNOct8PA+rzSerilS5bN2Rp2fR5uz3wBjxDVpVJt8S3sCaV3Ou+HylcFRPwFDsTSuu+xSPPLQw+gb6Ec0GsW4iRPIiwa8+9578Hnd8Hr96OztwZgxY/DIE49h7LhxlDm6CBqrtrL4t9F/XFdLQdsVSGb1lJNONrOOZU5lYjX9fe36deZ3v9ea9h6hBhQY5NJrcY/X5UacWu2e227El48/ErGOVfDYM7Cnk9R61FQpAi9L8yuA6KlhwIrSzD9D8Ah8hCmKS0vgLClF3luDcEcLFi97H4sXfYSB9h7Uj2nEfod8CaMbKxHr7kQu0Q83/xzULUpbx7ZoZBMU7i9csykeZ7llwRMZ+qX8HmychEgoh0O+dBxef38RXE4XgvRx3Z4AYpG4WV9SX1UKu4MCw3oxUeMXX3H1X/CNb5/OtK08FMT8O+k/CnwCnshus0Dw0Ycf4mc/+xk++ugjM4nAzMcjGNV9oImaMru6NmXSZGy//fYYO34cZs+eDZfDjbO/fxbWNW/AcV86GPc+cA+Q7EYuPkB/iL6a0ZDx4f42Qo8cEADJDHpVmgAqBUMvy6XRBQd8o7aDLZ7A3Xfciuuu/QtWLN+IXqohPa5utwllRbj04h/jyK+djGx7M7Jplkv+pEywMXDbpk1gGwFWXcvZPeSH/Eg7QZWAJ1gBe+ME/Pa83+IXl15pyqAARJOzHA4nPAxAyoqC9A0tjSvvggmZxVDizQOPPIqSslKTT2FI799F/3mdzGpN0sKFC808tQ0bNqCmpsaYUmk4SbDm5Xmo3dTZrBGNHbffAeMnTGBtzKNqDZx04om4+957UFdVjtcWPorxs6Yj070ajkSGQEohCUa61HQGgMMaT6xQY2Rpf+0+BhFsP0/DdLSt6sM5Z56FB59/EaUeN4I0ZWZYze5FhiDsi3TBT5P75D1XY7eD5iPV1Qq3OqnlX/JvWzSyCTYHA+Fh0sgy4IlTowXKKhBJ2DFrxt7oDidwyMG7Y/zk8fQ5bVi5egWWfLQaG7t7UUR/tK6igoJkR5ZCSt1pzPITTz2NuXvsbvm5Gr/+N9Kn9u3fRAXGbzqTH889vxCnnHIK+npo1mprzXUNq7V3diBK4J1w/Al4+823cOutt+L4447H+PHjMTA4YKbIv/j8C1j4zDNGI4q1Q4OD6O3uYbq0W5piRNOczjPSZdXNGgtma5pAkwGoTdPUGOpL05pcX8NsfPjOm9htz7l4aOHLGFNZB6+nGO1DgzwG0D7QTb9ryMAjQlfytQ9W0jxaEaW6RhymU8cKPkbWs9CRXLim+wvH5iTNKfNvtCgLa6dm27h+A/bfZwe8vPBWPHD/dfjdJT/D5Zf9HA/e9Re8/ur9uPri32BcVQ1WMfo361MotKZMrPtDDz3AtChcquNw/v8u+o/QfCqCmKOzJoAedsihZneACgYR6lYZDIXQ29+HaVOm4veXXYaDDjtUyg2Dff0m2FizZg1WrFhh+v/UFaPpVG0tLWbqlBj9xIO34ICjjkam4xOkh4ZoojQBntEpE8nbFIDQ+ba7kHEINAw2CNKycTOx9MPXsfc+xyA0lGRZitAzEEJNiR177bEzdtpxDmoq6+Fz+9DZ1Y5PVi3DqSccg+3mbodEdzdhp0E5apdhdaxoWlQAXuH7tomai8/I58szgHLSn0wkcnDLD60IINc7gEwijrTTAQ8B5ayoZizUiGhbF370s5/i+rueRKWvCGVVtRTQLoydPBkvv/qK8ZULEyREKs6WwP/PpP8Ys1sA4Flnfh9XXX0V6mtqDfCSjEpb2lpx4P4H4M477zSLfDTnbdG77+KNd97G8qXLjDkprLdVxKvIt5/m+eEHH0CIPuLDt/8ZR55yMhIbP0YqEqaJ9BKSVoerRiQ0wpBSH5gCBWoW75hpJqiZv8eBWLN6IwJBNxsuhmMP2QsX/fIsTJg2FnkPNStNYT4r4FJrqm+tp5+nNPzG0bcW9Zh6kcMFsEkTFhr5iwFQoy1ZRt8UC/nCxEuevqiJprXIXP2O8vdyFCnWJZVnUEKBcBNsKK7DX35zJX7w64tQX14Dp4fakxHwPXfegZ133Z3PUQSH/esC/SsB+B9hdgv4V2DxDE1mkT9ggKSAorW9DcdRay1YsACVVVUIDQ4RVA/iqmuuwVtvvGmYVVtdjZKiIgNAgUeNnsnQ4VenGIlKgZRk9BuTHbNMLU2QfnVqLIzqSIyw2bPwlJSbBj3nhz/Dsk/WoMzvQF8ohj9f8nPc+/BdGDd5CpL9g0i2NCPT0oPMxlbE1rUj2xsiEC2/VFthKGAv1GtzKlzf2u8iaUgT+Eg78VAPQHb4dq2sM8cwcBzKjHzQ/U6nGy66GPHePqQY/Jz5i7Pwm/POQXt/lwF7PyPyhS+9zESMGCg1k4b4+K8EnsjK+d9MhYo/9cSTWLN2jdkeQj5ba2srDj34EAYO91o+H03pn/7wB9x0yy3m93FjxhjAKRgRUM2UdgJP9+q7Di/TDwR9ZlQjR0C6GREqqpZvaTqDaWqpNCwwSmuUV+OVp57HI/c9iaqgHyH6THdc91t897zzEd64FgOtG5AJx2lWnWZGDLIpMwKRZdpOotmZSps8VB9pVAG9UMfCeeTnrZGAokOTDdSpLe/ACA1dAtNVoo5vtp4BJfPNMnhQehr+S1IjqixJam8b3ZXzz/sxDtxzZ6ynz5yKJ7F0yTICj2XbNM3+3wODfzv4Cg0wRF/sjTfeQNDnNwDqYbBRwWhN47XSZu0E4lV//gvee/9902FaWV5uTLIorzQk/SRjmkjSKpJtv8eF4oAftlRSLbmp8dUJIkOrQz4gEYlcmgCl6Vpw3wKEUnF0R2L48c++iZO/9T3YOpfynjgCBINb5pTm1WvzWmBnfmpskb6baU9UQzk6lSYvfhUV6vp5Gm9z0nCf0YDDndZa/2uRJUBZTUpg3e0UNEqBuY+lMsNqWo8c7m+DzZPFWd87GSV8Ksb0Ojs2IjQQYTmslEQC9H+nXP8T9G8HX6FvT4HD+wRWaWmp6cvT2tpvnn46Ro0ZjehQCH+9/gYsXrYUE8aNQ1EgQN4ynuQhhhUatUBqjCglPMXfFChUaOxTK/7NfZ8Of+kwvh8BKz/SWRJAfjCEJR9+YBp27q474Je//Cmyg6swONjO5zJMW2pSy7kJQI1e0Gxrzp1Is1UEvMJ0KkeG+oXtWSifZUaZ7/BZwjH86FZJXoEREq2SY7pWB7w1xcxAhWURC/Max2ViRlsyZSfvdeUScNAXBQG4357zMHvOZD1BQW7DyiVLmIbu/bQAm/Pxn03/dvBZzASWfbwUA319pnNUGy2WlVfgxJNPMqbmsSeewPsExOTxE4xJFfDUeHrSNAI/66yjkJ62l1DjaE5faXkJNVXSRKDUR4wedTBv3S8QKQ1iyl9SjDb6cKvWboCHD1/2m/Nhdzsx1LrRbBIk7aYYVpQ3dlAOO2FmyqBIeVjbGW+SZIKBzWj4WqG8SnFLh/ogdWjoT10kmj1j6sfs9VnAdcqsS8vxYs6RYhl4VSvr8kneS5+XPzncLkR7u+EsL8Lu83cxUGtra8f69lZTExXh07L8a0k1/eeS1VaGBJLCufC5QM2tLWavlEgijgRZO2vWLLNDUysj3ZdeegmNTU1ULZrBy4YY1pbG3JJcNHUiMdBNX1BLJof6+s21aVMnoLiyEolYFH4WRp2/VqMyHT5emGZkhpqiMZSXeOB12TF/zkw21g5IrF+JgJcBkN1L18uKKFVyjbnm9Z0Rr5Ze6nn5Z0ar8cikkwYgZsCYeanfzywsIspdeS9/Ud+JDL6dULWaoTDcRR3Mewsd4AS2nhOg+bPSlCmWH6g0WXhdNs8oL5uTd3gIf4JPUbLLrecpIPEspk2ZTpeB1Uzl0dzcaoTE4mCBPisA2zosU/33H0rln0sjaidwmIYmt9hc/Gxdl/nUWlv5S4oYNcqx4447mvu0QaOG0xRYCHQmWBDDDWAsiRUgC2mLMvR/tHhcekHDbg76PurR1z2iwrOGCCItHDLbn4VCCAY8uPuWa/H7i88HtGA8TQ3H+8Uo6xmmqjMPwdBheoBzZqaxKRdNsXSso7QK9mAAGdpNTU7QKIWZNEpAZM1wGesisBC6SjtDja15gqbrhBrVlhekWR9+N4GLJIVllDnXpAeZVv2WIdj0k8yyuJqlYCVj1HxuL6NuGxL0Y02PciaJseOazPi48u7ubOXZav6CMP+r6Z8PPlIBFJsaXYc+m6vkCyNEDZulCBoj1Px9wqSJSDJIeOWVV8x+xgUSowrAKaQ7kjSpNEWfUYuM2JSYMHEcoGlThsEymsPgIZnymAVD/MwjSx8txnJsv9tMzNh+MtLhIbNNmvHjeIM5RjwrjSTQCARaRGSA47IhRbA89tiTaOkKw1labQGHaVjlVaCgbhIGOkaZuY0G02ejPXmvw+4x0Wt2+JlNwQbvNmXmZ5VF5OB301nONHJyEIPFePaV13HdzQ/AXVPDfDzm/nwygdEN9agt1rgu0NWhbX2tRKxy/evpnw6+ArNGElloGsz6zEZnw6lzuHCv+srq6+vRvG69AZGmyRc0nmH88GHImCTrLH9Pz4ajUdPtUlrsNZGxJhK4naqqTMWnDFcawoUxftQYGWpeWfD0YC8yPGTfLL9wWKsNP6t8NLHBfOZvAqdmj2RTWWMSiyeMxf0L38fFl1+PfEUltZNHKDH3G5YzTc1P0dStPM1jTt0/NN9pAZP+XCLDQKG4BraiEgJZmtLSboXyFoAnUse4AKvpVjHlT3D5K8bg91fcifUbuuEZPZo+stampGk9AqiqLGWeMNYkFomaNAp+8r+a/um5imGFRiuQKm/O/BMjjebr7DKbaWtmidftYUQbNNpQAcbmz4sK4BEVtquQ2VYwoulV0hI7bDeHIK5Dit8LDabGK6RnndV5azWqR2lq5gi9Toc9zmc0BmzVoeCPFfIs5J8mMPI061kKh/K0+ekeuGqx3fY74+Z7n0DPug64SyoIEJpa3cv89KwYb9Kl3ydcUvfROjoMCFPM6/VXX0RXb5vZHs2hSJfXpPtMcMFU5POpRBmaZ0NMy8+gAi4npm6/CzriKTz80NOwaXoZy5RMxiiADvjpCthZWfF2YGhw+NHhBvkX078U8qqkGEaWW42nM+t92R9/b9ZeqONYekxn+XhdPT3mOeMLGqBYVPhsztRYBdJ3aUiN7yrdmTOmIhD0I5cikNh4m54Tr2UqVQIlwe+OPM0r05IWkPHXncaMiqhVrWdVusJni0zD5TLwBIpp8cphS6v/MIFd994NTo8TTy18CfniINI06QXgy3NT3jk+Z0w3c8vTUxQ0zURWluF73z8P5//697A11BpgascEu7bpIBBNl04hf/qNut/uc8Pld1Nt51FFq7HzLtvj+lvvxeC6VnhLS80yUK/fhpqyMnHd9AZEotoS9d9H/xLwGdAVGl5/8tv4l2FU+o0zTsclf7gcLvpqcstlIkRxms7B/n7z3KZneS5IqTF9m0msFvXI7KqfUFRXU4W8htnoS8pKKmUDPJ03pcurAhnLZMwPEaIo2mbAKNBbPqFZt1sw8cOgzNBdML6ahvRcLD8Tz9l5f6wPs7ebjNrqCtzw1zsISBeSzgBS/F3TtVQGxb9Kx3SpMD9H3geXikIzW+T1w0M/95V3NzCpFFw0pQJmmjY9TTWp4MbM0yPZMxpNccDtpWuSZuSccsBDIdhv7z2wurULL770GqNfL/3pJIU4j7LyIFOymdlB2nNGVODvv5r+ZZqvABSBTo0cpS93xOFfxr033or6sko407lh8zKMDt6jxdIFkG0OwEKEVgCTaUCmresxmlmF8rXV9JtYQw1/FUAk0r2b8hHJsSc6TbcLASbTn6eJ1JCbqNAdY8DJMumztJhIQGA4ba7zAeMLJgf7GTXX4SsnHIm3lizH488+i6IpM6iUxG5GuWS7NJ9JhGDVppHyLbUuN83DVRrEtNlTsbazFx+8+zFQWY68W1PpLfegwAOdpfXydmpFalFFtRkKmq4fdui+8PHey/5wDRIDEQRLGGiQhf6gF3prSF9PP0KRIVMH3f/voH8J+KyGt0yZaAMDiWOO/jIWLnwWZWUl8FKuM2ZmMQGofjEyWUxUF4g0kjWSQU4yGXXFaO2FfB/T3aB7SApac5puTkYq4GAzoba22oDTGvKSRlOzC4jSOJ8FoWkA5mt916FgQAzis8P3aPmkxojNEB6BpJw1GWETEXja0EfRaz7RjfN++AOU8NHzfvIrRDvaUTxmFM2fNKqesYAoNGlIz05zqWDDLc1vd2H6tNmmDrfddAv9uFLYPdRsLIuqK29PNZEmlDyYTcRt9Bn1i1bmDVHzztkVe++yK975pBkPP74Q7saJxqpo0oaH9dS0s0sv+S26ujqMUJkiDdO/Coz/o+DbaqFpFtRYYmZ7W5uZ9/bCCy+joq4EHq8dQ7FBZCmmObeGpahh9BqBgRBSSfpSNGnlpfSn6LuVlBaZyNfv8SPAQzPVk+kUoomoAaT8OhcbUMsgi+gDlRcXmUhUPpXRoCyKAGU2zNZ5GHzWUdC6ApAFOJ0lMgb4qoZ+l/ahk19gXF671RtSggQO73Uz/dRAB4rq6nH2j87Csg3t+OZ3zmdEUwxfbRWycfp3w/lLWyng0Eidun2MiLLMM6fNZIo23Pbo83j/xdfhapxMr1DLJVl28tnFvHw01bK/2j0rpW6iWMisTcnR50WgCqd/53RTposvuhKZvhxc1U2IpbNIUKArS8rwzNMLccJXjkNLW7MQbUhpW3z459P/KPhU6AIA9b+l6+TfsVFYHwUCp5z6Fbyx6AOMqiyj+qfE9kSwnb8Ku5bXwTkUYUTmQ4yNE2OQMHHKRPj8xWbvlaGBPjPsFgmFkU4mBBGzc0HA56dGtPbqk9k1Wtb4Z9J0zD7GhjaacxiA+omXdRZZ5WX5Nn22SJ91FBrCnPW7TKe5Rj1k0kqa33PU1OonTMkdSKUYFCR4ewSnf+0E1BR7cO+CZ/DNr51D8+mBt6TYjMJkFakScAW+6WzAFYli7h67YJ9d5iDNupz7m0sQHQzDRz9QHdEZajk9m8zFEE2F4C2qgKOsHP7aUQT3KNiC9ANjvZg+aTom0vX4pK0Tl138e+ZRhrLqclPbSCyKqopSvPLS6/jaqacgPDTAuln1FBcsTlh8+WfR/+i63ULjWRUoFF8NTkebrX3yCSfixeeeRVNdLR11mYcBTPcF8b19DkIZn/lw1Uqk/KUYoM92+CGHIuBy409/vsLsr7x06TIsW74My5ctxycrP8H6DesQT8RQTqbX1FQjldZqtCwdby+WLl+Ojs4eHHvUlzB2bCMd/hgLpznKGmGQvBE8LI+EozDZwFwTDaNSddBRIPPZAI+/s57y2ggX/jHIKS6GjaCyU1PLVYhLJdNftEfTKBk/Aw30aR958hl8sHgF/KFezD1wb7g0yEGgyeRKSgRkFSHP5+0uH7z1deho7cHzr7yJ9c3dKA26MP/A/ZDo7bOUFEGZyWThDRRhyeJlWPjc83jjpTfwysJn8PSCp/HXG27CX66+wczt8zjdeOHtt3HSMfsz6k7ggQeeQXFRMV1Vmt8SP1asXI2lHy/F0cccY1wUNZ1V9eFC/ZPof2Qm80gNITJJ8ruWMlr+EfD9b5yBG265HmPqxtDSUBv2dGAao60z5m6H7SbPwZOr1+Ly115BtGYMEgRKNTVjZLAPPf19xj9RIKE1thrtUIep+vLi1ICV1dWYv+fuGDN2rAGSmKex4Lfeegd3XX8Fjj/lMCTb18OjAXfj99GUCmtyEmlCjQe/iQgEgqFQn5H1Mp+tZh++Tg3EJLzBInS0dWOQwNO2uw53gBflY9L0eYsYadZhw/IPcfB+h2BlZyeaKsrx7GO3Y/LsCYh1rIOLwNMcPO37ImGQ+Y8z/UBNJZo7+jBv96PQ3h9GVWkpHl9wN3beYQrCrcvoXmbg1wygpAM7zzsWS5u74GVR4xQQzdOm90EjbYPT7UYPteyR++6Gh5+4Bw/cdye+etr5qKmsoRZNIuWhr5jMYbC3H9/69hn48zVXG75Y9WUiVvW3SLrnHyE1wz9EIxuoQKbh+Ge0DMt3ySWX4UYCrzzIiIsm1D0Qxigy/Yzd52K3mhrkaSKidppa+WsOt9n4prllHfpD/aihjxSNhdE7NIgBnpvZgB19PfSR8mgcXY9kPIpHH3oIH36wyHRI65g4brwpx8fUgHaawjzzNGUa2V1CGlZyBkhihWGmfNPh+oysl3ledZX2I+VYfre/SHMRcNoZ52H+AUfjsGO+iq+f8SP84tyLcdUfrsdd19yEi378Axx33KkIh2KoK69CUkN/UQ0RMh2il8kYUtHkSsgX1LUE72+aPB4nnPhlsRA9Q0M478wfI8WgJlhbb+6NR+PEdxFmbT+Rdzjp5/pRTY3mdwUNZsKqLkF66Y+/h/sfuBM5r5vmNsMIOQ+/lxoxRfeFJl4zeOqq63D3HXfikosuMm1m6j5ctn8W/Y9pPtHIxirQnXfdg1O+diIqyJQyfxBO+myNiRy+u/McHFDXRCaH0ObO4qJF72BROIVcUT2fkr+URv9AF7Ubne/pk7Hj9nNQXVtLzebC2rXr8PIrr6Cjuw+NBKf2R27p6ML++++Pww4+BG1tLbj8T1dg9+2n4bmH76ApDNH3s4aSBDQzlKaoWqGjmtEAS4f8rxHsEFB5jzGyskbSkjp4XcNjvrJaLF/bjp33OYLlTMPn1rvZGLkzCaXiIb6oVOB22VBdVY82Rrx7z5qChU8/wBsGkGZU7qDv5tDrFahF1cGc5neXhyCJx1DSUMNgLEftdzzWrF9PfxL45Zlfx6/+8lskW5ablWleBmBDoRTOPPsXePb5t009fATXxPFN2GuP+Tj5G1/BlF12QLRtLYoYZNx//yM47du/wLjyCuw8tgnrmG4HS5suLqewh+GgVbn2z1fhuFNPNoJg6fot0z8KnX+a2dV3zUz+0uFHIZLqxzgGB7GuQZTTVP5i3s44tHYssn1RJIMB3PrJh7h6wyrkK4rhdJWYsd6NrR2YMbUJv/r1udhvvwNQTL8pr0FySrj639auXIEf/+RsLHjiBYymBtQKt0wqS+f5q2Z3qr/IfEQGsPD5hzB1agMy7V1wCThCEc8pFyGlmhNcAqTKbJXbOm8ifR6um+mL47PSoCldplm1u/z4+a8uxjU3PUiUaVyavxNMTpn0vANeVw5DBEmMKNxxchPuvP06TJowComutdTSNM9Z1kdpyh0gCMS3LLViLKOR3hzKp26PO/56E75/+gUoLvaiJRzFfdf9HsedfhKizSuRZnBTUlmLNAOuj194A4PhtFnnPHrMKATGjoY9FUais8V0vAvMD97/NL52+s9RwfKfdej+qKBxvuKpp9ARCMJTWknz2wMnLdBjTz2J3ffYg5U0Vd8ifYZPfwf9j5hdQ1ISkl7DwDz6ewfM3siRSAgN9F+y4QhcjGKPmzUd88kE7W+iRT3rEhG83krmqNHYkLlMEhtau3DMUXvjzbdewlHHfQPF5RoSUizLTLKDyMR7MX7ieDz8yCME9wHY0NyOkmIfHfAUPvr4IxMxzpw6DUORDFas28BgwHplqOXjZc0m25qm9KnWs+ogU2bARjIjD+aDZZKNaeY1BQi6Q7Oh06EeJFIDuPzyX+O6Ky7AznMm0ZEvQjaVRpyCkGEEHKeZq/S58NUj9sCCR+7A5BkTEGrdSN9QY7oMShTtKi8CUEpXqcvsusxCKBuG1i7GyacdgUOP3BM9oShK+Ny3vvNTvP7i2wjU1SMWiyDS3QkMDmKHveZh3yMOxIxdZyNQTB+yeTlizavJswi8TloTJ10LtpHITKyitdipthInTNsJbo1/04xX1tRiMBrGj848CwMd1vBmobfAVHwEGZ/wH6B/XPMRD3qnrBpRQYEYqH60b3zj27jtlttQXVcJW2IIzoEITp0+DV+buR2KezciQPUerajGg+0d+NO7HyDCqMvh86G1oxcHH7QfnnyCmiSrKNVuZntsXL3KDJHVNk6kn1OF+GArfKXlWLdqI3beeVeavQwqasrhtjtxyomnorenE9fccDN+8YOTceFvf4FMazMbWPuxqMhOE3QoXrWqb8mgyq6Oa10xvp0BmvWbyICfZJ5gHc1sHJpHO6Ndf0MjMoksWigIGzo7+NnyM9UJPaWqEg0zx5t1H8nOfpYhybpoKSTz1+qlvEIDaj7lx0OaTwDU90RqCGXjxmGwI4ld9zwGHf0RZGiux4+rxavvLECp24WBtjY4aevVx6lt0YgV0yYawtPuqnq9qsaRnXUT8OA9T+Ib3/4ZJjL9M7abjgObJiCSLcEtS1bgsZaPka+rQITWINLZja+eeBquuvMGq11VF4FtJN6G2/7vpU85+3eS2k4TNSVSph+Nx9VXXmV2EyhlJBhgYOAeiuCgymocP2kygl1tCFIbaC1E2uXG2oEeRGia9BbHnr5+zJk6GvfefhUVVMKAZEPrepxw1InYb9+DsdeeX8Y+ux+Aqy/9PUuu2S5ZjJ80E+ecczbBl0WYgYhWZ+XJ8I6ePgOSJR+vMI3upDMusKTlw8nZV9nVJzeCtiSHGpozXNbBBiiQ7pVu9AU8cNFEJjY0wzHQj9HVZdh73q4s7zzst/du2Hev3VA/phaZlg6k2joZCJMfmk5MLZxRktLoyoNA05xmMdQMt7GcNMjwODzoXbMGJU31eOCOa+BMJ+D2efHx2k4GMqcj5wmitL6RfOf9WRdLZq3ec/O7x0knhVWVwNmy9FspUOqHVO3VNV7rdKI4Poj6SBdOnTkZswPkUW83ijJOlBeX4Z5778J111xr2tXQCOAZXo0E4t9B/zD41CimY3Q4qWVLl+PiSy5EkN52VQUDjMEhTOTvp8yYjYmMOsuScVbcgazdixD9la5w2IyHZvIJJAig73/vdBRVMFp1BRDibwfvexweeepl9A2m6FhH8e7HS/H9887DKSd8ldqPgQTp0EMPZoRHtmccZpuy5x59Gq+/9TYbwIb1zV3o7h8AvAEz185oPjaAzI92+hSJkVsCnmjk9cJnw/Phz46ci0Bxws20M4ko8kP9yK5bg8zGdUhtXM3Pzcj0hSzNRL8so/d5MCjJS/XaqIGZmA7xsXAWFg1HKSy2jNwCG/27tZi5xz648rJfMwiJobosiOdfXIzvf+c82AJF8DGgy7BStiz9V5p7BS8y5fQxTF4agss7HAxkEtAcafGhzO1HGfPzhNtRm2zHaXN3xjjWxck6+DQZwZExr5b44IMPjOYbSeb7Vnj2RekfBp80nQ5phWg4gp+c8yMzkqEZJbHYICOyKE7cZRdsV1mHPP0/+KjxsozoCLgofYv+oRTSBElX3wCmTxmNw770ZTbCEAtmIxB/iM72dlzw4+9i2sQmlPpK4WPQIdftkaefx/e/+yOWoAfTpo/CbPqSGmqzkXltzS0IDGu5rq4edNGE5P1ego3llI/F1jXjvNmtg24TyfwaNv0tqxSAmOlQagfWR9+lTe3qcCawNCM57yaI+GiGWkg7yDuNSeXBh9S3Z9GnwFPlNs2gUdkoTKW+Ip4ciK9bgpO//y2cd/bp6Kbg1ZWW4JpbH8AlF1wGx6jRDKLoZ9pTyFHdiX9ZlkHzBc16EQU0zDdEK5QSsLW9BjWoZjMnc0lq7zhm+otx9OQZ8KbDiEUGUVFbjX5q83PPPXfTTKECv8x5M0D+d+lvOfr3kJjPv3vvvhsvvfg8yhmZJilhtvAgjlTIX9uAdHubtT2Z1hTk6cWxkdIJnvNxBL1exR7YdbvtUDmqipokibb1H8Of68fK9W/j7J+dg4Febc7ThwljmzB1zGgGlg7ccu9DeOD2u+H2NmD2lCbEaFraGNUODPRhQ3evMVunn3QsZjSNhY0BkAlZXKyyNATBaRr6CzLQ+DzDQUfhUF9f4TczRWr4s9kTSuAhiMw2FvzJTu2j/C2Pkt+JSDWg8e3EPd4/nBzTte4RadDQmXfBQ55F4v2IN6/DxRf+BEcftAd6wnE0FJXh/N9ejxuuvBnFU3ZEkpklYtRuFDylLFMuq5QlupmSWd9BfWqE36YOPpLcEa3xKKKfvH99NeY1NMAVC5uZRg31DWbHsGuuu3YT8ET/EZpPoFMlP/l4GS688EIzAiEJiw4MYjp9j2/sOgs14Sj8ySGWmJKZJfhY8XRcC7RpDen7xWI0V/zbYZcd+T9NMn2/Uq8Tf/nzlQxYRuPuO27HOjrqe+44C88//yBefe15zJ+7ncn/5mv/yv+jOPqwQ7H7tHocuOeO+Paph+LiH52Ct567A//1p1+S8XHEQ4PEyzB4SFp+WJgs+rkAFIjUgGxUM26s7wYo1nXDQja0S/P/mI64YRSXAEkB08aOpndH4NQPJP1m+elK17pm0h4mM+THcirokcbLZZOwpfMo8QUosORjbgg33/J7bDdrEnqGBlAd9OOMsy/CzX+5DkVTdzDrj807O4b9VbO+Q1VM5dDd18sf8vB6NEUrT5CmzabiuVwCrmQfSjNDOHbaTEwOBJAa7IeXbaiumz/+8Y9YunSpVUcJjcqtcv4D9A+Dr9Bwf7jkUrPDlIbCtHGPm9HVSTvtiCnUaI7BLrOkL22Lm24O0wZU+5JKunmUVMo3r1WUFlEmncjGwwjwk2ngwQ5s/GQF2WfHmWeeiMoxlXSwy3DJHy82W2G88c4qLH7hDex32Jfw9HMP4767/ozf/+kCnHvRudhhz7mIt24wL/Kze2QSmTfBrvl3mg2sYa0CFeqxJdr8t5HfCxGwzG9BqxmAS9NQu9mptahnWSsL+HL6rdVolrazyDqbBuXvKqcJhrIEDvmjlW+KfG1p7ScdQ6irFcVVxbj/oWsxqp7uDX3pRro53zjrv/D73/4JnspG47NlqblUJgMYph+nm7Nx43rmA6MkPAw4oqm0mUfoYtCYc2qa0AAm+j04dOoMFDF4kwulRVnd3d3mpdmbgGcV2Dr/nfR3gU8SbZx2wyzg6QWP40HteFlSQvOSgmugG18eOxb71FbCoYFwOrpmTp0ajUxXv5HApsb3MQG/R68SsGOAfozY5JbEEqEJSl6KDnpnTxfq6NFPnj0N+Wgvoq1LsOMu03DyUftR56UZJXebcvnJSEc6Rt+yH/nWFmTaNsLGoEZdEGp0dXsYDUPfS2U3mkEqQSbKmCmS7uNR+GydeS9PBciZZ3kufJcmFAiNxhv+brQj79OhwEFz/JSOtG1BgzIn3iztSICSP+piUbcS3TBDusOYYvLJLFLSVC5ecPOXodWrMXrsONx8x41wa6yckW4lfcCf/OK3uO26m4iuoFVOhtQ6a/G4XpDT3t4pDxClzMtvDDHbhppPdVZA5hYk2H57EdwH0vx6e6kp8ymUB0rxzFPP4onHFxgfX2mSgaZNP/fQbVs4RF8YfCazYVKiAp/O6lS6kaYvnYyiNOhDjtK1EyXljCnTUdEVpitBaSJlGIE5pA0U5VGis/T9/GR6icsNLxmqxlu3Zi05TgnURAKm62Ik6XDQ1NBcBCurURoogS3JdAYJsIEhnHXWGWgMeBEb7GMBkwjTSc5H6WtG2EgpgjyZMOtBNLnBVHgYYKbcpJF1+meRAQ9JeQqcJoLl2fBQ4NNEUILRRj44XT5zXd4ZP/BZ2QYe+syyugkQaVLkGdAQVAOrl2CPffbDBb/+Jfr7W807eDVLWftXZ9XHQoAb3ccAz+PxYyAURYiRdylzqHC4ECBftSOCPU3NB6aZt9aAeFP0JRODOH5MNZroNjhCYXi8DnTRJ7zu2htMW8lnNfpaLPy843PoC4Ov0GAifVajiu66714sePZJ1I0fgxQr6WTjHzZpEiax8tqcR262HHtzyOxRio2vRfBW0K8oIVM8dOSV/DsfLqEvGIetuMT4hgoKHF4fqmpqKbna5NtrLaRhqVOdHRg/dTzO++m3aa5pgBngyDwYok8p4TAu/jADPiM8PORXGd/qX0TK3/CQAmB8MJZOu0RlGY1q2aODZtLB8jvcFDzepihUZbd0Kr9LZo31ID+pOD1umk3tfNDVjBOPOQbjGNhpcyXVrmZUA2tu5afDCAAFvb27C4loCsVMeCyBSq8PiTRtB31xrb7L0b80kGAZbck4xpUEceCk8fCEKew07XqP3VPPPYPbb7/TAGvYZf5cUt5bOlS3Lwy+Ao1sRK2A0iupikuLzcr4ZDiCmWUV2GPseLiGwlR3ml3MCE8mmhnyZHwYM5ZK7Re0edBYTtOsQXleW72+HZ3dAwzxaDLSMo80QrakGZ4DTY6e0xt+1CBZmtP8UARnfPsbmDN7FlJD/VaXBo+E8qKZMR0hLG+hzAIbf9p0bWRd/hVk5u7J7NLnlB+oNR1pAjDnoL5yUuvQ/DlZR0XpqqsZlRCIqDIlSNbkB33WmSk4yVf+5qFb4fEGzbpdDwOEuXPnKjPkXVQSLhdympFAC9HZ2W6WGPiZjoTeReHO8zejYZmGQK/2Ml1GRLsjkcX+E6diu7JyJOk+BfxeeOgP3vTXm+nXW32sEqXP+ysIgI7N6b8FPlV8ZCJ6s/e7H3wInz8IVyKFsmgcX5o4GTUanQj3kZHGwprnMjS7mxqcF6UBM+EEmgJlpquljABub+/Gyy+8Sqkg+8l8h/rkkjHsMGcW/b8+9A4OIR/wwW2nifL7yKQsUgNRmm1qBIJVvqQWHak/T+tZN6+wyftfTJs0Lw82s9nqQo2sGclU62Z6VHFpIxwpO8ufRpICq+BF3S0ybWY9CCEorSQfVWtcdF2BU4qWxVYWxLJ1q7G+eT3lk+ayuh7bz5kNxCI0pwQ3LYiZIMoAT/vyqbeuzOFGkAJgiyTMNmpsCiO0OpSf3AONO7sScUyiEO/d1IAalj6bTKK8vBTvvfeOefmi6jQSXFs6RtLm378w+EYCT5+1w8Add9xhmCmzkR2KYkZRDXYtrzVLB/O+lFngYoITgkKazqxTHQaA9kax0R+spFQFaU41JKQ5SLfddx/i9DGcLr0PkpqTEjZn7nY44oQj0d/JwIKNo8159GoqMwlTvmSGZ2mDYQkuRJGmh38EKefNj386DQcehnfDh7qinNQ88Qzw8J2PoHuQkAgGEGNUruWMxmXgfZr9bZ6jGVT9bOIhS+30UPiKgyiZPBnpoRD+dPEliAzFmbYdU2ZMR9OYscYy5GwJE9h5eK+WE7z17mIkmV4t3ZpaRrsSWJeCHT4nwMs6EeJmFaErRytDTRpta8H8UU3YvqIKjhjTpBC4irz445+uZHkjw5X84vQpANVmX5D0kJhS+Hzv3ffgg0Xvo8wXhJMSWMlI8/Bp09DAFD3SbGZzHgJFkmuYb/kTBfCpo1kv3qumqRlfXo4sQVZfUYkXn3/V7M9iLy3nvTS9DGD8qQQu+vm5aKouR6ZX5pUmQQ0j08P8KAoUAi2AlpqVL8qmUnkL9STpe+H4l5LyK+QpPpizHS5vAMtWrsOZZ/0crR0djCECdGQJPNWJPqvqoimHGpnQyIimzMNXalah5UuqGTiEcctVf8X++x6BB15422i0upIifOUrR8Pl086s9JmZhknLF0CEVqajbxA+sr9Mr/GiInAQYDlF0gp6yDPxy7QV7xEI5RO66E6V0A/fs6EW1Sqbhgb5/CcrVuHJxx/nc38/fSHwqUCFQrE8RhKffPJJxGIxlLp9CEYimE/g7FtfzUhpAD5pogSLz9oY34QmwjyqNNgQFigkzWlWLISdS0tRFk/By3TVp3X9ldfwd5nWICIxRq+8x5OPosJvmSaNX5quC4m1g8Cjbxglg+S/KHhxMwOZDuVQoEIddBToXwFEaRPlo3yN9mL2RoYZba5ctRod1NwdG5oJEjfNI0FAgVV3h8yltfeLHd5AJVyjx8NRPxrNa3px8YV/wbwDTsB3z7oEry1ew7SBow6dixeevxdHH7EHYl0tpp9QY7rawQv+Iqxua0f3hnZoc7YGbxFqAiWGXw4yShMj/OkcvASiWCq/VNZMAhDgb166UNvXlqDBScDSZwy4ixHj+b4H9FqFv5+2DT4WwjCPkiKuiZkLn30Wzz3zDCpLywiyKFw0n3uMnYjyjHriU7yP92eclFyZQH4VYJQW05E0qoPXmEYbGU0mb1dbjslBRqqhAVTUBPHoi+/g5jvuhHvCjox6CSQnC5EconlIsjhJZJ1WIJO3x2kumIwvh5JgCbWJx2hnR17rISztoXy3dphWM+XY+iHImHYoAJVaS10hOswwmOn+MGziR2p3ftczukOk39SHNjKyVgNrKpJT1/h5weNP8qYAfPVN8JdXmOnugQoK8jhquclTgdIKLP1gCX58xo+x22774ZdXXo9lbT0UXWC7CY1YcNfleOiJ+zFh4ijEO9eaaV4pokfmNq/xZZ8HH7y3BN0U8HqbF41VFdBLouV5ikOySuJnYW6hmbHNupupXdScHiqQWiqGvUaNRWk6iVw8idKyMrz2+itmH22RODWSRgp5gT4j/GyeL6z5bJRK8xJkPqt+JC3gkb+QDA1hGjXXpMpSIB6BUxEqtZK27pcDO7IQpgFYUQNIc+QYPMRR6/Jjp4YG82agvOaee20459yLsPjDRSjZYQ+2lg+JHP0NMktmRC55Ri/Xk6dM8+4sGQtHaS1cGtDXXcxb5/8JsoaohhlnPg3XiWU3mlONNNwF4pRwSiMzb4FfWlza3z7cOWygzPTsWmPM+9QprFGa2x94FJf/5nwM9YYQzfp4BLC2PYoXX3kTV/32j9hn/8Ow34En4A+33YP2uDb7tmH6qGpcdemP8Pbbj+LwE49DbM16dKxaZRYwlTaNQaC2Em3rO5BxUViSeTz3xjssDVBP37KWEWuGAUmW0bAAqPKyUjwPw4F1EqmeGQqUUZ5E+u4E3xjWNRdR5OtGL10gYUEkkRxJhjfboC88mVSDzxoQ27B+PQ7e/wAqqUH4NU2poxlfnz4N35wyCYGuLrjpy2VoStRLbxJWow0fIqM12FDas8SshHA7kXT70ebx4r8WLcZLYWq/xhqsXd+JBkro0w9dg2lz94WtfxWGmKd2lJc/owiutKwOjpqpWP7S27j0sl+jYXQVLvz1eSZC1rpY01v/xaq3Vfr0aathDFOpBUwD8bPRwASWwagBpEBK6OtnXmM8brSJjRG63aEYl7wheBzFVYzeQzjgy6fiw9Ud8DPZ0fW1qK2uM8HcBjr67fxdaRlwkCqoEbebPQVfOekoHHXwvigZXWl2HA1t3Mji5RFsGAN7SRm6V63HT3/0A8yaPBbn/OFadK5vxe77HY6BdS04rGYUzpo9B7XRLvjzMXgJKpV/E/CGydRbgsWfvNIU9KWTDaNw7boVuHr5SuSqq+jqWFP2H31sASYz+DGBkvq7tkIjoWY07fDnrZJu10NmJRrL8Mpbb6ClpcVMCJAnV0VJmjGqFh4GBm6aXEVkpj+KSRumq7HUQFZyJPohbBVpJzNzN5mAj1LY4LTh8Olj0MSKxjuTGDtqKjpDUex1wCm4969XA2ys0jGTUFY3FuU141AxYZbRdrf87o845PCjccez7+D+R14xfWc2mhuZ+oIE/yOkZvlMwwh4IuXDQyrc7AWjvPhdq4N1zVHqgyPoRJp+V5q/JymU2msvn0/RjUjT6oVQMXUCzv7eN0xycT6nxd0vfbgYbyxbho7BsFkKOaaqCLvvOBUXnPVVPPrItXjovmvw9a8fB7/PjgFqu3BnB4oamlA8fVeEown85icXYNKM+Xj7w3U46duns0x+vPLmOxTmFhTTMtRVlqPYoWBC7SQJsTT15mTqzfrI59QbOR3U1p54FDvUj0K9j/o6kUawtBhr1q3FonffM3wR8L6gLjP0BTSfCiYjljfrZY84/ni89/LrKGd0Fu7qxKFNdTh3l+1Q394JH30NjftpsqI6ejUeaRqGKSgbC4zSetQIZl8VOrMySRSvsDuIwcYm3L12I27/YDHSZU1wlnnR1bsRCYLwwD22xyknHYcZc7aH3j821N2FP119Ix544gWM8gfQEYvie9/5Cv505YXIDfUgPhCiFqZGYoP/w8RySzlIk4ksbccvdMxlXHMClHDIm5zUyAkK4LLVq9E0awaq6huQHaB/RgddGtuTYVzqyNFz9TCgKoe7pBJ33HovFi1ajsoS7SDlRCl96ZKgHw1NozB+8hg01FXAUx5EZrAHMR4ixqtw1TQQ4BUYam3HDXc8iCuvuRlt7d0Sezz10A048MgjkAvHcM75v8Sfr7oDO5SV4NSJk3BESQUCQ92sR4JajWaXPnJeoxsSps0EVnWWklH723xF2FhRil+//hpe7ovAMXoUhvoGcOD+++Oee+6Bw8M71c5sY5H12RJf0Uio6fq2wadfeYuGxD5hdHboYYejv7+f0mNH+UAUZ86ZgROryuAeYKUzCu3py9LmUsYN2FSZgukogM/sKWwqmYErq64Rqnd+TVfVoK2sAje9+zqeoomIU7IC1cUIRSNoa6MmYOAhP0kR2kB/BOFsBmNqq9Da0YP5O87AggV3IVBfhmQ7o0dqU4Vs1jT4v582MU910cn4dBbQ1NEr5aEW0rQtu8t6Baudpu2eGxfgF7/4Hc46+wfYf595aJpYh6K6ImpkBmSJBAM1BXAEdbCYsUY501B3hwIAa2knW5qZMSjIDSLT24lwaBAlFVWwe/y0g7x3MIkVq1tw1yOP4747H8Sajj646C+nqJF++uNv43eXXYpEdzOtRxhfOupkbFi6ATtRYf1s7lzs5qF/3q+XIcbgYjAh8BmIybyOoIKQaY20rJmbt8YY9d7TthHXLl6PSH0jkmw4zRh/7bXXMGr86OEnBRnLJRlJ/33wkXSLbtZq9vPP/7X57qNftSud2wtYme3igzSf6uS0tACjc2pAPkNGbp68qRDLpHqafYyVNpmtQFEvKEkUlaE34MDj1BwPrViPPo8LjvIipOkXxqIpxBldm9eu2DJGU2i8ckJTI5598UnUjxqDbMcKgo7BiF51xYJ8tvr/AA0LkiHWQS9fcbnox/l8w3WgRstHEYlRSFwESdUEHPml0/DYqy+hyevHzrvNwMQpY9FYX4famgrU1tWgvLwW/oDb7BYq/1mzn9VJ7na4aa7pO+cY3TO61OiR3e8ySwKWLVuHlavX4a33PsRH77yHtlgGASqCmuoSBikD9Md3w1P33UG/MW7W/z688BWc+tXvopJtclC5Fz/aaXs0RqhfE3GkslFG3LJMaidL86ltNsnrsOLIUOjVveWncokHbfjYZ8NFry/BJ3YvckWlSNHqXPGXP+P4U74y/KDIEtaRNBILXwh8m8pBmTz62GPw5NMvoK6qEsnWjTi6pomVocntbbe0HiuRyrERGObmKS0G+QUfiWSAJ83BSprPyloVpORJm2kDwxRRWVJWiR6a1qdb1+LxlmYsjaQx5HbDFyyj5LuYPMHKAEUTI93JMB5nuD9/n70RbV1uOq4dNOc2akUHTYrx/f4BUulNPYwxU2NYTDQ9/V4v7ASN6qR84gSeyy0taIfXX81yFuG73z4LNz/6lJJCMdPJ8lmt6fX57YwY/XBr/UXAj6A3aCJ5dXe4nD4rvUgYRQEnbr7hOrNzw857HYRFKxlcsDhawVxc5EJpURB+Rq+LGbTMnjQKr7y4AEVV5ehdvRFVo5tw7Cln4PFHn8VM8utrMybiyIZ6+DqH4KavZyPAneSVdrA3i6qGwWfqavxBq74GfDmHCU4SBF5XZQB//mgtnmzppLWqNV07e++9N+5d8KAetshoF5PYJtocfH8Lz2HSjWa9JhtQkqCXLq9as46mz0GpSaCcTJrTUI1yajr1ksvnyTCyU7+W/jPSMwJ4IpO5NEjhs4jmRt0O+q6d34uZfjYyBB/D+cMaavFzmtPvjR2FfXzFqBgahJOazh4aQoqaNs2jjsycNWsSstFeZGju7cZECPhW35UFeOanqgr0FBCRyV2/k0mmf45l1nM65DIoupNpNa6CeYAAK5SZTJUp0vCXrstniEbicPpKmGYJH/VjKNTH6G8INz50M/76+1+hkVo6xue15ZtX22wk8ugbSKC1uc+8ufydRUvxzjsfY9FHK/HKO4vwyrsf4t3la/D0e8vRvLGL/qITsYEYKvj8ZPqCY+lvad/qjt4hAq8LB283EU89/QCKGTEPLluM6qYaLFu5Fi+/+pbpztFeNaO9RfAyOtakVBNnkDTKoT2tjYANg2XTppgGHtTwdNJdvF/C4crk4aWJml5WbvYeVLpJCuISRthtbR3mOT1j0hpm19bIQsIIKoBChTED0mwYScPbiz5EywZGTL4AMpEI6hj2z6gqNsM0do2n6jkehXUNX5gUEFDCpFVEanj5g4qwfLEUZmccOHXsJPxy/jz8Yp99cMSkSahlqT2pCDwMBwcH+7Fy5Wo4aNrMC/cILgfNl0ZWCnVR/2LBlBhZJqB0zcwWlhYlszXpUr6WgKj1FjLr2tBIZVE6BSCLTLoULLPQR+5CNo5iWoG33lqMqVPm4bLfXouSSTMoIFGEutbh6z/6Hp558m6c881TGcU3IhQJIcT8EumcmcJeVlyEyppSVI2qRi1B1ThmNEaPbUI9hbuI+cVoIl1OLwGYM/vrDVBztXYMYF3HIAL01S784bfw2ItPoJ6RLNYshTfAchaV4N67HqR/HkGQUW41g7JqrZWJMS3WUYrJmNphEn8KR4FGflefraJ2cSBIX3oyg5Y6lwcZmndNRh0KhfDeog/4K3lonmD620Df34CvwGCRmKykdGUZw/+h0IDxzZBKYwJVe62HpieRJHashrYCS0t1m8YyanDbVJAwE9ar4QkC8zmVRSKTRREba2J3L+YTOsdMmoDJXjt8qSiKeA5FYubtlNpgSBrIzgI6tUiIlBmeSVPQWIW66azrZucCMtReUkItpnl1BKPMtdSC7lELkfS00tAzOtQgyoG6VeMtSGpzFkcWAfo//dRoF113Dz56eSmKR01EpK8NvWvexuSZo3Hpny/BwmeexO3XXYkfHn8cdp42AV7mMzg4iK6uPrS0tNG6rDbdF2toaTa0MdBgTqFoiJo2iTQtS5ylyWaTqKTp++63vooXX3kW51/6X3DwnuSqpSxnEv6KEvQ0r8Wjjz2jmNgMW06tqST4fHAl0xQ8qx4mQlcVJXRWVf+GLF7RshWakml52S5j/cUYW0y+xeNwu11o7+yl5l5kmFVYDz0SS1uirfp8BUar70adnieedAoWPPkQquhjlPaE8M3J4/H18RNRMhRmm1svWdHmiDJ3GuEoSMy2SAWUNpJ50+baIkmZzJqpMCurAW6NHiRoorvKynD1yuW4v78LqYpqdDS348Lzz8H5F16CWNsq3qu92+kK0EnPpWNGoyoZS9PxID9kSLXCzFlRjFXLViMylMD2O25HrdDLOlhaURsJae4gC7DFuigdTU03GzUycM3QlBVNmIQlb72HA/c7FhVjxuKNtxYyQgV61y6Bz0HfkPwJFo82XRZEEJJDQ1i1YrnZBm4lwbauuZmaahDhaNxMps1T8GL9Q7jgJ2dht4P3wr1/vQ1ZtsfE2bNQX9eEBmpRrfSLtm0wvpuHyiCeCME9aTZu/P3N+M75l6PeFUQTEvjp7rthrseDQEe/Ec6M0ehps0VboT4GhFuGg1FAEkhrWacLoZIq3LD6E9zW1ox87RiWvRsH7r8PHqff5/R9qlFH0si01e5fKNr95JNPcNxxJ6CjcwMbN4Xxgwmct8MOOKSilpztZ0U0oiHnng1L5ljNzQy2mTLvYWVUBNMtQ9IjFj/Y+CygJZoaDcnSSXYhHCjFTe2d+Auj4cyYcWhfvxr77jYbTz/3tClbaqAbLjnTNFE5akftpqDXTBkgKw/6IspPQ3T+xhp8sGgRvvqVn+C+BXdiyowxSLdsZPBDCNMZz2tBuB4h6wtsGinNw+3GAMJjJjzEaBGKZ07HW0+9gt0O+zp2234K7r/nGjRMpFPe0YZ8grnGCVoGWDatm6XPli0K0Gy5CMbhwMgtl4GAjytwYxk0BBaK0gKk4RvdYPhhujFoijNdHUhQC8p02+jvppmGp7oOXb0J7LTPMYj0RNBAju5RGsCP99gVga5uBKmZxVKNLav7TAu9RJb14dm0hfloqFBHc433W/W3I11cgScY8P2W/mW0rB59UVrDMU24486bzWbmVkPyv2E/UjQSakrHyvHziJpnw4Z15vBrGjs1SnWRF40aANdW+jR1xs9jwxYa5ouArkDGtEni+NliivW86esSo2XnqYFc0Jt2cvqf6j7IQIdwZDRYwkhx+YrVWLd6BUC/RrvIy4PUTFbzMmMxbBjYIgmG8pDJzA2GsP2ue6Gitgk//O6PmSdBQa0UpSuRUd/XCAHmI4bEQNNAw3VVJ7M0iM2ZYQRLzbNqJeYe8mX8+uzv4c0PluGg/U7Eo7cvhN1ZDtfocQiwgbxVAdMnF4kPIN62EWEKUKi1BbGuTqQJKO3Ymo5HkKRLoX36ktSSKQI7tK4ZkXUbEF29CmlqHOlvH/3yDF2UFAUzJ5PhYiR67XVobe+hz1iGCtZ9z7HjUM3nXakE3RPWhbfJImjCqPheAF6BCoATDYdbm9pFbaJ5mfJsRleUoZT5JyMDCAZ9WME20Dv0TPPz/pHpbIk+m+uWiCrj42XLkdQeIZQwD7WbRjcCDgKRTJH6tl5mons/1RBfnFSET30OVdZoPDJNky6lTjN0/DUWrAmPgs/4shKM8XtgH+yFppx20ql+6eXXDejcBKBhEpPIUW0Vot4C6Td91xEPR5Bn0PLVbx6Bhe+vxlVX3Qp30xSaXL95TnUvTCwoPFM4CtcsMPLMRtFEArtmfbR8gl9e9HMceeDeWE634LTTzsRBh3wVN//pZqz9eDnllfeNHo3gmAkIjJuAImrwoppa+mrVcJbVIF/Mc3ENXPquUZDKJhSPnoLisjqz06gEU5G91nlo5on6B9PU0h4GZouXrsbNNz+GmhIv0n0D2KWhATPLSpGg5vWyKlbnviyBBT6L/1snS9CGew74Xe1jxq8zMfgp26P9ekOSZhulEEtGsGb9GvOc3LACn7ZGX8js/vDMc/DXW65FVUkA7oE+HN04Ft+fuSPKe9rJ7JSZsq4GEJkOYxZOkRExs22SWlbkKJ2kJFhgaUCz1FHM4kUDAEavuhZ3uJCsq8Wda9bi2uVL4WKU+ElnCMcfcRDueeQ22CJDyBOUNkqkumLslHg9L7MoLSWGKKbRO3fT2i3KV4p0xoO58w/HmtYuvP3mE5iz61yEVi6GX29/VPBBFunZTV0tw2TAR/Cb0QkFXQQC9SDNnx2eMWPQ0xnFwQd8CWvWtjC4sSNKV6CmxI8JE8Zhh2njMW7CeAYOFSgvLzdvg3Q6LXOsWdyKbDX7W+PBqVyKfiWDjYF+HLzvPEb15Hl/v1nxppLFZBl8QQTqR+HIQ0/CMwtfwVT6g972Nvxo7lzsyuKVDpEnAqnTb03pMvzkmfw3LskwFeAgln9KUg4ELIXZCJte82pzo7u0DH9dvgr3N29Apr4Ond09OP2b38I111zDhNSs1jMFGgk1A+ZtgU8LwE856WQ8//yLKGIl/KEwfjB7O5zQNBaBnk7YM1awYRpiC0mNRH/h9y1d25wKmlAVN0aZ96nSWmTuKK/Bh343frFwIVppvvpiaZT5XFj40pOYNH0CwMhYUYD8xFzKGiVg21t5mYBIfg/LTOWWiOVRNHEyHrpnAY792g+x48yJeHHhvaYPbahtrVnroG4fbWOWs1vLQDWDOmfzmHRUNuUjM65vGreW0CWddvjHNuLDN9/FIYd9E0NRG8qLyhCOhc2MmzSfkci5WSaH22M0ml5O6HZRK1JwYknN3qFbwzJqv79oPIUD5s7As/RNkQibHettNnXKuwioIgQmzMa1V12F7571c9TV1LNtunAiNerxU8ahNNKBYgZfjrwXSS1HFcuJOE2XV5lHtkeBRoJvZLupXQRYrXiLV1XhzmXrcOPGdRiqKccQLcn+ex2A++6513Sci7bWvqLP17kkvfVx3Ya1jKTUGZxDwJlHCU2VnWa4QFsqvMgUVqAZPgpU+Px5BSuQGlf3SRvKsGl0IBUdwHiq/ANGVSPdH0dZqRctA3EsWPAcfT2/YZAAYdfwFzWlGFzof1RaYqzAIo1rdxMENE9fPvpwHHvYgVj08Vqc85NLmRldi0CV6YIxq86gyZcSBLoZ6idj+lZjSEMX0pdK1XxCatlcAtH1azFn3nwsfPIuTG+qQDsj9EwygWI2TF1JNZoqalBRWW1e5+AhyDVWrOi5n75e/+AQwjyHB6OIxlLYafpEXH3NFawAgcigShpZQq/6BOpHY8Oq5bjkkj/B63UT+Wk0uvw4cMIUlFJrSnjSLHOS96rBjaBQnoz0sSZfhArAEwa0wZKTWs1LrVxJX0/bsUmTer1erN+4AX3U0Ia20bzbBJ9Cf/Wj+ehjiUGlHjfK/WyEjN7kaFVeTCgwYuRRuFagrX3+PBrGjBVFMz2Rkya0vKMTJzY0YSc/wcbI0O0FHnn4YSQ6qfW8PjPB0zCXDapF14bMWWlY6agMTnWVRLpothy47LJforGqCDfd8RB+e9Ff4Gyk/5dmPeilKzqUn1TwOzWRX8NTxnyZdAVLahOmJ99Pi7F9SYYEn3yCGXOm4MmX78a1538bO8+ayIZPoWeoGxt7u9HBQ29/HGKQEervw0B3N1LUaqWMgKc21OKA+Tvh2j9dZPZxnlBbiQTNrV5dmqH/naY29riD9DdTOOfsn6GtsweNtQ0oCaWwG/3JSm36TW2kt6vnGECxtqbsGokyuzdQ/1q0dQAW2kl1E5nvrLNTLyFMJFBXHtTGY/Q60mR7wEy362WdzP3baONtml2t1TjttFPh87CRiegZNH2/2G1HzGGjuGKUPnUHbCOTkbQ1Lbk5FUBnHH/ThyNfUFrF0oI+Sp8Gte8eGMAfP1yKVImH5jeDW269AV/+yhHItG0wOzHlGOGlExFqoozpNhGpvKaLR5+pETSMaNbsT5yDFxc8g32PPFl6EY9cewUOO+NE5DeuRl4bHZG0/4p8MbO8RtPCCDqZLy3ZFMOlVa2+TgKRoJWCcbFhckVFsDeOQXIghlXLl+HD9xeZ7dsSyQzidA3Ul1pEQZL/V1tbi6ZRDWhorEFd4zg4SmsoVKuR7O+E18wmz1LbqNwsz7iZuO3aG3Da2b9EfXUFtZIDZaEEzt17L8ynlSqi6xCgMowzYLNpkbnaimWV1ldbjPT3JECbiL+PJKs95M9T2GSu6S+n6KeuKi3FL954Ex+xPM5ABaJDIdx/7z3Y/6ADTT+ltRhqy7TNl8DonRbPP/8CPPRHMjTBYzxOHDxhIsqj9KPkkwzTlkD1edd03tLvm2j4p5w0jgGcwJKFiyZOs2vVS6R5g0UVDWjt60M3y9JJSYyFIjjh5FOBTJSAUwIECA9rvFLI0JkJGBsibUpjrnHcTAKJaBiTd90VVfY0nnr1HSx45hnMnT4O4+bujVw0bhWJj8unU5eOg2WR37apmdio+mOGrJvVkevgVzstRjbK9Ls62UBA3dh6asOp2H33nbDn3rtj34P2xgGH7Ie99tkDu8zdAdOmT0bj6AYUlRKwqRhCG1eS1xpioz/IdLV5eIpC5Zk4m9HtUpx28hnUtXrJeJD1oBWKRTDWa8fOdY3wJGMUnDCc2g6Ndc4rkOOfQKdPn6UR34crZdjEs7S76mpYSDzZWbcUP8T8RXidgU2nIni3HxHyf9+998SsOXp33PDDW6Ftmt2BAUaPlPR4XNv2Z9FQXoJih8cMfZnNa1gaHVvSfv8djbg1kqkTYExaYoC0Fq+r6yXLoKKG2mXO6CZqtwRK/T489/rrePXlF+EoG6dSGclzSFuMkMCRc/yckmQeLkaYDkbHmQ3L8L2zv4nzvnsCEkT58d/4AV5+5jm4m3Yk2P1Ik8ky6RqWy+qlf6ZcinGZvlQyz9Zna2RGaI1rBMilV3TRUvT0IrZ+IzKdXYh3tyPb04xshw5GxDwync3IdDcj0b4OyfYNiNNP9DMfaRshQRo2Fs3AVzcFsXgeXz/pu+hkwFVeWUkDYW1j4mQw9vTSZXhm1UqkaxuRohuSiivaZ1sp2hDyZIE3I7kQWyLVyvBd1dFn1U8I5DVNsa+muXXTJcoOv0JVu5WJrG6drdOnLbIV0sC90C9nUp3txXTg3driVeUcVt1/D6kyXwScMmHqQ7PML8FH5mt3T+1ZrDUagQCB4KTpooA4S3yI0YTdfP2tfJDax+1jDfmcJhyw3CPDfkNML8fw1NSAjPewkbPZsNnt/pIrL8BRR+yN/qEMjjrma3hywT3wjZlIKDENTQhlE6gdVf+CL6qUTCMVeEIe6SctwNbQofxLN1tdDSYeutMsG5PKJwjKWNKs29WLO7QIXqbcw69ulksaX6BJ0/3IJh0onTAeKC/G1045HR+sXIUxNdXQ29LzFA+97zdXxEi9uBi3LlmGh9etRbSyHgkb/WCmp/2DDO9VWvF0M7IA+FnQbGolgrZQNwFRFsDDuhTb3Cy/AjJep5D30RUyn7eBjW2Cr79f/UM2C3z8K2EU5aFqVwS1rcS3RF8EcCPJRJIEmwb9NctGWlZ9X2mnG+lgECsTYSxa34aUk2X0BVFRVo3b738Ybz//NFBWD+3QKUZrwoG2gi0AsFBybT+RJzhUF0WwWtaZjPQjE4njzjvuwMF7bmfeo3H00afizptvR2DsWDgqq8yoQwF05lmadti0UFtooh8sbc22lZZVjgKtAYiEgtfFB4UomkChuTjawUFg1maQNibl0g71TNcsjOd1dRk5fcXwT5mJwVAcxx5yLO5/7AlMGD0WGfIlQSFK5zwUQr1Y2otsVRVW+5245qOP8OjGVtgoOLZgmdFOHnJEL5/Rzl4WAD8PBtZvUkAGtAa4BCgLpfJKULzMX4vJxQ8tcdBMd6uZPx9en/8rqa9vwGJukkxgcOEVylmQOJ0ZMx3+C4LJMJJHgUxleOia6a6gVGlSgDSWZvOqu1bTuxkmEDDqhuCvNCspRpBpVxnilY14nv7M5e8twlu9IZQFq+GMOVGiaUNssN/+6Qqa4hQcxRUEAX0umQkt/2Ra2stO3TbGeZYPJG3BeqjhVR1X3oPIxmY44614+L5bMX+HmWa6+Ne/dTb+dPEfYatsgId+L3WkEQyj8WwJs6l5jgDUYY16sC6sk9armPfy6jrPJsrkZ4MyG00yn9VZoJWPavhEIUnbPYhSWyZosr1NY+FpmoCXH1qA+Tvtg4eefhlTG8cjEc+grz8NW2ktxu18MMK2SnSHwkhSA9kqqtAXLMU1S1fguuYWDNTUwOcvNXl4WTbtpppjXdUNYzrz2S6K1M2AgYIS1cz4yhZJCMxZbTb8XfvpFFPoNSdQWNAant7eXmbBum2Dtgm+DBORtlBEKKdTn81hivr3kwquQ1IkX0R+pQIJpa1ZyFpWCacaLMnG074vWUQYtaUb69BSUopbVq/Cla+/g9d7KGWVxfydjUTtIM3YOLYcjz/1Cm684a+Udr1Oi1BjQ2YECI2BEtw5G9NnoGEWRpNpqpuRXN3Lz6UBL9LNrfB60uadIPvvuSfSLN+P/utKHHHgEVi/rhnFU+YhY3ebiDWXkVln4CLAqSEFNuXMtAqNJhdA5RMVBFFNZHgp80o7lnOm6VNm0J+MIJJJmSG34LjtzY76Z3/tdBx23GlY096NOWOn0AQ70RVJUcvVYMzue6Jip50web+D4PDXIxm1mtZWQkEqDeKODxfjz2+/jQ2lxYhSA6YozBr5ER9kPvVKf/VpakexQttKOIXDrZF+07OyFmYPRF7ToTb8vOcK9IXAJydWaTkVTjMTdVIWmPcPE9U+62saLs3PaUmT1Dgbz5ZN0LymEWGTxYNeDFbX4LG+Flz27ku4eflKtDK68tSWI+7OI+KkOXbbzeJyNbY/6MYFF/wa7732PBz1kwlgaURqbf6m6VLG6LH2Wo8sP1KaL8d6qi+MSSAZT8HpdiG6oRXBIgcef+JWnHTIPMPUBQvfw7ydj8Gtl18Nb0UT/GPGwOYvQRJeApwmj/VQJJ4hr3TWq/DNIdwR/Ob68G+aU2g2W2KDZVQW3qf5AaW1NSibPgVxpwt/uPhX2H2Pw/GXWx9CeUUJxo8ahb6hQXREBlE/fSZ2O/5YOJqasHQwjJIpMzBn/6PQmyHoMlkTKGrILlVWhfua23HF+0uwrrIGA9VV5BkFxplgm9JCEPwONoR8Ngmj5WlagrItKmDBCBoPowGHr30ebRN82pNXfVCSaIFCvl/B1/mfINPPxP+094rW8iqSVCNJQ2VdPniKypCorsazQ2lc9OZbuOaDj/HWYAiZimI4SgJmW4iBUBoxaqAYzXQ8QR8qGTTrTPqG4jj6+K9i+Yfvw143FU6aaqeniPk5GYHKZFLbqoNUfJK513dxREyUFuP1vMuF9o3LzLDXbfffg59+81QEWL7OUATf/tmFOPrwk/Di8+/QvFfTH5yMQGWTySPKoEQTTTUZ1toFSouOYL5ry0zty5d3egh48lOHNwhXWS1sjTSvYyehua0Xf7zwcuwx7zD85Jc3o6VzEKNHVQM+N0J0f2IUmLrtp2LH/fdEcWW5WbSl3eMHB8KwjZ2ACYd8CVGnjxqUmo2C57N54aQWfby1HRc++wreS+aRbKrhPXkGIxny3QKaAQ5dEeN78rwtEr9kSYyZJt8kxHptgizZtmib/Xw33XIzOtrb4aNW8DLRXWvrMcnnhVtrdCkZBdnYFs5HSsLmUiFtYi6x8fPUSmYAn35EvLwKy2iC7/jgEyxYsRqfJBOIllciRyYm2aC9BF3C6UfZhOkYtcPOmLz9LggNRtDX1mkW5xRXlaGZpvOJRx6ntijH5O3mMlwvg90fpe8qoOpNlPL9yEDVgIzU1hYmIGBor21oVS5XaSkVlhPOQA32/9Lx2H3XnbF2xTIMdXbjQ/qGTzzyGN569R343W6z1tbf1EjN64VHW5lpJIJ+kbSPNGuSn50eD7874WHA5PazPNWVcJRW0eXL460338YVV16Lc3/5O9z/+OsIhyMorypHVWmZug+Rom+Sp2rUysq4z4nWjW0YaO9BbWWd0ZgRWqowAyh/STnKCMr+rl5kYzEUeSjMmhDAZzYMUGv2dqFKs9E1QhSLmoDHGE6xQeaYLWujpbOpLUTWT9ZH3cM7ZKAT7gCW8vn3e3uQChSZutZTq5548knWMozPoW2OcMzfa08s/vAjlHt9KGYUc9bs7XFkTSUCzExDKjJZlrQMP7AVMiqZZwGrMLogsoamLIlTd0JSESmd5HYGNo+s34inW1djfTSD0qoi5P1B9ISp6VJ0lksbCa5qTJg5FUWNY2hC1PfmhDsUwvuPP4GBlk9QV+9HkJqrp70ZQ+EUjjhoT5xz1jcxb+50Ouh1tL8R5If6kIjFaeLJTKoP9d8Zv01lI/i8bh9yVaOwbm0z1qxage6OfkyZNQdBAu3aq+/A8y8upH8VpSYMUaMBO4xvxP6HzMXBB+2BGTNmoLS4nH4n02CjaHE8W4QakCZOZjYcQ8vGDdi4dgNefvUDPPfyW/ho5QZqxzwCHidKGVVLLLTdnHab0mKnHIMaaaSINCv5b2OEm4nY0DBrR4zdbz76nG4kEwH6DXmUMbZAXys+fvpBuPs6Uel1y81lsMg2GBpCbSSNH8ydgcPrGoH1HabrSl6olIHcD61lKfTVGQVRwCHbTysE6ZAhVFSNe7q7cMPqlQiVVzPaTmPnObPw+JNPmLUdn4eLbYLvoIMOwjvvvINSt2cT+I6orkCwjxHNFwSf4FWYF2ey0zP8rBnG2gqMngfcbi8SpeVYxd/eoyS/vKYZi0MxxAP8tdRvZvLG6LOltRFO42TUT93OLA1M5hIYotNNXhuq8Bch2d+LD5+9D66hTlopmhymqSBGL4r2ux0YU1+OI798EObvvQ/GMY2qsjJ4XW54NCjPRtcunqZTjCauq7UNP//RxXjs+RfQR1OrbrBSpje+rhYVo0ajtW8IMWrbEo8NA5EQOuUSsHYlfHZCYxkqaqoxa9Yss6On+KBXYPV196Cnq9uMg65b24oemsoQ7Zf6fYMlPrP5oqZQuRxBMo6Nz0gna95kRHDQNYkNxcwwG0NduMiPDCPW3lASTXvshvEHHoSefBCxCLVtKoQqPx8Z6MGiJx8FujaiorwYslnuJHVbXz9qmM/3tt8ORzSMh7+/D+5slNo1Dje1p4NCoNk5opHNWwCf9pMeortxd283blyxAkO0SDGmt9v2c/DwYwvMHtmfB69tgu+www4z780tgO/s7XbE4ZVlKGJBxaBtgo/M028FU2s6MfUMv8qnypKJ2knJTtP2UTSBO5aswHtdfeihGSiqbWT7l6Czvxt91CvVEyZjLE1rUc0YBiJkMNslHpcHpb41+miUaGkX7Zye61qLJY/fByd9LC/taIDBg51M6+ntQJSMpw5R7VFNszNtxjTUjqpDI33LKi0JLClCZXkJGsbU43eXX4lHn30DnkAxzTAbO6+wwoVwiuY5EEBxabXxWzXQrjTlO6lvTm9gGhocRNTUnQqPZy1hlCGie2Y0q0d8YARk4mLaUekSvezZTyGoaahkNCttnEeQJjOSiSNJ0Ok1VdW0ClVev+n77InRFaEfnhAAWccJBx4MZ+M08pSlFEBiIT7vRjY8gBUvPYHwurUooR8dkIVJx5GgBhxNwT5r+11xcE0NvKFO2JiHPyWtlUNC/hxpZPMKfFozkiHPB0trcHdPF/76ySeIVNZuAt9DjzxiXq/1D4HvoIMOwaJ330GQElDcP4hz6FsdwoirWH051HyKHE0sLOdUrUBEmQXIJA2rq9tBQJM/kbZbmlLgc8pT5WGjtLSwZZ7auBYPrV6NjWyJoqpS04UxMJhHJskmq61E0/y5qJkwgSVmheO8nqHks/IZe4z5sEkVLDBpIwQMJiqKGKm2rsPHTzxtVrqV+Z3oIvDmbDcLZ/3gh7j//vvx2gsvoIs+lYovcKjTx2iaYY4EqQX1mq1gVSMyFDalU1XsxVCGZlYd7YxsgzTLeQYjObvL1MmjLhOmlGKCTmpZafWWvj6EGT2X0eTqjZPa0iJKtguAAp7uqSbYx42ux5577YYD9joIL73yJq694VbzdvZ8LoI406jxubAX/cn9qKWq3EGkqK1f62rG7bRMIUbbgxSQXH0jPKNnMlpuoLYtIVDSCMWHaMYDCNKH+/jZx9Gz9D2U0RUoJoC9Dhcw1I9agvDc3XbFjsUB+PsGGPnSpJsWFFOHFYzO/KrPPiqDJAE/WFyJ+2hprlu+DOGKKiQohHN33A4PPvIglYBmhPOBrdA2wXfsscfimaeeRmXQj9JQGF8bPwmnjGlCoLubvkuSYFKnpFUwNbwYr0IrS/OWHQJN3QmafJgkOLUFq8aFnZTMoaJiLKa/9Oia1XiNfoNmSbiLS6AtH3sY0KjbYvzMfVA/exaiWnSt8c0M09PwkxmVoPRSX8hHU1nk33rpm2qHz1QyAm8+hba330Xbsg9QQbPY29uKUTSX2nZ39LgJ2Kjlicy7nU67euX72MB9/TSJ9AM3MmhZu2IdtSb9s1Qck+msn7TLLqhjJgOhPrQTOSuooZdtaEdrllEtQeVl4zsJRs2azvD+VCIJl8+DH5z5HQpLGo/TF+3p6YaP10qLSlFRQaEaOxo77zYLMyZPx3RqH+1Mf8XFv8HVV99somM3+VMcjRB0Y3HIlKmYURRASZQCF0vR72PQVV+F25d/jAdWfoL+IvqX1U0ITpxBM56HN1iEBqavcdEItWhQr0d1ZtD58bv4aOFj8OVSqK6qJQ/pvXX2Ynd6HefuNg91QwO0GMMd5RJIteUwSgwA2d6yAmlq6yFG6Dc3b8SNq1cgUV1rwHfQ3nvi1jvvgFuvptg69rYNvm99+3TcefttaKA5KqV/85XGUfjalIkm4FCDS+NZEyolx8OFEwClCUlWd4YbObcNQzQBTi8lq6QObWk77lv1MZ5pWY8eL3VnWQnNohd9gzRXVOlFkydiEqPTkvopCCXTGFBAQEbIrBZW2IshGm+WVtVbuRUsJHmvXtEQoZ+TocSX+72Itm9E56qVKKKWjna3YucdZuOOe+7FBJpxizmK7SzS2IpUUnQojH0PORQfvv0G5gbd+OXeu2NX7brf02v6O1N0EzqySaygaV1HMHzQ1oHlvf3ooWBl9YZLv8tMVhiiVthxxx1w+e8uwtRZ05DWMJT2cykLwuGnHyg+aXQjV4O2NW/jtG+ejhde+5haCqimcp/pC+CYGTMxr6oeDRK+fmqlTIzBAI03rUMkUIZFbid+/uKzWEeBttWMRsmk2RjivVntCegKoGH8GPjLqxBJ0fLwuToqu84P38DiN59DMU11kAqhmEWojLTjl9vtgLlkqj0eoTancKt9CRHxuAAVBYkugi9F8IVLa3EVA7E7NZW+th6DjKxP/cpxuGr4RYFqp62RhZDPIb1LTTvFy/fISePYnUa3qR/HzOsyQKMPJTBQs5kMaUhEssIaINeeyerrUn8UKkvwPEF44Yfv47aN69FZRk1FMysHf5CmPOt1Yeb+h2D2occi1zARLeGQWZLoYn5a5ufUjqRU+TrgIEhpBt3UahkCoY9BUFtbM7q7WuGiP1NKXzJE59lZW40xO8+Fp6rJTMF65/2PsNNOO+Gi889HHx3/AhsoieaswflwIoSWzhbiMIe5DU2Y7qMJ6+mHO56BPUqN1juAemqk/fx2fLWmDL8WwPbaD98cNxGT2WhJglevdC2vLse7772P/Q84HN854/t4/vnnEI2xHkwvn4ggGaIFoXZ75eFrzYusX31jKeopSDPoUpxaNwYXz9sdhwf8qGXdXAMDsCdjpjtD/iEYOvhzMVTSTxxdXGzexxFLR+jTxhAooqDwu97C1MZoerClw4zyhPMurBlIYPTO8zF5h3l0B5IMMugOUKiTtCZ9bIfM8AwgtR/9JvPZAE8uU+EzybI4DD48XsmrNZzIw00f1NzxOcATbRN8VTQNHp8feUaNgyzNRkpETE9pGIwnRbGSXlMgAZCmUK+5MkMuBGWKqjdVWoxUdT1W5v249oNP8Lu3F+F17XRAB9XuK0VPJIHmGCMsSvj2XzkV5TN2wlCakVQ8jTjVuLwoabucGEOQuWj69N1BQMYHBhEmgDrWr0V363qkY0PwOSm55n4BikEhGWSnk105fgqCoyehbMxUDCayuOCSi7HdznNwwXk/wcoP36WZDJt6aAznhZdfQjvN8jiarilBaqj+EBueLFa6rLid5XdEonAwIvf2Maqktt2O+Z4xazou2XdfnD1tOmaoN6BlENXUkgFG1Lfe+ySOOu672G7egZi3y/44/OCTcPDhp+LAw07ESV//Kbp7Imjye7BPdRV+OX8H/GD76WiiZvUN9sNLE5lKRYz7otGQGAM1tUOKGqiEJn4seewSr2wZRqssG31jO+tCpUj3hwDcsApdzSvgscXVx45ulr1m/GT4Wa4ErVOSZlbT4v0MLDXTR32Sxt9TG1tY20RSNGqTPF0Nvce4ny6S5hgqGlccUMY0DTY2e25z2mYn89r16yitzxPNAUSZSSAdw9zGelRRE5pp5Cb8l/+lMxudQFREJ40RJ1hTjNo+jKVx/wfLcevi5XgpFEec6jlH30ziEokDIZrdcXvthdHzD0CPvQRDCT5NjakhH7e6P3ifdKxLi2zoZBOBSMSijCYHEG7vNK8zRToJP309TTa1dkelpma5GIfympNRcYLaggFBeTmKKuuohavYkHn0tTTjlTffxB133Y0Fjz2GDmpOuRP3LngEyz5aignuYhw4tgHjaZ7cqRSzThgBkKZWgKIFOVovq9dD2RIxuBMJjGKuO1fUYEpdDa2BE2tb2s3QVQl9XB99pBiB37JuDdZtbEHrxnaspt9Y7PSh3ONDJet3wcH7YR4DJM/gEBwJRvLUYJpEmtQm3uQpFZXRQjmNArGV9baljTT973V0Ic5I3VNSQ2tQzB94r3oXFI958ghFupEY6EUp/fdir5ZF2NDT0Yo4/Vx/JokJbMJ9R49FLUEsa2X2rSEfbcxLf2SqAZ4oQ8uTCwQRoevw6IoVaFU/JtONUyiPP/44Bnbbbbp3ayQd9rlUV1WDDM2eXiDsoO+WIBMHqP3UF2aZXJaJeUgP6tWZWrKoCDjic6KvphL3N6/H7955Dfd1taCNZjfHcN6aPJBGB8GcqqrE9occg1Ez5tNXozmnz+bk7/rTVg7OTIZMsptV+XpRdDoSwkBXB01rB8JkpPE7WXH10Gs7Cs3zMzONTeOoraSVWVx16VDCI/wSovmxlTegYc7OGDN/bzgZIYZiWbz/wTL85sLLcOSXjsMLT7yI+hICNEKBo9bXm3rM5Fm2pWV2mIkie/IgxfoKBJp8oW0u4jTJtuZOzHWU4Nztd8Tlc3fHcdTws2JJBMO9aKCbsKOvGN+tnYAb5u2Di+bMwmTWTYvg44zkV3eHMeSpwpC7DDFGqRnyXUGbACc+a0qb3nVi+E0kam1NBYMYrRdT3RmpqemMdjJaSv2pLK+0oV5f0Uz/bIi+o13v1KCW05R8WyaBSro8JeSzBEv5mM72zfCjuuvQmLiG1Xqo8cMUyrye41Ma1dAyACmibSg+3r0NamxsNPPg5LMpigwl4+inBKbdGpi3Sqb3f2m4xcWKxyn5SSe1XmkAz3e04cYP1mI1y5WuIWuouYLuIEHTjzZGfdU0s7t86Sh4GaH1DdAvjJOxYiaZ52HJaMWsLhlqlfhgmKDrQmvLRoQYjWmbLy2CNg2ihhEM6GrmmFeOLaAFPw4DEo0aExzDrFCRNWKQICiTBKG/ZiLGb7cbGnbaDUWjJ8NXVIlExoGci5qOhXDT+VY3TJ4Nbvrn1LjUpAqylKL8Xfmi5h51TVBrmMF5F4MSva+suw/zaxtw+l7zcd6px2G/7WcZwdl74kR8Z/5uOLS8Al8fNQan7bID6oo8hrcPL16KG6mN7/5oCT5ob6frQX7TdJo2yLFMcmnkf7OOpkchbUMJLZO6hrRnDH8xwifS/wKQ6cgnYIuoXd2sQ0drG9atWUfAx1HscMNLS1PDaL2M1sLJyFxvFaCNkaJlAsO+/AhNJgWiQyZXmxeZaWsUPo3919fXm3w/vXvLtE3wVdL/EJLNpoVskBClbTCVRJwhuyEBz7SrJjMSdFTfCbZEO32IJ1Y0I1TmgqOimoyqpIPNAKCzB2FGtbMOPxrbHXwoBuis9kY1yO+mdtJsaZ4pPRpXpZPDIKQPLevXoLNN/lwYfjaAj2DzUYuxfQkmSSA1EpktayQIiEnSyGZRDzlgvuswjjSDE2pLdYWoA7ifpjLMBvE1jEfd5BmomDQNxaNHm/UJIZr3vNdhHHzJgCJtk5dzOJpXg0gbUnMoqlevvxpEwUA6F6XGIi9oohOMZgcdSby7binWsMElVPUlPtQyXX9PO4KtrdiuNIhZoxpMIy6llVg+1E+NXEqfzE+zTvHhoT5H5ZMS6Ji/ZpzpJc0OCobP4UGQJjsf58UC8MgQAzyCVVec1KDaX0/P+ZnPQFcPcpp4kEyhmO7Ezo0NKJEWt2cIVgoUrZPhI+ts+m4LvCb/3XQmc047BtIJM1xnp3uUpGJqrK81mJFkSnN+Hqk1tkpCezGjqLGjxyAeTViMZWl6I0PG7KqDQn1BVt++cS0M8h1FfrQRKF30w+woZaP5yAg3eugvxmpKseNxX0H17HloCeUZbRHEYgqBbd77T5Wfoqnrbu8g6JoR7h80wPdQXJ1sRLsjTiBrxjBzlYnlJx2KtMXgwiGB0O96/4U+SzOrlHKVBQ97PsV0CHoWOk2BiTKPTEkFisdPQu3U6fBUV9A8Z5FkYnmZ3AKAdTBdc/CzxUJ1ATETk4tGRVledVfQIV+fieGql97A755+AVcvfAfLOnvZ8HZG0r0I0UqYHgJHCvYUAwfyO8/zVLom39pzPo4bOx7bFZehwstgwkZXgfkpCNCQV8rMF7RcE01C1dw7dQxqDwMBxvhCcjmGgUgomP+tflnxhABim2iGt96J3FBUjjFl1ciEhshnS7E4CEKRETABT2mqrgIWQSwTO0AshLRrhceFJC3UuFGjGXAwkjfYUBm3Tp8LPlXW5/djNDVBkn6e3iORptj2M+MsHWSZMkmk7lPVjJTJXMnJN6+ioh2kGY3FUvSpIqiZMgXzTjiVEj0ezYNR8+I7D9ORz5IlUCOhAQz0daO7o934JNpyTQuIrDUb8kJYJjK0ACxrvNjkzIOMNf9vTuZmnnMmLe0lqLOMpj7byFCNQ7DdMJBMokcRtsOL4rrR8BZVIJYkACnB2s5W+yTL11Gjmg7uYcCZdARKHbqkUQ7elyIoAj43dp4+Fbsw+p03bgJGFwdRwvT6IgMYombMBBl4BYoQo9B2DsWgfRCq3HmU03w7m9sBRvKpcD+tBiNKWhzT/NTAmpjg1K6wbAVtKazARk1tXvdKzWRwYupttaMZBRIYlQLLrm4lm/oLM2E44wOYTf88SH/VybpYPh0rwgYtTCxgdqZ9xXtRzualhfOjlcBN8V6tU44lY6il9tbWH+SEAfnn0eeCr0B6wUdGey07GOk589jYG8UgaymNIIdfmsk0sgbkWVZ3mJGTtwSjnB76SpoKmmYDJlE/egIQrEfvgHZBF6iYJB9TpNiyYQNamteZ7WS1CFq+los1VeexSOF/Pku5plNHA0dmOA1TLaLG0UcxStcKQOChvaEl/ToK1wQchjI8KPn037TfsB6nG2vKk04Tjp4yeB1FNEsEER1zm4bQ6E9qdonyMlVWltTAIgUeAp4aRx5whg2id5tVEbx7Bp04lZHub+dsj+/OmQ0/i7mOwdLq+CAGg6Xo95XjvqXr8GpnO3yMQqNhav48zRmtTlJbppEHgo3m2LlYtkCWkap5vRi1PzM08sD6DFAY4uSLi41volw1xjBapCjUM6EuERsZn88x2Iv1UOP2oZo+8pQiJ8rt9GrZFqIM2zKuIE8mlfyWBTVJMV3WFFlPKTpTbizvHeQ9GkdmWXhMmDSJN1mwGrlicEv0ub/KgSR8zdSgYMDLSI7qnYDqjibRytDezlBbLxMWCeQyOWpGvSozyE+VQS8ZlIPf7TJ7OX/00UdIxFMI0M+TqlF/naRMEZi2W/MyIJF+U/+gAC2H2pJei4GGKL0qttZOiAkCUgFYOmumzMjjU7KeKTynw/quJPksyyFroz5KjR/rTQUaApSm6A2HzAKlPA+VSQBVfhYN52G0iky6nqdwsP4+aigPtWmusxOuzg2w9bSh2u8zPuJ68vamD5bgV++9jR+++QbuWrcKg54gBvl8GyP8/lwAXQwA+qtrEa+oQpyBSbw4gISfJpfsU3kyjMLTZqNHN9r7h5BI5hFkVO1SdMzS6IU4qo4+G77xn+ZL8iqyiTDS0qjRCEYV+8zOX2wIi4/iD59TZ7v4IlLfhhFa8zvTZBTeHIowACUnPW66TzFUVFdi2vQp5n4JhGWrtk6fD00SmxVjx47FhAmTKJF0Qp1+OplJNMeHkPMFDOolFUbzUDRMlzAbU/5ARZGPzm3SvK2Iqg9RRrjx7mb4qEXyZJgelBkrLS5BRXm5hMo0mtS1KqmF4vIjt0YFAAwLtyF9/sxBc735tc3JMpvWDwpSUiyIOl7tRQFEmUVLeBAR/i7hkqlV5GhAq0MsNgJhkRwQK1/ep6idQiYFkPTlkSx3opdlDrkpwOTZ6z1h3NHSgkdD/Rj0EjRFpeig/7QkFMdNL72K299ZjIdWd+LpnjRejGSxiBmuKS7CSmrS5iI3usn/gdIydNF0Lx0aQJjccmnXU5VP4jVcJ5HlE7MGdB189BltMUbPQxH4adBqfX6UMGDJJCjwbDet5ciznlruKf4pLQHYgFjEe9Jsvq5YH8La7ZLaWf5rRXUNmuiiSSDN4AP/Po8+F3yFmaijRmn38wkIhxNw0PlN+Dz4ZLAXEfpqtCzGz7MalZUic1VI9c1NqCxBsSSNFSmnefGRsa2L32Pl+btPG1xnWEkV1GaG8cz3YUlTGmpcrWvQ7+rEtoIHHcxp+BhJm383AjHss4ykkc+bzb9ZbmlsNQ6zkZjTdPngLi1BlExe1duJQUbvSWpnFxtOUZzKpnLJ9xK4zGEe1lmQtKLCFIEZYRQarW3A+zSnD3z0Ido0EYG8i6jLhsJ70EFH4YHb78KbL72C22+8FfUTJuKZSB/u69yIOwnOq1auwR+XrMXF76/Grz5chd8uW49LV63B71Z/ghtbOnDzutV4obcVoVK9ubyCbjZ5Rz5aFoRlklYmMyRkXpatiOWyUcv56K8VkT8TKyrgp7XS3osCnXSj1hjbFeKTxEcj6DyUrtpG0+/b4yFEqXkVBySZVtOYcZg0eWoBokxsswbZjKzUt0AFEAi82rJr2rQpJtMUJTrBKGljKIQeDZHRHFt73/FGtrPlPemcwfjGGlQRVAMDYZpYJ4qo8Xo2bkR/d6fp9NUL8PRKTWkU9ajniAZtrysSYM0QHZ8zFVdjSvuYw5JFMaVwiApnkflszM6wjzbivk2k37Xfisw2gWDMKesns2nWkXhpOitK0TY4hG6aXm/Qz7ryByGNoFMjmQ5tBhZM3Rwqq/JUr4COKLVKsnYMnu0cxK9ffA8LWtoNqO+962E89tSTeOrZZ/DA/XfhkGMPQWVVEU489SS88MrLOO2UE9HHdD9KDeKDJPMvLcVi8uexrk482NqNe5oH8deWblzy8Se4ffUK9FEb2opZ3iLyzSWTm4PeVyKSwKo9WRx+Jq8ZPEYZ2HmQwihqzfElZeZ9u06mL8tl3BW1A3liJaDnrTSMxNKFGmDws7yllT6pCw62sSbharqaYbseF1BNu22dtjq8ZjW42GkMC2LxJF558U2E4nFqLQdS0RDmNY7COKp+7UNiLW4m402AIBBRe5QUMRrKYHF7p3lZipfO9BBNWJLBSOXoMUgkNG1HPS1eM/0oFhpkkKGGZZ5MRt0ArMImLaN6K3Ud1IPmumjkdQGscN1wm1cFKDuddeFDrru5k79pTYP2WzG387ulr6i5maCDqFLUjuggXYUuNBGZOzWOhTsWhfY/zto8pozyHfUKxAw/qyuKCbAM1JLqDqG2HyiuxBOt7bhu0YdYzXQzjO5vvOkmHHPsEahqqKSDPgY9ve0MuNYZwYsNDcJPrXvcSSdip113okXw8nsxVjWvMi86nL73PtjlyKOw05eOROPUXZCl8Ld197J9GKQxso6E4/CXVrIwHmsERD6xqRnbhtGxlwpA5nZow1qUJsPYdWwdDhk7Hr6+IXiJtzRtrd4vIq9VfM1JA7JuGTrEbqaRp9ZWB/yqVB5Pb1yPHml1+oYeRuzf/d6ZmDJ+omGv2sCAXgzZClmi8QVo7m67o472PMSQ3+Hxm26SlZ09iJCZ6ivT/DrFj1q5r64AL8FaNRTC7v4ijGIBIokQkgRmQEAb7IItHUWx9lAmwLQDgZvAlOmVH2i0D2mTj0GS1I3UXH+jxbZAYp7xWXiv0XAEm85ZG1MmR81rF0jmdx4mN143YKbq07a6+fI6hBgkfEBNv5ECFmFQJEfe+KY5Nkc2yEa1+gGT9EHS2QQtBf3gkmqsZmB1zcfLcNWHS9DM+8vLGhhYJfDKwqdYnyxifYNY98k6sxt+fUMTxoyfRB6PR3F5FQb7Qthxh11x/Q034+tf/zrCkTCaGPh9778uwgEnfwtjd5qPvY4/Bd/65VX46kXXwtswG/0dcWQIvsRqBjY2L80oG4n81IJ7+djqZKZMEKBDxjIFaS5nlVWjOEOpZBto+FF1L3RKs1KqJRsiRy2p62mk6e8r0FndG0K/0iwJIBmJo6m8EvN3maunDA2L9OfSNsFnEmH+peXFqB9dBzvVbN7uZkjvxnvNzWjR5joego7oz7KwctgFFDNuOBjG7PoqzCgvQY4VTtFv8vtcSMiHal0Ht4eajcGItrRweN3UqFpoI9OlqEqazfJdjLofpgJQtkViYoEMmPiQ2Z2AZ2kqaQVWxPyuW82hsvPQ8JWWIcrUeEurkSsqw2IGBxsZ3dkCfmoHmjWHZnJk6RtZky6zOS/ibMCkvwrp0ePwFh363zNouGfjarSybuWjZyHBgtTXleDav96MG6+9GnWNTcjQMlQw/XJGtBr9+Po3v4U777oHZWXlVtlYML1U2QCBeXfSQixevw6dTH9VXw/WhyOYOf8A/OT316Bu6hxE+6MI8f7BljaCTZFwymgtCUeGPnWCyiOp19NSy5axrqO9fuQiERPJp1y8Rz62+EX+qF7qETB8odkwqwopfHo/cutAlO3p1gIG01Ox/dQZKKf5zjFdBRuWiTZV2CptE3ymVUg2SsVBB+6HIo8H8WicjrQNLfEoujIJFpqREhuEl6hp2MhMNU9p05pabRw4vaYaZaqU6ahmJWl6QwSuLaOdr9TIKii1CX0JaUF5T7pmBslJI4Ek2vz7VmkYXPLRxEBpUvVzmS4kkq6NJDWQeQ0BL6sBtC+yk2bFX1mLfn5/l6YxykJparo7q+n3IWT0chZPBsmAG47RU9ASLMatyz/B5YvexTPxBOhwYPfDv4Jf3ng95ux3ADophCW1RfjJzy/AquVLMIbWxEu/SyW56L8uxG233YJTv3oyPmJgUlFVacpi/GAKqLqmMim9W07OUBqMVxGlJlpFE1o9qgY//q9fmFejhmJhZPwUsKAXTg+1M8uucXd1ZGnI0pFLwkcg1ruLUMNI1cNrxvNmG5M9hhRrGBdKjUpKU/slaSnspVVo4f0rGRB5SoLIJtNmVEv78clWyfXYpCy20U7bBp/Iyh+HEnxljFLTScbnBGEXI6SVAz2I+h2IGQaxsZixnHKN+2miQ6y3D7Ma6ihhLpriOLwERNBjR3ygDTb6U151YpKZmuHrCwZMFJymubCAMZwxqQC4keetgdBcLwBPAYfRptRmSo5ugRxqpa+RE2lRzf37NCfeoi8MdAR+yrFZU5vyFeN9Bgu9rLOLvpzbEYSXkm4rLUZ/CX9jna5etQTnv/YCLl+yHK/EMqiatgPO+cONOOjM76KFDbTLN76GqolzEBuMYWgojN/99koEi4oIEO2mAOw9f282nA1zd5qLUaNGb2o77eGs8peXlhGAAhOjUa0ZYdAmN0HdVX2hfoQT1GCsq6M0CH9dJaNzzbJhW/B+tUkZ28zFe7JDA2YN9o71DajV0CEjX7WbmY3OZwxvxRHj/giWVCgOF+IOD9u6CIt6u7CcbRdzkU38vaS0HPsedAB5zbJQsFVWQ4UKbIW2Db7hdOSoN9Q1Yq/d57EgdEophVoru7itHaF83AzDKTK1CsozayBJ0m71DV47JtJs2yltGYHMkUZ0qA2D3S3wuy2/QtLicnpM944+S+AEguHsDW0JbCOvGdBsRrKuClsUPet9FdrBXbu9C5B6ebXykl+ow3xmejIviljFRA0fOmkWnWRwM6X/HYKmg5pwY1Et3onmcH9HF36/6H1c+spreICR/DvRLFrIqx0PPRLn/PE6TD7gS2ijrC7p7oa9thZHff9sBlcUQHcx7n3oASxYsAABTbunwJ36zdOwdMnH5poWimtnTxYFcW3wyA/adlbjqxm6BKaTnp8186RSwmD34Z7rb0WSkXnVlNFIUMjiuTSS9C3VqW2EjxFqJhpBMh5DEdtoJk19UYwBJEEmfujgrRaAma/4pn4F+bc58kfzBsPk3UddfYhQmLJuh3lnybx581BTWcVW5J2m/RTo0IpI5X4OfTHNN0waLjnm+GMwEBpg0OFGwu3B0u5+NEdicFEDKDUjPUS/tAZ1H3zMP0hTMaO2BkGmodnITh4awB7s7DDbdUlV2wg8bVitGSRigMlvMzAJXFsC2NZIt0pL6BnNadNgv0/LNJmHkU6pZjFJLSyACvHmEwtfIIJQywiKaurQGyzBDR9/gvPffBs/+2gRvv/em7hwzQo8HY6gtbgUna4gepnEUT/+Bb7x+yvQxkZbvGYjIrEs/C4fOjv6MHmHuZh33ImIkiexRBhXXPlHs+bEoUiA5Zg+cxqqqmlupXWMANBSsoFFHgY+4o86jBUgZBnUufhMBX3B9xYuxIpX38LoqVNQRlBp1Dc+LEB2Bgp58jybICD7h+Di51HFDASpxTxJbQtn3WeEXgfbmbZnOOCzgAlq2mBJJdYNhrC0t9eMbpntBWmCjz76aCLVGulSqxcwZ3j8OfQFwcfMVQF+2n7HHTCdUVeMzPOWFaOHKbzXHUU/I6CMI2UccDMsxibUDBX1kvvp+80prsBUX5D+hTWMpuuhjh76IpQySssQTbKGafyBgHGMWWNT6QJDRlIBhF8EiIrC9bTbwTR729BGwOQjg8a3SRMcAr7S2ZxRpn15yUxZF19rq5CkdG9w+LCwuR0vDwygNVCCbDkDkrpqdNKf7aOmOemiy7Hnad/Cso1t6A0NsgHTTCgJKnjEIxkMhNM46Guno3JME5yMil95/TU8dN/9ytFyr+iOal2EibqHG3RoIGQEWb0M8vaEyAwPijgqK/2I9q3BI7f/Gf7iACpHT0c+RR4SGeKxNDjYLt5iOwaHepGhyQ0mQtiutgyVTpYuk2R+Fp+l6UQCvj47mZeGG81sJgptjNpy0YaN6GI9JQS9PV2YNX0Gtt9+RzU3tbJwogTMl79pt81pC+BjAn9zKE11pAA1DY048cSTMdDXb164nCMAX23uwhoyKO9VQG5lLJ9LhZZz7ErlMbm4CjPLq2BL9hEIXnio6RL9fQj3dtPvsxkpyhGUmsJldm4S+KQMmOKnQDP/GRI4DEBYBeu3LRBbU6ZfjaoOawz2I9m2BkUMjnxFxQgzUreRoUrXYpTKTXnnrVbnvqSYTCcQ4h4fipomma6XTHU9ktSEKKoAGC2qDzQaieOIM7+HPU85BWu6evk9yZ98yOtVC3ZqczZYkFFiV4jXK8uxy1FfZpBm8faO226ndotZmpd80Ly4/t4BqzisYf+AtRm5n4EJi2fIzGKxOVEccOKNZ+5HonMlaqdPQiRHvtIvddLfoFfI8rPl1A4YQjjUB3sMqGZ9ZlSWwpEOIUG3KCc3hFmbgxqOJysP1t0lEPHpHE3s8sFevMmgS28zDNDSaW/Avfc/AE1NTeZ+M8LDh/WEqvJ5ms9o5OHP2yTdLE2ks2x8XV2NWetKbxkbwlEs7upByhNgo2n/O/lMUtzWbpzU4Qzts5jCBvNT86VjEfOSFa2FGOjqpr9iQ4mm4fAebbEQ9AdMnsbp1XkYaFujgpbaMkkIKMMqhky6+hkZoWm8WlN/YozcnXTidZ9I9TNAJON11ihMOkZByNCFKKlD5bgZKJ4wAxXanGjiBGptF7q7e7DrMUfhS8eciCVLlppVaz7WQ3V3at4b05R2l4ZJJuLo7h3ELvscgPrpsxjhu/HW62/gpaefNw03SLN21FFHYdKUiXji8ad5ieBnenqdQzEDHDNbhn5JMhVFNaPmzjVr8OLtD5oO6OL6RjMmrSE9+S6qs/CtlWnhrgjiBI8zG0YDI/IyKopkImXevSv+0SMxmk5v9xQP1Bcq39csBqMkphx+vNvXhVVZRvqMolOM5LUh0IEHKsr9lArabhMfP4e+MPjUeawERbvvvpt5rfkQGUUOw8ko9fW1G7EiHGeIHzAzmeM0N3mpLmYhH8M+NIQZNZWm2yXW10epzBhAxgd7qBWSDAhSBEXCRKHWtH2T1SYptOjTyhTAtjVQbnqODWGZbxtSmbR5TiCUWWsaO8Z0RSjwMLcOM0ugV3+VSHV25DR5IohI3gtHFRt5zCQz328wHMOatetp6ibg+G98H72DaQxqJ1dqC+k0098lX46aR/6TfEmNrw7QR/ZX1GOHPfanC+Kn4+7CdTfexErl8fH7H+LZ555HP3l05513mjJEIiH6xAEKLK1CLkWXOo0inxslDJIfveUm08lbN30mBjQjive7qKWMX0smaka42T+bAGZOCGYTmFVegnptpyHBYKnkJQmoOkwbG6ayrDy0d2DKG0A7TdO7nZ3IlRQRiEBX3yB2n78X9tprLxVxmMes4zBGRn7eGn1h8Ckha5aEZSrkZFbSfETYcG6asE+oQd6kIxqmqdECIu2mZNZ3EZz0jOGmeq+kNM2oKkWQSWTi1A4EQHigDykyRnPTyFmCg2BhscysWZlvUiEA2BxoW9d2Fm2qHB9X0dVXJXMVKCpBTFEetVNRSfHwVmmWxI8kMxOXboNZt0wQxVh+7UWiqeeDbV1Yv3I1f07hoGNPgbekARv6B+ArqzB5qPgqgbR/oVHFP7fLZSYTdIVT2POgw1E0egzdEuClF1/Eq2+/iT323RM/Puts7Dl/b1zw618wf2BgKIQiuiyUYSRj9KnJkXGMnJctfA4rn1mIyikz4S6tQYzuRMZpuRomP/JP0+vVYZ6jW6Tpv9UBF2bTf9Ur6rUdnAxyod5W5zDFhMDRzB3JTZJuZ5gC+j6FYQM1pc3nozDEzPLIr3/zG+Y5AU+r6yx4SMhU1/8hzbclFB9xxBFm96VUPMUGcCBMc/ZmOx16glGOsidNTtkSJspU3J7TmCid3R1GjUIdfRe998JDDTfY20HwDSFAadXsGGkiPa/97AQ7wwxlLceZNLJCBozD1/+WdH243GII79WzWiNhbTmmN74ziqRWGskog/nh5ywASbkTHVqz4tB0db15h3qdptZLzVFb04hdd9uT4GQwQA0hDStSV4XKrgmgGm4UGT6ysTVfcIB8s5eUYq99DoaHvAsnI7jxmhvMfZdffjmeevY5TJs6Db3kT5jgK2Y0HSwqQ5Jp+YqDiHZ14bXbbgXKS1EyawqSMp9sB8m6/GXzFkx+18zoVDSKTCiNaH8PakvcGF9RYRafK5wxgYV4wOdU50/bWREvNWfAh36fHS9tWGN2CXNS+6eSGTPR5MAD9jN36hkTbOhZ8U0SM3x9a4d48YXAp5tFhQZSR6KCidO/dQYTsLpH0j4nlocjeKm7A3H6JhpPlL8hPca7aUbp70RjqCejxwX9sMf5I5mUo++QpFQVudxGUqXxXOp0JQkEMo8GNMqbaZjpSrpsFeVzSZpRHQYKKRQuyT+jWqJZ8sOh3UDJehaB2sjLEvIz75fWFUDkr+lzPk8dYPMya7oDvFmLlmLhbvqB/Sgr8tNk57DgrtvQvWElJtVWo0qTbqlJbR5GmzSn5o2cVCGF9Q8agtQrSjWVbGgwjJ1235MBSKVprldffR0rPl4pRMDrsbRnJBJBiveW1tfC7qempuCMLg/g+YfuxcY1GzB+7jym50Y2zfvJK70bRO/eTUvA3PLZUnRt2uGmI1TFQG52bT3Kk4yTtdidQFapzGw98lZBlvpvtUpOr/xKsJxR+vRvtbVgVXTQlEvGQJrunHPOYZkt+GwClGqhBEmb2uxzaJvgG5lAAYQiSfhhh38Ju8zdGTEN15DpUTL51Q0daGGhc94KuOkcyN8wzKZW06TSsmgScyrpN2kaCLWk+gFjHQw6WCHehWQmCxedYVVQsysMIMgYnbdEn7kuR9sQYWs0Ip/j/wKq+h19bkbj1BBOL/0dCoHeYaZ8CszTeLKpIxvALIJnY2pozqY3jkvqyX1BMkWXoj/aZ2YcldH3eu7BO3DRWafhpTuvgzvUg1ljG6nV6aTHGCjQ5VAfm5lwaiPATQNRe7J88j2Doxoxdd4eLLsLG1ua8dADD5p8s+SNqqZXZIUptDUTxtEqOFFPPncvfQ8LH74P3glTqZkqoRdwawhOEyVoZOGmdpewa0+/LAOT1GAHPNle1DLNOf5SVGQyCKqjmq6OtmSTe6TqShLV3qYlCOh8oAif0MV4aMUKhIpccBW70DPYjd332Q9787Cga1GBhyM/F75vjbYJvpEJFIBYWD/ho/3/zpnfMzulaxfKQFkVNg6F8cqK1UhXlCHrZQXIBDW+i2IVpPXSbJdxVdQQBEKAoPQ7nUjTrEQHBtlg1jt7MtSsGjKSJCrPwvRt0WekaRhsAuCWNSEZzPwFGC0q15paaWRt4JPm5zgDHMHJLKYxDguPYU2rs/I0rzUwmmH4dzawg6B1FwfMnihJBjETx4wzL55+4s+X4y/f+w5eu/N2BAc6MakyiDqaLflcshbGHJLlNmqgvNuGnlQMYZry+UcdjWB5HdPP4L6H70VfRw9NoUqdZ2OHER4cQGVZufEXVaY7b6Z5jg+ivGmUGdTX8Jne/GjUkjS2EWS2DwOT2FA/lQCVA3+ud9kxntozIOth15h8hgdrpwkSfEaTSX05J7yaTEa/1OYN4rWebqxKJJEJODGUSiOSSeI7p5+BYMCjrP6GPtM+26AtgG/reCwAYOT5iKOOw6GH7ouVG9qNys4zDH+1uQUfx+OIlQeRssucKpynMWNDulIZjKXDP05boVEzBGmuh2jGkuEh+AgKzQkUOLQ1hsywqqKzqKDlNk0IGAa2SCbShCrmuzWKIeZo8qRAKrdL5s+MprARtE2tuj4o8zzUgOS8JFn+YSEfPiqtZ7PTP6Pfp/TCjMrtHh+aJk2HjcIWpoSEWdfKsko0VY+GMxzB49deiRt/83O8ev9dsNPP0tDi6NIq+FkBeyZGbZikcFHDMEDY0DeE4rGjMXXPPU1E+/GypXjhhYXUuPRNWXtpQ4FSDn49A7znFzyCDW8tQvHM7eEiAKKZuAGpXvinyQPEknwM07+q+XlR9SywzPmBIWzfNBqVbF4tZ1AfYYoOoqaB5V1BZLRxUUklBoNFaA860VnuwcvU4o+sXYlcBdvFU4SBWBLfOuNbOPSQ/Y0QGQb9N0jALBzCzhaQJkO1LdI9wwfz/9EPfopKOsTqesjQAV7Lhr138ftoZ2MnqR3NFmpqUJmbfATl+SQmlJebGRaaBZymWdFLBQMEr4aNiulQB4NBCjKraAo5jAaSCl2QrgIYBThpMF3XNcLODBGJ9F2NI0C66QtZWo5CYgCs5mUVTDqqz6fMkQkylWOZzTpftmyeTmyKWiLOpDW02Dh9Fuqmz0baX8IAIseggW5EMIDR1OwxCuDjN1yHP/z4B3j29hvhpSbcqbEaUyorQGNPlyPB5LXDaRohlmvsjnPMLBG7zYPbbrqDbJAw2PH+e+/C7i7HtF23w+qNK/H87TfDXlmHKgZuZgjM1I/FJBO0fFEvZWFsDi/LDWrMdKgfeVobbc88s7oOXsZYLmr/FBGquZiOskbkyhuxjr7dkwM9uHHjGly8fAnOX/I+Lvn4fXT4/Ii7AxgIx80e0cefeBI9F/JP/BlugEJ76FxQTF+EtjCT2UroixELQJ9h7PgJ6GjtxEtvvImc3w+POm81dYgSOLq4DF4yWFtYpNULxWsZuwcdqSw+6O5CnFGtetW9pZUoqq1DnAyU/6EIL5WMEzDSAIIfyzVcOYFFgDIVFYikGY1/KP9NQKfpoSYjlHmXYElzz9+TQ4MIRaJonDbDvHrALAkIDyITj9G1413G8bHImkUt4Msfks9pmSfT2AQvPVOkpdX9xSipGUWXo9r0f2nUJMZDK/TqKsoR6unHsnffwYdvvYL2datRWVKOcePHw00+6RVaTkbJsYEoGprKseTjtxlFD2BD6wbsssNsjJ80GRdc9FvUjpuOA449Cn86/+foWrUGjTvtSMBrW1zVm2Xm2UwEEAp5aA1HkdeO0MZ1LFAPHIMhzKtrwKENE1BOzGt9SnexH2vVPzvYhwdXrMTD69fhmZY2vE+3aSW14bJYHIMePwKlNeSNG46UDXH6luvWrUUVA6SJEyearAs+c4G+KPh03xbAp4d1fBEQEgjqfGZDzZk9GwsefxKtBJT2NI4wvO/vG8CsxibU0kfK0DzYHNRJZJTT7kWIkvZep2bE0Oy5AoaZ5U3jCE/WiLWK0R9KR+NkKhlrKmSVSYWW864/fmP+Fv5EDg3YEh008pROCQafYtSmqFvbbCSoBYYiYYwi+DQspuAmE45QCUV5v0DNhKx/Vj4G1NJAw9zQV5WPaTqorTR1PZmk6VbXUlERHfKAWfEmcEYGI4hrV1FeryzxIUlHfeXij/Dmq6+imY1ty6RQV12Jxpo6lDCQqKsvQ6yX/tUb7xFUKeafw9TZ03HpxZfioEOPRvPGtXjmlhvRMHM3lI4Zi4imWUm8GPVIZORemG3R6FaIx26mH23eCH8ijOJ4AgdMm4ztxkxhsOTBqlQcj21Yh3uWL8cTvOcj8qTNZUOvnxqtvBIpXxA9Q1HEaGb14sfYUASlJSVweTz48KPFeOKxxzC6qQkzZ8004BMZfpl2YpGYf+Hz1ki/b3ENh/WwqmSaYSuHBU4btZa+B8l0L32hpx5/HB6apBylpSec1pg2ZtOncdmSyKfD1BdkkrYVYwXf6+pAVyKPuDdgFqLUTpgCbbAhc6L1CPHBIUUfZlxW2k75CHTWJ+uQTjRllcZUuaXphEZqZKkBzVpWV6M2346TkaF4BPXTpiGvXes1xSsaRioRMcNLgrM0iDnr+zAftM5Dh/FbVYKMfEsb0yQI3dLc6m5ixCnT5w8ioLHPYLEBc4TpJwiAIq8LpdQ0SMfRsmo5Pn73LSx9/20MtKxCdbkPZSXalmQsPli+lJpwCH1dnVi85EPTPTVt1hTcc/sd9J8dKJ8+BwkKboo+nrp/zEgs6xenyVcfpocaV5v8hKk99XLuQCSE8dRye87dEUu7+3D/4qW4a+livEZftIWuSZbuj+Ykumhe7S4vuhjsDNHqTBg/BqeechJmzJyBNIG+Zv1aBkwZ1NfWmmHVVylEe++1FxoaG9Ucm8D2RU3vFsGnh0fS1hPSdfpHPMv+q8F32H57LF+2jH7Ke6iuoH/hLkZbVxtB6cC4+krzPlunulhSNGE0zUsGBrAunETMoenYNlSMn0izrTUR9LNYjjB/dxB8RvONKEahTPpfAYrKYX0f1l78ruE7u12hhMOsInMyyEgSfFFqo4apM5An+NNpgobf0zS7mmiqDmFFiZpub4FctdPgvAVuu3xF5UMQGImXi6r8WHfF1PJtM0wjrbUNviIEqEV8JaVgiIFYOo04NaW6S8ro92mvvqGeLqz54F288fyLWPLehyimwDqzOXSuXw+/3Yll73+E0Y0NWL9+I9av3oC6SVNRVFVrXu8qle9mfk51sbAMmsSg8WMXHQKEetGz6mO41ZFMPhYT+H3hKJ78YAmWUftHi7xaF0FeS0kAEUbDnZ29DPzoj5dV4Oe/+Cmuv/46fPnIo3D44Ufg5JNPMePgLy58jvlmoBnW7e0diFEwjjzqSNMeBdBtHS+fJXMvH/oM2jYH32epkPCn96iLQluvan9gvVR5LdX5gfvuj46WdkysacJgTysq0jH8fL+9sAely9tFB5ggTDXU4qY1zbh15Tp0UQtF+Oyso78C1DaZOWKaZbxh7Sq4YmmzBtisDWH2/F+ZbiqJdVFCQCzwvzTv06aSgVTYLCGMeOh/EsBBpp9cuw497Z3Y+ZhjkS2tJfPSiHZ1IzrYBbfQR02yCdjq32N6Bd9SYDOduBIMmTYBjrxSQCQy0Z/OKg4/66qDZttPs+2j3U8M9SBJYYoO9CGTSJpJoNZbf4D+7l7zVktp/OryMkb9hBAb1uyv4nKgnc/WNk7E6BnTzUbfQwpG1PfopLZjGbQ0QOVTuplYBNmBdtP1o676IroEae3AmcogpTHfgNcs+IoMRtEXjRi+eb1uzKUfecIJJ+LQw7+EusZRRrOrEvrdqiHw6isv4cgjj0SKghT0+kxH/D333Yt99933M7gp8FDXRoJx83u2unRyy/RpQhZRAuVnsSE0e1lmr4zRbn39KNx7331m29o8I9fOWBg9LR2YMWo8Kuj/0ZbAFaTDG0vhfZreKM2Rtv0q4nNuBh5JSrW24UiQOWlG0G4GJdp0Utkb2Fn/DA3zyFQmryngNN/pWAzNHyyCjUJRVFFBp95F7ZBFhD5mnFF147jJZjjM5fQiHw4jk46wIfViPpaX5VDjGFQo0NBOTbLb1KLq8pB5phI123+4aZsVyLiZt9wJ7VfiFTiz9DWoTewUIu1xk6bvpCWhbmog7ZpqTyfhYFld1LyKUP10MYrJF780K8ugcVXtSqVOee0T4y8KorKylBo6idbmZvR39SDe1450Ty8DlF7Eu7qQpa+d1Z7W2lotqW4rFpnPZ+kiZHwes8t/jPalbaAXA/TnxLXddt0J3/nW6bjk0t/i3J//EtvvuBOKaf5FBjTqdmJ51C2lzvnRo8egvKISDz30MAI+Bi19faipqcH+++9vnhGNBNvIz5uTfvsbzWdIjrZI2mYLP29OpuELKNft/Hz22Wfjr9dfD39FlVl2Z+9sxT7F5fjx7ntgQrwbGTbcwnAOly56H+vpzMZ5V+UOO6Nmx90xRP/FRYnvo/bMdPfDR0BpsxxCgMlLFzFPNpqAp3ylZ7TYRbud2lwe2Pl8z/tvwB3th62kBhVjRqOCQdDa1R8yCApjlwNOQMkk+pdpWqjmVgyFqPlc9P+yMdNgSjNDf1BaXT02+ViC5k2554xWzjF617qKNDWQcQnELwmaeMB79NoDvSBH2lvju2ZdA5/Wd635dWiWD+9VX5yTvpsWH2gyBrkEvfzQkZMgU28x6NAYbdaVNuPDCeVN7aX+SrPnSla+KA0+s2fShqzOcikFlSdrOu5FzW3tLEceY0Y14vDDvoTDjzgSe+23v3lOZdvUfibI4pnP86LhtcjweZg38+fPxxuvv46K8grjAz6yYAHG6e3nI2hTeiNI1wqk37as+Qr3bPbwlmjzDDQ9SWs5NOfv7XfewapVaxGg76dlfx39vfCTIXNGVbMgOQxQul9ua8MQfQ/1vdnpJ9UzEg0zDZUhk0ibN2xrV3WZOBXL7A+sgpNlqkuWEikTocDAmEBeVG//qCKPec9EaoDacyiMUE83nfSE2UPO5y8x274lQmEMdXciESZI4yHE6YNlqDlyg4MId7cj1sfv1CpxaswYfRwtHo91dyDd10vUhqg1h5DTbOXBAfM5M9SHNM1dPjoIRywEhok8R+BmOVwZRqepBIMVahGBUcATGFU3lpeuIoVJmpbAMojQBYFXgQXByqopCLM5xYU0n9V74ghAWgR1lWeoTQU2BQUWj8QrApvpr9vYhprKalx1+e9xxe9/jy8ffwLGECxWQDVCcRiyIRweRGdHhxnBkgXSb9bv1lnjzc888wwC/gDaWlux2//X3pmAaVFd6f/0vkOzNau4L4jEjEbcMJo8JlE0YEYnmlFHjf7zNy4xRh0fjZpxnkxcRx/cUKMxo0aNMWYZ12BGoxk1KogioOw03fQKNE3v67y/U9/9KJpuQJtu2sDbFFVf1a1bd3nvuefcVXl94MSJ0esJbPSve7if+nCg2kZ8CskXAs7BdWj3QS+aN2+enfSNE2zd2g02bNgQVRt1NqSh3i6atL99Y/xetqY1w2566y82TxlR36J3Ru9ph5x2ppVKzKMDtcjqqypdYXmU3kRkklFyyUefBgNVqa7Qg8gUVYkycIZ0NFrJwnnWVs30TNX0kkSdzEknQzJzbJB0q4b6ZquR5ZaTxdJryjxJzhB3hlvVilDsDeeTj5qpQqNxf0kgbRAyxDcRMtJAn1DG+s9IKqvY4AYdiW5DL0aJ57yVKfHK9ENUBtrg2J40rTNT0jPdJ/zkinDN8pMhXXXNNZY7WFU+hbUjx/1nDggSmW+47qeqlvV12GuXrR6+efJUm3n//TZCag0B5pvtik+K9EHGTiIwFsyfp+r0t/bWW2/ZITIcGSQ6efJkn10HiBf9+eTr0qVL7Zijp/h3+X3SSSfZfz32qM+mIww9Ic4l3PWafCHCnvh8mEAmvs+zWbNm2anTT/HRHYXMd2hstKKaNXaRSsuUCYfZ3bKgZpUXW11alnWOGGuHnnS6rZU+iCrctr5Ohssiy1XpxpLz5R/kbxQirjBEZOG1KXMlDfKkl2W0Scdqqbf1FSVWx8rrLemWIfKQ6MzIR2mj94MBmqwkxeACFOj6pnpVwy2eEbGP+DXNK0OkGhQMHmIFyozB+YO9B6aoqMiGjRru93J956NoP+IcSXmGh5GOpB+z/EM6kWG1kppIjwYdK0tW2qrVq6yidI2tVc3QltZmY5QO6Sn5chepAkifBuLPgAhVwVkpdZalRG7c0ObrU7OiwQnf+JpX78wiJM3vvece/yajjWe9+prty7p5qAYKg29bINJh+T/33HM2Y8YMe1ukGzFimO84deWVV9rubGBNfgqBA1TbPl1TOPbYY+2N11+3USNHuYSc9edXbK+99nK34b2uiHMJN9tX54s5JaEB4/IeuOdeu/iyH3iGFeRIl6lfZ2Pl9rvHTbNFZWvs8ffftGZlYHvhSDv4K9+0huHDrVXSqFGSr7p0qeVIWqBvYI1S3eqkmCD55H9HpsjVqqq22TZUrLSG6gqrr8WibPSh+inSz9Kk2OfL0qbkZkoTR6+irapJhgnXEaVTfc8R1p8eNaLIJccBBxxgo0ePjUgmw2VY0TC/znY1IZbA8STqPt03R3hH7pFQKxavtMr11fbKX2bZXbfeae1N6TZmwhetSGFIyR/k7Z+MykGVWDb7TaupXCkjpsXKiivtjjtudx07Qodv4zVFhXvRosVWNGSoPfCLh+ykk09WoWxxiU4qzl+4wEn7zjvveFwuvfRSu/rqq3wxb8/LkKexeJJ+4fdPf/pTu+H6661IaYXUveOOO+zc757nz3pCnEv4s10kX3ATZaKQ+O0SUSWW29dfd63deft/WoYsvqGy3BrKK21Eap4NHTLClkrHYNORDen5tv9x37DmseOsRVUphkN5yWJLU5XJ+sGwjuoskM+tUklDqs383BT7ZO7frIUN+kSO1OwsS5c0Ytg681sz5F/tmvWW0dJg+Wkdsh6H2957722TJk2yiQdMsLFjd/N7zJctHMpWXNK35L2+ov8T2nxXyIG7iRw6VE6iQpH4DbiOkqQ7qSA9Ty+z5nVeXpatXLXCvvLlY23FitV26NR/stFfmmxrFHaWoe2Qm6KsVCt5/12b+8aLNnpopsi32s4880wfck8+BP8hwxVXXOHBuvHf/82uF1GaZHXTHvj0M7+xc845x/cZZr4Iz774xS/6+0hPDkZvR35FQiTyG/Um+sZfX3/Dt8NlwMO6dets2rRp9sSTT3o6xMMRB/cDeN578vG1xHeSHw3v65pL9Gdw0cUX2gMzH7CxMs8R33VS+GlPy8kr8M0Aa1JybI9jjrfOffe1Bkmr9OY2r3ZR1Fnkxid3y88QIlYeYAJ1enamDR+WbyNUNbY2Numb0u9UwtukQ2WKgGw/mt7cIWOgwea+8AfbtzDL/vSnF2y8rOAocVHsN02wTeISSwfuuQ4XAiFwz937vYQfijOv4EXymfyJg65J1X8ukRYtWqJCOVh3O2z6CVNt9gcf2T7TTrOiSYfaukbpiqmS3I0tNkaGVH3xJzZ31gtWmNJs1VWl0s++bi+88IK+RWmM8MEHH9iUo462eunY5/3LOXaPquHsvGw3uH784+t9LvBV/3q5jd99z8QbCRDOZDAj4gXEJd+aqmo7/PDDbfXq1a5uUOW+/PLLNmrM6Ci+CXdxhDQEPO+hSH8K4CEZpH8hEzyz+LYOlx+JxL97xj32z985w9aUr7H2hk7LHTTEMlUVd0iykaHNsgjFJstRZKgefIK0/OTAMqTvFsmX8FrXHZbHGCKRs6y4zKpqZDQUjLGMoXtZe+ZoS8seax1ZI60pU8ZO7jArGMmAzEJramrySTYRIJ78I8CJeHD2QsVvnaM0SyS87tEqwvNAtvA8OoBu+D10vsitXta130xA8k7SlTcwljKzcnwoWZ4Ki8+mU1xVjIyBnqyxkiE36alt0ksbLKtQhTUnywdrZGdmW0V5udVLf8TPCB128MGTbMoxR3kw5n70gZVVlfv32Mzm9ttvtbvvvcuJt2jRInvggQfsumt/bDdcd71de801dstNN9vPH7zfXpZFy4bUVKsgmb8CKhSDCxgTyXV1dbVX4SDubkvoNfnIMz88oaMPbnJWQMgkhgilp6XbPXffZ6edeYaV1VSoWmYGW7oPZKT3v1ORrKmpid5rT7MchvzoHYjJPdr4opErlCyaK/A+XRmQY1mZeVZWutqKlyyyVctXWG11pdVVVtrakmJLlWLNN1JF1PwheUpQKfklJRvzCv/lWTIeMILDCxFxiQ4PQzy+uEk88zvuR8KN3/PoR9d618mbBEnPQSOujJo0mUwyTNjxfPRY6V2QbkOj5SgdaMlkv5HcbFm5snzTWljnOscHx2LgVFRWW+nq8oR/IPL7H5jMLRQXl8h4kQlHwBSnQI7bb7/dJkyYYBdeeKH9x00/s5tvvtlmzpxpd911l824Y4Y9+sij9re33hH5JKHpYkwUSmLGmjqs1Q0wrtZJz3zzzTf9N9g0rt0jhLbvQBgUYawrMqBQOsL9MvvPO+88V4wbG+pUoiOJxkhcZpLRsEriEKkQia6R4Td6GROBvG1RMcnNTPdZcXVrym19eamtXbXcaleutIpFn1jV0iW2rmy1r3JPxpaWljpRBgKICwdzYdmKaqSUeN3w4fAss8HwrqaWZlu/fr2Vr1K8yqp1X4aD0on3uL9S8QReQHSAL30pIh/pjGTCLfocwM3xxx/vlvGCBQts+fLltnzlClusdMIYeW/OHLv/wQftxBNP9HUTER7ut1MvwsRE2x5WM3mwcOFC/72t6HvyCSExgkTIzc+ze2feZ98+43SrWVvtoyaogJBo9GyQSGwywnshY0Ak8aJrSrGXZN7UPdxi4KB/oCwjScRN6Yr0n3ZKolZbZU1l1KCrtyDfRn+j844CYYcUrNXHyp803SBl2hqbraKk3EpWFnv1VyJpjXLvzUFCWAMaNaJcVS8IaQHQw2gG4XdFRYWfSR9AwcXI+OpXv+rSb4899pDRNdaNrsHSnTFMmFbKgALeY75J13RC8mH9Qz7WViRsEH1b0ffk21hQHCECSLWHHnrILrnkIgW+TrqM9DU9otsKCUjioPcgBXsCiRIlNNGAhLIKIaXTLTqosjOlF2Vns4qWdEklKlhbWeXngB1KQNUMFBziQg3BkiGEp6qqyndi6hAJ2beYqaZMZUzPz/KBq1QXxIl3ISbvQ2JPO2GfffbxvlcAefFzi/FM5FVwE6WtoIIA0ckff6b7bF+Bzrf7buO9MJCftF8iYbcVfU4+H26FntCOrraxVAIs3ptuu91LUH1drUewQWd2I6KXAF0I+IqY3QD/SGcUdg6XjKLbJode9d0oUzLMZ3fRXiggKdyeiGGLGdNH8CDQca84+nAwZSKN1Eh1Ck6WdMCsNN3D2ldkSQuWJnODQ8690Vf3FjFAtUv6YgiMHj3a7wdyxuNIT8Wdd95pF198sV3w3fPt0ksusauuuNJu+o+f2eOPPmZvv/mWt4cyWgkE/0nT+g11LlWRmKCtrc0LwadJwz4nHxYWicM5HvmQSLTF5Uu8k8jM2IJxVD3ogFFVvOXSGvzkiPvPKGT8oLTSkBwZAvJbv1lRYNXKEgTOjocCRDCkJTjZ0K1yc1lMTumlAstaKvQDt3e0OvmIIwtphiWEg5RDb+MZkjCkLaCxnN+QKFitATTPPPzww673vfHGG74u4KOPPuqEvPHGG31u7mWXXWaPP/aY98wA0pdrDEOkLORGkUH6IbE5AuLh6A59Tj6FIHERgQBxxAmVXzDIE4aZEWlKZPYYY+hS2BZhS8GMGj7xa6MbfjLKhamXlFI/lLXokemqflNyBtmy4lIvvV0RD1d/ICo0DAiI+pVJm/y8QSoY6KqQizF7DNbQM9oF5db3fxPpWOgSsAE25FpdEumx6GcQE0AOgC4WyMCZ59/73vds9uzZ3tzyiY4VK1a44cFvdot6/vnn7bobrnfDhWo1+Fmn6pUlepHQ4V6bJF9eQb7ri6BrHneHPidfxAslsP4AAdokULpNgCW0JZEU4FaRsEUJrlLPLLSeIkDkoqNVbqIqNyRuknA60PuCxPDqOyPXMgcNsRXFZaqKIiV9R8Pn8Uoqs1E08c0fXKiwUlhUHTN6JY1qmdEqShOdGcrFIFNWRCBeDOuqlSQqKyuL/CPNEmLdt5zXb8iJdKKQYyBgpASpCYGQuLjD0CgcOsSJNHT4MN937wAZJHmqwnGPHxgWjK/k2+ilDn0PY4WqGPSUb3H0OfkgACV688BQYnTodp5KEHN26YprbWv0kdE0ndAOiATzREooaJAZSQfZogQmCptW6XEw3g0jBPf0jrB9fmdGjjW2NXh7X1e4P3xKB9d9D0k30kdFTUJc5GIQheKRlunDyTja2d9XBdMXXaJPUUR1lSIRZxqOq2vWbWLxhiaVUPAwBrB4GdAASTFAli1bZkuXL3Np51JPOuCKZcutpHiVlcvQqSgrt6qKSqvUe1WVlVazdp2trZY1Kz8hGTMMaZpBccjNzLJJEw/6VGnW5+TbGghqjsx5XxxIKUopROp5kwDkImPkiAQNEXPicabhcytAetKu55Yw1VZi+BJb5pMZAH83+q1vcnyKROwNkMxwisZyb8gVvKkIRUEE8q1HBV8rRuHivm/dr7QhrKSXD2WSM6QQriEaxEJK0VMEuIe0wy3Sj2qSg4Zqutpa9Iz7zY2N3m6ITrc+0XTCu9yDtNxHryuSFb148WJbsmSJ+59XUOALR8XzaWvYgeSLPo2sYoiPLyWhQLMQENItLAkbmg545sRwCaiSr/8p/VsD72C4hARhWQ+sQBSBkpLijf4m4DpMwi0lun8QpQVh4aBRl+6/TpEjVI0+XhHVROlDeCmcKYoL+l0g2Mcff+xFDcJAKJqtGkUm4Dt7Km4Qh7a7ESNG2Lhx42z3PffwPu699tnH9jvgANtfVeyEiQfa3vvuo2Nfd8P3yIeo/VSaOVJV4Xz66aedmPg3dOhQO+aYY/xbIT1DmveEfiffZgESmYhQC0PLVa4p/W2JphMMBCKKFQjTvOMcA0PKOJO3ffk1qu5tQhRV7y9WNYUFSZVDQpEpSAGCxm/Iz+E3+gF8k7izvT9hgXDECh0w2lQFKbfRiuW5k9K7GlleJCqoGAq8z8w4CJmfl+9DwQAkKS4u9ue8g8XKoICli5fYgo/m29tvv+1WLxYvixXNevlPbgFjRYdBo4D8wIiZ/f4ce+gXD9vwocP8GSNcaJQGIZx8Z0vod/LF4Vaqqg9PTIWXILPwTqYU7GwUbSxfJ6AqJyIvgqqCUaCVGSJpovYVUWhC4eA6utcdSBSOjCwWlEjxzMIL/76O+KuecFtJvO2BTb6Jva/MZQUtjIkOpQXbIdCgxy5NVNG+I5B+49aH2Sc8ICPR50gTpBrTBFaXlvrWChRuGpuvvvpq71I766yzfBba9OnTberUqXbsV47z44SpJ9o/nnaq9zxN/9YpNvXkk+yGG25wYwXpBskxQCAj/cHcR4VBIjI2MGBrpAvoB/JtOSBkPtUMme8L+aR1+tZYRdmqfjoafS4tC4izRp0vldbeLAW93Q2JNEmF7si26b2NUYTsJJTv8ZaWbiWlZVZeUe6S1cmdIDOJ56U3UYL7FHxCJEKPQypR0KgaCwsLI4tfYW6HZCp2nagiqRmS+iKedLf0nKi6peBSdNZWV9ucOXPsxedfsB9ccqkdeeSR3m43euQoJyUN0a+9+qpP/lk4f4EbFBgR6H1IsCMmH27///99z2675Vb7r0d+aS+98KK/z6hlCM3C3/TfHv/1r9mc92Z77wZGDguFTpwUDTIgDtuK7TKSeUvwoUr6R7ntDmT0zLvvsn+/8SeWlpdldTIEOlOybMT4fa0zb7BlFo4RKbOstr7WCULkGF6FBKDKDUSTMHDE9UASPLKM0Zf0jurqgpxUy6ivsY//8orlZaTYS7NesiMOm+xEC2H18PI7kLAXCH64lHbrvAt0v6GxwSpKV7uBMLxolNXXN9qJ06Z5lTf+2BOsefBIa1IEafsk1iwhkm8NtmHpbGspr7BCWe98g33TsHrxh01l9HHLUiHLVmGjOQvpReFrk4pBNYyBgX6I9Lvv/pk+ijkgxH/9uhq3jCtl7T777LP2+BO/8nd3GzvOu9JoyvmryLzHXnu6v7zjxmI3iKcl7nY8+XT7l7/8pc+S99WgvDbJtHV1srxkAY4YNd4KisZbasEQa2REr9wzb8N3w5YkTOuMFvmOPItKXVcC0mLoRodlWFZKi+U019uque/ahvISe+rZp+3b3zrVOeeKFiElyAnS9BZbJZ+AUVC2qsTJMEwSBop967R/koR63cYfN9XaCseJWJJ0ip+PaxTJsjvqbP3yd621co3l6xmDciFfSXmZE40RJ1+afJgdsN/+tt9++0VtcHm5Hh6k6v33zbTrb7jexw8yoGDipElJgwI3WLeQDHIi3fjNtmQQGIuZBnr8fOaZZ+zoKVM8f4mn1yA9IJ6e/UK+rYFAzJUInyb9or21yQoG5fn8VIyKVgms5lZVO6ycPnSUZQ0dbvmFw6R7FNqGFrO6zhYlBBN+6I4Tc8iEkNliYAi7W4i6pGqT9mQ5LfW2btE8q1y+2G6bcaddeekPvVnDh30Rd/zQ3/ZENM84kiZd0d7aYSuXLZfk6PD2M0Ycn33Ov/jI4L2O/ZrlDBtnTc1SGRQnemqyRJD25horWfK+pcmKzVG8SKzGthafcXb5FVfY5CMOd30sGCNdgW55+umn2wvPPe+/GbLVU16HENOTwogb1AJ6PX7ww8vs6KOOhlWRg0Th2pjum8Y17v+AIR9AR5l57z3SPYa6pRZ9V2RRiW6ROG+lOSYj13ILR9qQMXtbZ3aetYosG9oapBPR+i/36E4J/7xvV8nGYAIkWegtyUhps9z2Bqtd9rGVLvzIzjzvHHvs4Uf8HXQ/l1B6l+9y5t3tgZ7I5/qmnq1aXmyNIhJxH140zL5/6SX22K8etwMPP8YKhhbZujW1VtewXhHp8EUgOzqbfRplFr9FXsb3FZeW2B13zbALv/99fVCeh6xTWgYrF/hZB9stYN1iBTMekHZP2vFoDwxuMXyYmYeeTD8xbXmHHnqok8+nXTa3uLR0ideDZA8YeOQjd/WvpbnZbvvPO+znDzzkicAqBdk5qgZUvWbI+mXdlYbmDmvozBbp8mxw0TgrHDnGGrNZdJtp1FEThTfRSGrCRXoEJAx1j4jqM4pXVmaqT7GsXb7IVsx+y46RlfcnKdbe8Ky4eqITfxJSp+0lAXsiH75zp3RlsVdlVH277znerrn+Orv19tts1Jjx3paHUUBzi5QNX/KNFQ7aczJ8qFVqU6ulSGq2KO7PSC/78nHHut8hH0O84t+GjGFyVwDVPuTzuTVy6++pEFKNh246EPxDelLAvaBuA+Jc4v1te6sP4aOJFSd2Gr/2x9fYX//3f32k81FHHeWB3VBXZ2tYs7mpXQTJNzYNzG2vt8aKJVa+4B1rVnWVUbPeCpgeKf+yXefo8JWpWkU0VlanDY1MItNam1KsuT3XMvKlW6Xn2uoVxT4ZhowiKIF4fHt7V73dIeQ9w6nIRJfiui7ML5BuJ4lCf6+O5sZ627Bura2vWsPQbcuR5Zve0u4jn+nrHTlujD38yCPeZML7EVGi7PXfXjA3jY/P4SWeifsQn8GhLH2x5957Rec99/QG5ADcRn7L8EE/3EbidYcdTj6QTBSdx+02ys457yz77e9/a08/86ydcfZ3bEjRaFtdVSsjJNq4hYV68iTaMqS7NaxablUL59vaRQutqaJE1VCDjSjItoI8JuEw6ZqV2lt8plt7eqcxVanRiZklI2aQLVu+zEc1J6GEjSdwnyMRdaQ2uql3B+r7YQQyo5kry9dYA7sMjRxlR6pQ5vkooGhTRRYPYurja6+/btNOme7SyAuQF6LIb+Li4yoTccLf6HsiJd8P7sM15y4I727PdNnh5FP0o6pXCUnEvf9VPzJzsm3KsVPs/pn322+eftquuvJHNqggx6rXVvn0P6k63iOQKWLlpTSb1VXaumULrHz+HFv38YfWsbrY8hvqbEgaqz7JOpFh0pGuc1azdJUmVWX1lpFLJZZq78/7QOQkMMok/Xlm6QOeMX2MIF/Zdw41AcOJNEDHYugUa+Hdeuut9vtn/2DPv/ic/c8br9oUVasV1ZVOtCwZFN+cPs0GFQ6OSJWUpYIu46ThebgO4F78GVkRvEjeS5wDuv7+rNjxkk8RJcJe/aq6Y88ODAdf2qENOdBuhx32D3brLTfbH373R7v0kstsxMiRVqvquEHkGpybKWnXbHntTTZIVm96ba1tWLbUahd9bOuXLLKGjz+2lPLVll2z1tLXVlva+jWW29pghVlmhYNzPQjzF35CEfDrkBGeQbFM6isEIlDlhWv0MZo0+MlI4auuusKmTTvJV1MA+x+4v6cbhhgkDX27jqD083IgScLfzape3afaJP39rD+Pvx5hCCXfS5wDwu/eknDHk0/SjrgkI5Q4nIjoFPRpKpgkzBcOnmS33vYze1ES4IrLL7dxY0ZZ1ZpKWW3l0VIQqZlWkC5rMSPb8qUbpm2osdbqCqtbucTWLphnNbJuNyxbbNUiZk3xcsuRmcJXacxldLCDaieBSCb1MYi/TswziYoa5GcVBhUMfR5rEkOgTEZY+eoqWGEjWHOQalMFlMEDPu8l4RfwwhyqWfRXPEqcA9k4/MN8n9d0xM++8lcsLeIIpOtKyk+LHU4+TwhFZmMp4hxdk1h+23/KYSKuu48fZ/9243X2++eet2tuuMEmTT7CN4tevbrUmuqa3E9WZO/IFG1zZGikoh+xEYqq84YN1li2whrLpeetr7MR+Tm2dO5HVlVaGXkeJIfO26PaJYMiEnSfWU4CfcfTAGeJb7KQJJeikCz+VG+vo1etXSoHjcK0tUGkGkl6eiECCHMy3CJPSNeuZ+DXxJeDcIRzOEJadMFnJV1Ii/D+jpd8W0FITA76PVWgk2c6z6+69mp78ZWX7PGnnrRzL7jA8ocNslVlpb4ZdWtdg3U0MR0xGh/ozQt6ryBbVVUGW2yZ5Q8qsPKqcvtw/jx9JPFNJQ7PdBHd6GvoM1EzEYMoGNETGRyAqpWtWoOBUFZZ4bPGqI7rEsOkgsHkRE6E2TO4v8L/GTHgyRcIQSFluDgBZs8MzhRMpCOt7qf843S77+cz7cVZL9nPf/GQz0+YNGGijxKmrdBHgQhtqsI6WtqttYn+T5FRVm9LR7vN/eADfw7I/B4K/XZHkAJwHTBItE2ECz0TYUI2oC2SKpgRKoy/a2qOBofOnz8/CjMEdnkp4C+J1kvgb2+OLWGHNzJvDaEROqQpwdm0QEeRdGVaf8nMlLGCLsRSEYuWfOJ9lI31Dd56T1sWw6nuu+8+b8guLS2z7/zzWfb444/6+1GcqR6ixO8NQnh6goddbhiSXrpqlcjXaWNHjbYPP/zQjvnKV23ihAPtz3/+s6VlZHrjLxs9M7qE2WUsccFoFDZc/s1vn0mG1avdxHdJky1ha+FLcuGzYguleMBLPrhH/L1KEUJabeSESALxVP3oKpkBdP2wUOL+E/azk08+2c4991z7/sUX2eVX/MjOPPss++GPZLCMGydDBRU/xYcIsYlxAN/pLfE+DbB203Vg6TNAgO1ZuUc1jCT0SdsKD+oD+9KxvBtAEjL/lo5/iORkigLvz3uN4N9nPbaAga/zeRyQDhBQ5ZhirVCjfEe/dXZ3UUQ5e0Or/0icQiIk8oMTXUZHHXGEZx6jfcukJ85+9z1/GPerrxG+AdFoMqHQMFiUa4b7Ez5IR5Ua+mex7CHfsCFDXZJDvHkffOj+4MaJJ3dbk3rbBPzqzbEFDHzJpwiQ4EEKhetwP7qn/1AREomNdOgJnoE6k5nsHwFR0a9qN9TanLnvyzPcRG7DN/sUsWotHi8MDtrwGDWM3scaNm1tbLfV7COWw9oquGdIFvNsiX5oZCYtQvr0Bl64e3FsCQNf8jkblJCJv66Q0urPQ6aFDASbUQevxKw2VWOAyTI05qLQ43beh/P9vutMnVF13B8IYadAAAoEkhACQiyknxsTcheqYfpbGU/HoFEIitEBPO4J0oV0GKgY+JKPP6Wln/mLJSjXoYQ5YSBpLL27ow7WYZCMdJ4z1NyHEOn3e7PfdsPEq3Sv291Zr+Bh3MKRVMh1hnDEAYIxZZIlRGhmYRWvQM5suXHJmJfrbX0QjZlpGCvyMGpE1h/psC2Fp7swxY/eojs/wzHgydcXIOIAycLombr6Ot9Tgp4Or76EIEX7GnyDb4Gg03GPKpfwcQ+dLiBIPgoQeituaYJZW1OTXCHK/ZCXymL/PVCxU5CvOxKFTGdBcJbzR+qQ0e+/L70v8by/EL6FZAvkg1AcEG2DdL4gsXNlhITpkC75BN6j6t2gQgSCf4HUAxU7BflCJsQzOeCwwyf7OnZUXbhiriror4zjO+FbYUArhQAjyBeJFCAdy5Qxvo45s0xZjJYwe9OtYnRWBntiHQf0l77aG+w01S6ZGidhuCbTmGBDBrNP8DvvvOfDyvsLoUAApC/hgkxIuiDZXnvtNfvjf//R10pmzi3zNJjjwTTGouEjnKxU0UxvdP8SFnTc74GInYZ8gWxxkDkcLPOA/sTqpczU+nDuPL/f3TvbG3yDb0EgCgCko6pF8gXyPfjgg3bK9Om+0cuTTz3pa7Jg6Q4qLPTwEvYLLrggGR8a3XXRL+HvDXYa8sURzxSu2bKzoGBwZG0KdGf1V8YFwqAK0HMRqk5ICKkA1fGQwiHelTZ+7DivatfIuGBqI43Nt9xyi5166qkeZlcp5B/A34GMnYJ8PWVCINiYsWN9qyv0PrbMevXVV5Wxmy8c2VeI66BIPyQfkjDMnQhSkAZmGpwJ6+nfPt23oGJ9le+ef748iRWWRLz6qwB9VuwU5NtiJiR6M9jwDmmDDsiyX+/+7W2/z5xaZqXjR/AHZd7/Yv4mn8Xdca2/cB3Q1U2ycOgWRIR8EI2qlW0iaIfk99lnn23//fzzvjvkE6p+L7v8hzZu/G7+Xhw0sdDUEnS/gYqdstrdFFEGsYExxKMdjeUrXnnlFb8PQtUInDQxScqoGyeYOOojcHikI9yDCIFggXABcQIi6Zg6SZMJhQCyMfCBahhpR7iYL3vEkUfamHFjN/Pr84hd5KO60r/hw4faEUcc4VUvCE0u6RlplspKoQIEcJDx+ueEVApGkiY6/H740+9ArHB2JAgaugV9tdDS1b4mSmhQxv3BBx/s/bfNLdFQeebUhu+GA4TzZhjgBN1FPoHMo7vqhBO+7pnP9u3vvTfHfvKTn9j8jxZYWyvrPicWwInlc5A+nMM1iN/Hb6pSP4s5LhF1zSR5rFaWoC1dVeISLzSXMGhgiPS9ESOLkgt6078bCkZA8L87xMMzUDHgB5NuK+J9utR+nyXxWdlz+jdPcQnD+5VVlb7A4r777u3LQ7Bjz0EHfcHXqCsqGhFJPaVPIEFP3/RnkE5olz6HTgeZOGNM0JUGID6rQbFnBkud/c9rr/o4QyQui3CfccYZ9qsnnlDkNv0uiH87GRY9QgIPVOz05EtmVAKXX/Yjm3HXDNtj9z18RAnNGY1N0dKyoCC/wFd5wuLc74D9fYNohrUzn4SD5hEkJM02nDFkWQAIowHp1tLS5BKMA7JBdAjne5/pYJ1jJCJDvMDIopHe1LKyeKVbuE8+9VSSfBxBqnYlH4Dwu8jXD+iN5Itn3q8ee8I3JYRgVIPc5zlSCgkEiXz9u4QEAxAAIwH3tMEhyWgaQapxH6LxLjof4/LQ8SAe/nDNtgdeIetbuGeYF37wXUiMJGTo/O9+9zs76AuT/Js8izfRxBHyjDQhLQYqdpGvC9avq/Ut33/96187kSAMEiySYqmWkZrh+7eR7xCK9OHAHZLSh2fp2/zGUIBUkDK4Y1tT/ME/rOv0jFTfsBqiAvyElPjBUh9r1qyzSQdNsnvvvdemfDlacBt/QqHoLp7cB7vI18/4LKSLZyLXNG189NFH9u67s+3dv73ju3ZTZWJxIu0gFtIMt5CG31xDKCQX5MI/iKREVLWZ6YTCXWZmtBUBRGVLqw45QdLxLu458APJR+/FiSdNtfPPPz/Zb7st8XN3iWzbRb5+xGchX0C3mdvB/hbV3gxC9YdRgo7GwXxZSAkhIQ1niMU1ZAr3uQ5VcFZWdOY73Ee6MkSKGXX0aHAN0Q455BDfitQXrBQgPm4Dug1rAv5sF/n6H5+VfPF4huugU/E77m94jjSrrdngehvkCM0hVL3hXcgHIn0wmpEW9EKGTLHdFGQM6OlbgcTbEj/3IxGdXeTrR3TNnG0Nf3jPMy52HcC9+LOeEN7Zmvut+dXT8215D3weyNe9ubQTIWQkmRYyNn4dnqOvcR30OxDcxY+4f8Gv8DscIDyLPw8I3+r6jHPwHzddEffj84CdvtoNGRriGd7v+huQ4fGquDvE3cf95uDd+Hvulp+J58nJ7/Gz/oIfyTPv+Lt6uvFzm2BXtdsPiGc26Brers83A855J5GZSYT3EifPdN0L/if9DQIofGbTzws9+J34DTmCX139jv9OXse82czfGAYy6QL+7sm3NSTXggG82yVDQybGCREnQ3fYhCzJ9+JedyPNtuEciB1f4rYn7CLfToauhHDSwGzS0MkTOwNdU61+3rFJARG6u+7u3i7y9TGS1SQJT1omMsCh358HCbUlxIkVuBK/7or4s53e2u0tvARv4dB/CZdd0EPm/D0imRYJhOtd5OslKMXh6IpN7nV33RMx/w5BWkC6jWli9n/3Qh6xxV9+qAAAAABJRU5ErkJggg==;strokeWidth=1;" vertex="1" parent="1">
          <mxGeometry x="267.07" y="190" width="45.87" height="60" as="geometry" />
        </mxCell>
        <mxCell id="jXtKK_LHuf7qZaL2mGFT-40" value="" style="outlineConnect=0;dashed=0;verticalLabelPosition=bottom;verticalAlign=top;align=center;html=1;shape=mxgraph.aws3.codebuild;fillColor=#759C3E;gradientColor=none;strokeWidth=1;" vertex="1" parent="1">
          <mxGeometry x="465" y="214.5" width="30" height="40" as="geometry" />
        </mxCell>
        <mxCell id="jXtKK_LHuf7qZaL2mGFT-41" value="" style="verticalLabelPosition=bottom;html=1;verticalAlign=top;align=center;strokeColor=none;fillColor=#00BEF2;shape=mxgraph.azure.bitbucket_code_source;strokeWidth=1;" vertex="1" parent="1">
          <mxGeometry x="760" y="164.5" width="80" height="95.5" as="geometry" />
        </mxCell>
        <mxCell id="jXtKK_LHuf7qZaL2mGFT-45" value="" style="rounded=0;whiteSpace=wrap;html=1;strokeWidth=1;" vertex="1" parent="1">
          <mxGeometry x="415" y="400" width="130" height="80" as="geometry" />
        </mxCell>
        <mxCell id="jXtKK_LHuf7qZaL2mGFT-42" value="" style="shape=image;verticalLabelPosition=bottom;labelBackgroundColor=default;verticalAlign=top;aspect=fixed;imageAspect=0;image=data:image/png,iVBORw0KGgoAAAANSUhEUgAAAbUAAADsCAYAAADzXDhWAAAAAXNSR0IArs4c6QAAAARnQU1BAACxjwv8YQUAAAAJcEhZcwAADsMAAA7DAcdvqGQAAFUpSURBVHhe7b0HlFznmZ75Vu7qnBuNbqABNDIIkKBIMIpUHEmjkYYjeTTB9sw6jM/4+Hgdjo/XXu+u7TNe+xzvWaeztsf2sWd2PMGa1Yw0pERRpEiKpCiSIAgQOTU6oHPOsdK+73+roCbYaHR1QFcXvoe8qOoKt+69//9/7/d99w++FIFhGIZh5AH+9KNhGIZhbHlM1AzDMIy8wUTNMAzDyBtM1AzDMIy8wUTNMAzDyBtM1AzDMIy8wUTNMAzDyBtM1AzDMIy8wUTNMAzDyBtM1AzDMIy8wUTNMAzDyBtM1AzDMIy8wUTNMAzDyBtM1AzDMIy8wUTNMAzDyBtM1AzDMIy8wUTNMAzDyBtM1AzDMIy8wUTNMAzDyBtM1AzDMIy8wUTNMAzDyBtM1AzDMIy8wUTNMAzDyBtM1AzDMIy8wUTNMAzDyBtM1AzDMIy8wUTNMAzDyBtM1AzDMIy8wUTNMAzDyBtM1AzDMIy8wUTNMAzDyBtM1AzDMIy8wUTNMAzDyBtM1AzDMIy8wUTNMAzDyBtM1AzDMIy8wUTNMAzDyBtM1AzDMIy8wZci6eeGYRirxpmSVAJIJvVH+tVV4OMWCMHn2xifO5XkMcbngUTMO9bVwmNEOOodp08HbeQCJmqGYawLqRQFYn4aiM1RMBbSr64CfxAoqoRPorEBpOZnkBrvRWp6xD1fLb7iSvhrm+ELRnjMgfSrxmZjombcN6iqzy4kMDW7gMmZecTjSS+6IMGgH0XRMEoLI4iEAggGLDOfLalkHMmBFqT6uY10MpKhoV9NBBMpQfDw5ykaVekX1pfkxACS7e8hcfN9pEY7eIxhbuk374aEW9EoBTfQ8BCCj/4yfAVlnhAbOYGJmnFfMD0Xw9DELIbGZtA3PIW+0WlMzscQSyRpd30ojQRRW16I7VUlqC6LorI0ihIKnJ/GTu8bdycVX0Ci5S0krr1B0ThFT4Fi4c/COZBgEF9JLcJf/IfwV+92f683yeEOxM+/gMTFP0Oq9zwFqpCvrrCMXXqVUWioAIEDn0f4Z/8xfEU1XirSyAlM1Iz7gsudI3jlTDta2wfQ0T+O7tFZdMwsYJrRWoCi1VQYxo7yKHbVFmPvjmqcONyAhw/UI8Jowy9lM+5KKjaPxIUXKBjfQfL6qzT0UVqYFUYwErTkPJ/QySjfgciv/Ff46494760zPxW1F5Dqk6gV8dUVh2rcQVyhPQL7P2OiloNYjsXIa+YX4vjWm1fwH797Br/32iV8/8NOnLwxhOt9Exhh1DY9OYdJRnDtgxM43T6El8914/ffvMbPXsZLJ1sxNj2X3pNxd2jw5SOr84U6Y+j5SjfhBFDbvTRLEjNuisZXsumzLtWo50YuYqJm5C2jFKwPWwfw3Xdv4EUK1AfX+3Gtdxw947MYm11APEbDm0giFU9gcjaGvok5tAxM4nTbIF4/dxMvvncDH1zrQ8/wVHqPxopwtl+mhZvrGbiSLcCPK13JiEfPc1U0nLjxeE3UchaVjmHkJecoaP/ym+/i5ZNtaOsZ915UKjGzLea211v5+T9hxPavvvU+Xvmgzb1mGEbuY6Jm5B0JRl+tPaM4TVF7t3UIIwtxJJ1zTcG6fRNLvM4YDhP83pkrfTh7rR9dA+NYiMW9zxuGkbOYqBl5RzyZxKX2QZy7MYCekWnM6x5Ptl30GbFJ2PpHZ3Dl5jDO3Oh3PSgNw8htTNSMvEOR2gWK0PWbQ4Dum2U6IqyGkB/tQ5P40bkuTMyuYUCxYRj3BBM1I6+YW4hjcGwGoxOzmF2rCCk7yYhtYnoO3T0jiC0odjMMI5cxUTPyCnXhH5mcxfjMAmbWQ4R8Pixwn5OTcy4CNAwjtzFRM/KKWCKBqZl5jM7GMK3Uo2EY9xUmakZeEQwE3ByOZQVBFIZsklnDuN8wUTPyCk1GXFESRU1JAUopbGsmlUIoHERRcQH8NsmxYeQ81kqNvCIaCWFbRTG2VxahoiiSfnUNJFMoLo5iW2O1EzfDMHIbEzUj7wgEfNjXVIOmHVWAUpAaUL0aNBIgCRzcXoHnHtu9PiJpGMaGYqJm5B1+vx+7GytxZHctDmwvR6GWP4ll2XOREVqIYrhnWyke3F2No03VKIxYpGYYuY6JmpF3aIHPfY1V+MzRRvzSiV2o02KVs1nOBpJIoohi+GV+/5ljDagpL0IoaB1PDCPXMVEz8pbG2lJ85ekD+JUvHsGTR7cDGremLX6HqE3j0NLvH2yswJ//7EH8/CcPuIjPMIytgYmakbeUFhXgUFMNvvhEM8VpP77wcBMebq5BXUV6UUgJ2GwcmPMmKq4si+LYrmp89sEdeO6JvfjqU/vwYHOdi9IMw9gamKgZeUvA73P3wR491Ihf+ewR/P1fOoGvU9wONlXpxhswQzGbXOAWo8b50bS9HF99shl/9xcexm98+UF88sEmVJZEXTrTMIytgS9F0s8NI+9Q9U6yhmvZmKnZGEan5tA7Oo2+8VkvUtOb6hxJ8assKUBjRSEqigtQUhhGQTgIv88H32p7T95npGJzSJx/AfHz30by+mv0KhjhulWisyCVgK+sHpFf/k/w1x9Ov7i+JIc7eIwvIHHxBaT6LnjHmW0Z8+OB/Z9C+Gf/MXxFNfwjlH5j65OaHUdyqAPJ1pNIjrYB8+NAUIu3LrpGCTqEgQj8tfvgK6nlRU0g2fEufNV74d/5iCs7Xyia/jD3OT+NZO8FxN/7r/BXH+RnHod/13H4ghHud32dRnNBjbxGgqSITePXasoLsb+xEk8facBzjzfjuWf247lPHcBzz3Lj359+oBGHdlZjW2UxigrC/J7fBM24D2Gd9wcoWgGKTpiPQaQWppEaakey57InaHJW9B5FKTU7gWT/FcQvfxeJljf5/AYdxhnnoGRITQ3xu+eRuPIyEjc/QGqsx9vPBsRUJmrGfYfEKhIMfGyzNKNhUNKipYy0DiD4yNcR+tzfRvgL/5DP/wL8Ox6Dv+ogQk/8BsI/8w8Q/vzf5+u/xGhtL7UpTuEbQWqil4LVh9TcJDXNu1ctUmNdSA62eGLo29hexNaKDcMwjI+ilKDSh6FCRmNR+MJFLipzadZwARDh32G+51fa1c+Ph+ArbODzFKOybqRGbwJzE25XIjl8A6mRdvi3PQhfUS1SWrh3gzBRMwzDMD6Cj6Lmo4BpU/rRFwhTuBhlKSUf9F53m9KUytBL1ApqKXZl/COJ5LiitSkXrSk9mUr/7as7CBRWeWlHCecGpPdN1DYCFlgqlaQ3kvAK9fZNr/N9V7BbAXc+3HTcySXOZ9E5uX5HW+W88hxXZkvVw8VlZeQWrszuZj+0qS3mUBn6KHihcvhKGl3HmdT0CFLzU0BsFsnRLmCGghYohK98J8Wv1BMzJ4jrL0EmahuBbpAqpzzSieTANST7Lt3aUgPXGZqzkBWaJ9e4MvO9QgKsG8VjPTz+lo+cT7LvCl+74d34nRnnOWnmDjOWOUGC9UvGhfVQ9e5WHRxWjzYaHBpHI9dg21EbctFNr2tbamOL25zaYGqENmRygOU4nf7eJqMIrrAEvkqKVkk9UlO0BYrUWP8SN95zQuyr2eMJmqK/DcS69K8ReUwyDqmZMVeAMiKILzDUZqWUQaEYfMR4KGQPF9ObqfDy1KECIByFL1rG16q95wz3N8KDWQnufNhQUjOjrmuvGhcSMZ7HjHd+87oBvFiMfV5aIlIEX6QEiJbyb1baUITnxL8LK1mR+ajz0g1i6024/qgJy7NX2WTq4cKsS/c450oOlMov5dVDX5gec0kdy4T1kGXjK2ZdLGbdi/DvNRicVGweiQsvIH5OXfpfZV1fTZf+JL357Yj88n+Ef1sed+nPlJkrJ5bPLMtNjsbCHFLx+XS5TTrnQ4LAD3vfI0oFuntdtB0+lRk3pQh1r8s9L6AtKeDruvelCGqNbc61fYpr4uobLuoKf+Y34Svbzt/kcZBE27vcTiLZfQn+pkfgZ/kl2t9HYM9jvDZViH/wJxQ8HlNVI4+5CKnJESduwYe/Cp/s3zqztUUtfejOEC/qPpoV2sWiUHglXbjdJVP0QmOv8FqVMtlLb6rrPBLd51gxWSlVEeIUNArcR47NdZWlwQ+x8rkbrlH4S2vdeA9/43E26G1pb0ZdaZXH3lhx+8i56DryuFVxnUfYzyizv801POf1xyh2CZ7bUh6+curBKM/JM2SuB1Xdbvi3PwBf9R74y7axQvN9NX4ZuhVe61WRqRc6r6WOdSW4eqEtXS/uUg63rqOu4VoiVV071ZG74DVbbgmenzx7GsLkUCvrIb357gtIjfZR4OhYpcvtI1kBOR1BGT06Gqxv/sbDCOx6lEaH5VVMA00+cj56vpKiYl1PXPw+4hf+bPWipqZY3oDw1/8NfHUH0i+uEF2STJkpcriDY7hZouZdU26uvFgeLBvda3Ll1neZx8WIemrYCRtish/pdnc7uqayDz7d11K3em60Jf7Savirm1iOe+Gv4mNZrSd+tDdO9FbZ5lYkaq3vIXnzPAJHPs9j2Ik464G/luUXjCB+6o8RfOBLFLknaE9oU8YHfipqbpxa9se0HFtf1CgYCaXAhtt5dVlZskWCQ+/GX70PvtI65+HcjdQ8C5mhf+L6j2j4afzHOpFURDNL78qldWgMtF+3pStyBhWgGlvaWLqZLVgpnfcsMZMY0Lj46mho9j/Likox2EA0KDI10eeNHRm4yuvY6nn7zmvke/NsYLfOQ486tyWqzO3npTEuNJrO+9emCI6V3L/9GAINDwJFjOA2wEtzpI81OdaNZM9FzzAsdczLofOk8fBX7nKDgX10PJZD3rUbi0NRcam9rJGVDLlBq/7q3enX7ozz3ulsJG6e5jmec8ZZv59SCljevTOa/Iwrr3T5ZXBlJcPPTZ0AwjSOrHOB5mcQevqvu4+4m/w6n8HrjBq4T31+OVTmJNnxPhKdp9guLnP/Mrze69ngY90IPv6XXXv0nIQVonNlW/JXsMwqdG+nIv3GR9k0UVMERjuRaHvHjdlKjdBhnB501xoxChwj3VvO5VLllsGVn45X7U3P9chNdiST+ZE9iTIKL2uEv+E4/Lsed3XYjTvLkmxELfjgz7rhAInL/OzMCM93BEmeZ+jEn2cU9xgSN35M2znKyK0KweNfdse5mjqyHFta1FyExoqSuPgSBeZNGuDR7BqBSM2zsOsROPyciyoUNS2FbtC6qGz0Jr0NelXdp2jArlHQemlIWHhOyNZ4KVVP2Th8xVX0oBsR2P0EKwgjnapmr4Gqoq6g8dwNL71Bo8VjTw4ywuw9h6Tu9VEEUpODaWO4jtXCLwvA86I4+KtocBS5NX6CkdxBXnuKtt5bQXSyUlyVjs/RwJ5C/MyfsojHPGORDSl+PhSmof8cApohYfuR9BtL42ZhYL2In/5DOgn9LMssy0nXoIDG/KFfQGDv0+kXb0PnRWOXmh51xiU1cAWJDhqTfjp1Y12sn4qiWQ+zQSnJ5Cz8e55lG/gSQo//JfdycpICOdRG4/8tGt9Wng896uVwkazPOXuuDtEx8oytKnWW0Hv31x906bWszie14JynwN4v0Ig/6uraUtxLUXPOhVKJU4Mssw6kus960fRIu3edFI3pHJUmXE+cLaHDUlTtReCybXQo/ZWM4Gjv3O2CFd7myErUHqYd3fkgkq2nkGjh5+nwK2oMHv8a230zElde5bUYd8cVPP5znuNrovZTnLdKrzT29u/QmPwxMNnBCpKd8UolpuCr2UsP9R+wMXySBbAz/Q5JXxrvPhNFgMYqce11Fu6LLLDvsdHVsGKsIsVyJ5zR4m8laZzYQBGtpnfzJIKHfxY+NnK/KpLuT7ESZJ1G4L71n2tAFOGkZgdoPcnz+CEr49texfKxkjrvWtHWKozRnch4ne68vOjBf+TnETj0JQo3PchomSfY61S5XdqR5ZW4+AMs/PBf8Xy7aTxm+M7KzylFQ49IARvpb7jrr7qxHDJQida3sPDK/8Zo9yYvJxtrNgRowEv30GD8Lf7m19IvLkLl55w4inX3JXq8P0Hy2ss0ji081wmWG39P9TCba+jqt1cuwWf+DgIHv4BA4wPureRYj5s9Ivba/4Fk1wesEqx3d0WWXkaKBn4tTorqSpzRix6zIJWcga+ExvLE36BAfxmBOzgiGy5qi+0GxT1J5yDZQzHroPG/9F33nmtjfqXe1NbW16g7XJSXdgiUeg4G2daepdjTUWab8zOSlS1x6UuxzPl7otbKwOEtilo3wp/6Deeg3hK1dtqR9veR7LzAukunbPcJJHqvIP7+7zMI6KCj9oueoxYppO183RO14hq+TlEL3cVZWgWBf0LSz7ceKrTEAi/meST7rrkG7zweGQhVmJVsLEx/Ua03Wl5eTKHGWaRRxUjMIzXYxgL9MRLv/wEL721XUCwhfn8DOj+ogssgyDDIkE3Tw2M0lZpgFJpI0WGmh6VOGPKyskEOgO79UcwSF192TkCyg9HtRC9/R78pQeNvugbG81nPcxLanzO6MngRVuxORgAt/P0xvsTrWFjOx3VMR7LslJJOtJ/y6oVSNVnVCzoOoUIaeXr8NftoBHZ4+70TavgSgo4zNAKMGGTcl9rvUpuuiY6toIoGgfVQUcrtyFlTmvjaT5Bw96xe9jx9lestEcmy3JK8LgWlLmoOHKFw1x+6VQZuRghGa8k2GaEhvl7x8eP+2KY6lBbWNdUfnQf34/a31O/cYWMZ+yJljEge9spMcxIugYuqB66xXdNmTA3wa/ydbI+XH1ckGNj3KfqCcmx1/TPIeUwwgm6h3XjDzXeYpN3QAGQk9MUNbmuO9H6dPZGtYBQ9M8g2wTanyJ7Hp7J2nbmcvVnmGJydZT3T9S2sgL9u30cjrDjrpvoJMPrybzvgHAs3lo3t2l+1h475J9w9dSegtGl+tXWlQtV/YC3Ozx1IH9UWxxWeCoabClAVZoWbTwbBhf4fLdRUIsbGPIwEBTNx7Uf0MF5B4ub7NMQUtIVZ/hQjC9eAl6kM2eLOI3Mu3Lc8PjbA1GALo6o3vWNoYeNQl97ZsfSXlseNd5mfYYOigW99h4L2XZ4Po7Pusy7d6OZoy1yPjNe4nuck3Dlpvyof77dSs5M8jxtItrzhUhKJNl5bXm93X2GN6OhdJKtNaTHXaFdTL7Tpuyu9Hvotde5JG62Vbjo2VwfVHG/7LdUBGciRm4zO3mKE8U0K5ztIjfe4dLjrHLFqIfHREFXRc38KzqFTz7kl0XktcdxLbVldrzvgyi278tLmet3q9zcRTeqsgccJOjfqCZq49D22tXO0G52M2hRR67xUXrpOqymzFaL9uv1r0zXho+758zgSnadpB76H+GXaEzlh6mWZieqWgscrp9NftxeBHcdc6tLtN43ugWqqLP8uipfugyqVrtd2HEdgz5OeQ6h7ZxJRdfnXZyv52gaV1U+PzPCQEZEQzIy6njqJiz9E4vJLjAbfpQCwUsroOK9wg3GVkoWunkssptTodYoSBeD8ixS4dyhSNz3h1fHeATcVDUVC4qX0QOI8Be3snyDZc4beFQ2iX5ELDfAm4AuWwpcMOM/RidqFHzDavuquu0vbGA430FYprJunEXcOyfNITtBAuqgzLWbZkq7j6l6tjgSu5yPF7aPRhpENznlkNOPunXVfQPzs97y21vaWc0pcO1OZbRaqJ/p9OU9zU+64ZA/i52nbZEvUw/kOKJpyvZmrdjphc7PvLxY1vVfRgIDe01AlfV5RGgXMRXUariShUyceip4+6yK1u/QoXi0marfj8vlzSHXS07r0fUZGr7qbuq4LrvMsNsizWhYWk+6ZLCi6+ZAi+zKF7V166/1YtgOEOraM93oe2aUf0EP7wBt7Jh1cjTFcdzzhTs1qBu8PET/9HaR6L7v7YYaHOoXEL7+B+BVG1z3ngWAl6wK93rXg0uozXtdvzcVX3kCBY/0yVo/aoRzhjlNsn3Q8r3+PERDbmrvHuFl2YynklCtajCI10UU7Qofy3AvQkKR8wUTtNtwIeN34vMbCbn+HBa8U3fRPhWCj0gXLkUnHaO0vNpTkICNIpRKv/silE9Qtfyl030BphuT1Nxh1XvIGhicUBUlMNulcFpNJkWi8zmQvo5H3vB5TdCiUxrnfI7YkHRJFaFquI9l70aWPfL4CXrJQ+hOrQBGarjmjNPU+Va9OpYrcelnGqkjJCR7pQpztUffQkp2nGbENsF7HvXabC20tQ6bN6bg0DGWil22Ox93yFuvY1WUjtq0Cz85wqLA1T9lgC+Jnv+MKOjXUkn5PlTIHLpVrIGGK7JS7JxY/+zySXedYMQdoq5K3UpEuZTU5gKTuwZz+JivrWRrEUX6fHqO7v5Rjxa7jUYecyU4ahdecQ5GaHnJidz/iUlnxBddVP3H9dXr/bwNTg14qeq3GUaIWjMBXspOCdthLJ4WLWASsW8YqUGcuRmg9FxD/8E/dGDR3r/pWhJbDuFsPAaQGLyLZ8jrb3Ru0Jf2se9n1IM81TNSEjGoojETPOUY2z7Nwv43kVL9nRHIRNZbYOFLDlxC/rLTi6XQ0mb7Zy4gs9sq/QPwDjZnqosvv9VzKbeRBBpEcu87zeZvG4T1nLO5L6C2nhjuQunmGxvKcE3wZz/XCFy33eqRtPwrf3Xp1GneGTmQqkaDTeM0NsUj1vEfncdhrn1sGtbuwGyCduP4yEq08D4153MKYqAnX03HQpQ0SnR8iNcsQ3C3zf5fKKRFx40G4aSyIjE9mGiltt/7me+5z62CYXPqAm3YVm3FRWLLzA29Iw4KmuGK003ESia7TFLQe7zxcxeW2EjKdCNSF/Nbx8/mt87z9dV2DdTwv7W6sB4kL36Jhv5EX6ZCV4g3ToKFUl3NNu9Z/GalxGpiMs7IWXLmy/AJh+IprPUErqXXduo1VoIwHo2lvGMfbSHZR0GJs524g9QraWqY8brcbmXbm3lvKhmhbh/qwGJ3LwhTPxZtYQj1r3Qw56/079wgTNQqXm1RUo/zbT7oxab5gBV++w43zjNFX5ZKyKMrT/GWafobRntvUfVXjODJ/6z0NznRpv8z3+bgWXLqI+xtr80StRR5WN59/iMQljWEacD/l9Xi6SzHfOiedDxukKrkMbEgbj1vnEtZcldxkBPVakJ9xqUw1YH03/f01npd6Raq7f+LCH7vOI3I27gt0HVVH1INO49E6WKb9VzzPP3MP9E5krnumXt62uXR0igZYg981ZVn5TgQaH3S90oxVIrsxN4nkTba3ttdYVh+yTWi8GstwKRaXj7MbamdsX2pnQbUz2Y1F7cxtsiHcn2tvtDG3erxqF5k2x20t6DjkvOv2xdy4myrPzXaiaf+26D3tPBl8fY6RCg1AbFIvspDuYsQXowJVpDbe4QYnOyFYDleRFK3MsLIV0tvdBv+2I/DVHuXjMQTqHoC/5pC31R6Gr0pTQWl26ih88rg0U0KC0Yd+N5vjXBLVbm7y6Ga1IsAsPcYPkew+A8xrBg3u34nO3dB15DHpcNiYfKW74K87DH/9Mfirj/A8jiBQc5DndAC+6gPwV+yDr6yJn+X5y4OcG/Gui87HbSv5zeVQIXAfoVI25ugdZ4ZYFl6T5GCrS2MixmuuBprN9dbMJzQ4/u0P8Rrs4TmzDJfDDb6mU9H+LstCcyVm81s8XxorX7QKGi+mCDxx4Xk6Jn18U/u52zXl93X9NQuKBlSrTBZviTHWOx5TYprn86AbMBzY94wzmneaxeUjg6/pIPmCNLK5jtqlJvZVmW304Gu1Gd3bHmrh9aHjkWL5qU3ficV2g/XKV0DHuaSJdYttqpY2g7bDX3voVju71daquFUfoiOyB75CzVxCUVNbnWd5KlMinIO7Rlw94DVYoA0Nl/Da1bkORG7C4S1GfkyT9ZP/jviZbwPT3XxRxmuZyrUUziCw8S83eFP7lacbLnXLdGh5DF8pt7IGN7MAwmVeBbh97IU8by0JwohDPY00j54miXUzedwaJnA3o3UHXNHx2FWpJZo8FpdGUHTjejkuU7SZ76oya1BkOc+jdJsbt+Qr3cGtxo0/cR1TdE6Z40vqPgIbk2YRn+x36bHUWIc3F6EGBGvKJjeYOMsyWIy71jEe0w4EDnwOoZ/5X9iYNah5hfvUucVnEb/0ChZe/besFxQHzXeZTeOX4QhHEPzEryNw8HNuOq/lcNNkUUBjP/rXLGM6SNmcv+qfzq+oHoHmJ9zvxj/8Jp2FaR7zEp6/M5DaJLzy4gu9JX6KyllmJZ6z5RweD0VpSFDsFihqu59FYM8zCDQ9kn53aT4yTVbPeVaD5Sd0/ij87WxE/XYydTNLUvFJXoMyBB/9DQQ0tdlGTpMlMl9Zppll6rJzAKMUstJ61059xZo8XX/XARrHpQyIjmHxceg6uGvBB403ldM91edsh+75p8a7vVsMmtnftTm107Vcd13zGPyNj7DdfYn1/tPOLmzEVFYbiYnaCkhxnz41soCfHvtu+OoZle16HH4nALVuWhjXo2wpo6vUjwzqvJaomYQb0N32tjcrxISMLSu8O97bKnS2uAagc9d+7nL+rsi5UazctFsStF1PMTqjd6gVAjShcno6Lk8IPnpcblA3o06lCd2acRMDjFDe4Tm9R4NB7zchg6vvrP2c/M1PIfyV36Kx4jGtdCyVzm8riZrQ50PFbrCqUrvJ9p/wGFi/Fw/0d+Umw8NrKkcjqPKjkyUPvpKRiXoyVtAhofH8mHHTmMWZYVfGbvaQO8xgnyGpya57ryD2xm95ohZiHb8brg6q7HWc6XJfbfk7A51+vkJS8TFeixKK2m8icOiLCNQvvR7buonanXDn755456By0mz51fvhbzjhZt9QG9MwCreWnW5X3KVuOlunYS5aTkizDKnHZfcZJDvfR7LvPOs3274cWdmAVTvJ2gfrfdlOOj1Pse5/nREko8TC8vQHtgYmaisgtTBEw1+P4EHN5H+MBX3QCYGb0FOeslICbIRLVyNGNrrEEoJkwova5Gl1nUOy7R1oyiqXGpMIrDQSWYrFxXi3Cq00KAXaRULy2vfRI6ve5S19I+Fw5xPgbrifJfblfknGy50Ty8Clb/toBC8icfVVntv7/JuRqOvWfJdjWQ5eFx8NU/AxCotWLGB0vCJ0LbaaqAl9Rws98pp5UxfxPBaLk7vWjN6ijKKr9iOwl45INZ0Qpdk0OS3Lz1swcol0muqY5sDU+0H+hsp4GXQ+ycE2xE/9rsss+BQN3g3WidRsenFZpb+dMN0mritBs0/IeXTLpPCcV4jGiylSDRz9mldf7rCEz8aLmoSd1zs5z/OgQBz+srfaBp0JpfXcNFOZMmKbX0kGwjVv1+a0X23q3DbksiOaQDtx4w06H5r67ib3fXeRXBL3I/wNP69/dTNCT/01BHadoCBv7PJX642J2p3IVExuPnrPaiSBw1/x0geKZORdrQLP49KYLEY33ecoApolX/MeDqU/sUovayW4RsHIsKDITTQaOMLG1vAQPcf9fK2YjcsT59XgBkurkQ1cQ/zCizynk2xgnV5ZrLY8eK1cenfPsxS2X3UT7q6IrSpqGVT8t7dKlVso7F2PHY8isPNRt4imS4XLSMow6l6Nu95L1CFdE5W/Xl9BGWtmds0wr2EuYIR3xw4Qt+B+aWwTLno47SbN9cbVZX8dFEUGHv11bxkotcGVoralVLrW7VPaLLp0hLGhoubsBjcWoH8PbUYTI7PmZ2g3vMV/vTTj2tu4M9sax6l7uZpHteu0mxs00fpjN7OJF+XfrczuQHLBHW/wCYravk/BX3P39f1yCRO127l1OVgxZSQoAIGHfsVbJqVx6Rz9aknKG+5hdHOS3nDveaSmM2tQrU5YlsU1NG7ctb/uCAL7P0eh+IvQrNvrTVzzZV55hdufUcBZRvpRkW1DVvlGyujtNiP8ub8F/256jStZ5HCri9piXH1kuUnQ5PXv/QwCB7jteMj7jfUyxndCZbASE8Hj0NyHCYpF/Py3kbz+micWWUcMKZ5nIyLf+Pees+XqbRboetzlumyIqC2+Rrp/RkEOPfWbFLYnvVXfNxDX9V4OSPv7rPM/QKqLDqV6P2cuXbbnprpPxyJ47Be91Rt2HPdeX+s1ukdsgPXc6rBy6gY8C9BfvZfeyl9nhPZFd79ivXEeKSuM//CX4Gt8hC/IEG5QxZGnL0Gr2ovAseecoGnZkY0gsPcJBB/6Ko3SQS/Vko23fTtKlU4PeIORJ9hQ7zd07eLTLqIOPvoXEXz816AFH9dNNO+GfkfCdLdtvY5H4qAoQ49y7pb6reW2e3VdPkbaboSijKJPIPyV/9P1MFUkvfHQZkTL3MTUocf+PJ2ez8NXucurO6tBq1PEYl62RbMqybHZQpiofQxWEDYmecX+xodcRdG9nI3oAeTSfTT6/vojNFrHgLJGuDFt2XqnyyHjoModVO/IXfDvo5ffeNxFaCvuTZglrpNJJaOKfZ+jx1rnNfbVIKOmY49NMKrtZSSrMVv3Ea7XXAS+7ayHe55yqSyXblyqp9xGkfmdlWzrAuur28hSv7HS7V6i9qrfZLnIZvj3Pk2H7oDXq/Eu9y7XA92DdW1Z6U11FNr2AB/3sM2nb5FkHe2y3Wmo1LDWcexkE4yxRNJlsgUwUVtMxjsMROFnxXA9HNWjTF3bNwpWRr9bbv2ou5kMLTi43hVIN5YLq9z4HXWR99XsS7+xcfgKK53HqGhXnR9cLmQ1jYvfSTFS0QSxWpbmvsA5ItxYN3wldd513CNDuY+XZOONpJElcrx0q6Kkns7HEwg0P+lshpZbuZdIQH0FZbRZGierJV/SvWBVl7KB30mpI8rETTqT3a5zW9ZtdxMxUVuMCk69koq2udWA5XUpwtnwlEbYW3so0EwRLdbSIuv5ezKQC+5mb2Dfs14Pwnsx7kQDe/mb/p0nKNYPumNYVcSmBhmPw01dtsB93BeozGgoSxt5/Z5E4MiX7tiTz8gBUjFPTHaxfdUfdffTNo1giG29iQ4QncnSbbRnaxNW3edPjXR7KeEtgonaR6Ax0SDm8p1eGK+FE+XpbGA6w6UO+Bu6v+ZX775irRzLyEbRVbYe1u1IpHXs3KcGiPu02qxSgxuUdlyMO6dg2EUXGuuy5muo3pVa6dl1XNg6XuPqYLkn6YhU0Tjt1FL4dERW2dvW2EDUPtVOwxVsW3sR2PWIG+rjC21eWWnQvcZz+ioa3G0NX0ExrfxqzDxthIYGzExAq+Yvu25jjmGi9hFYISIlNMTN8JXUwKe51+4RWv7DdUPWQFpFh67r0nqIGgu5nAJd0QRfsfatbtb3rthdV2ZGoS4C1sGsFs2+oh6MK+2Nt1XRuckBUNd0rRxMp0ApaUs75iKqh2xj0WqW1R6KyH46p8q0bGJZqe7IodSk1fUHKWolPB4KlOpVFu3GOaVaSFQTLIx2mKhtWVSQpTUI7N34brgfQylOeXia7kgDZNcDzTXHRufTbBPVbHBligIlLvcONzaniI1eE7SupbHLI1bDUueJtYp9TkMjGaKIaS7RGpaZes+tNco1NhTXeYcOiCZoyJWI2ldcCf+2A0CBsk3qfMb2kxXyhvk9pR+H20zUthyZNAJFRXOy+Wv2sDLQw7mXyHDR6PsrG3kMFTyeOR7XKtNszivj+QSijPzosblZJxh5aqaGe20gNX1YtNzrjSVh0zll4TFmSGm9OE2yq+nGVFb5CiNRnyblbdBk0s0svzLWDWumOYlrswHXXn2lFDbN1HIPUvsrQu1OQ3bCtGPOkc22zclO+JCKz7rV9rfSMjTWWhwytDHP46qgx6UZQzZjEk+/n4Zsl2sgqcQMq+EaKpIqoZtxnyJZ1QQUbdIyI+rSLFFT1KExa6sd86KJmjXn3ZxWOdg6N61XjHNEWGaaBaKwAv46Xi8NJdFAXovUcg+Vl5yNUNRldfzKgkjQcqSsnLhKZBU56pbDquC5qDu/hM1EbYuhAkvMwlfdxJB9P6/KJuXEffT6NKFwSRWNv1ayXmNEEqGXpmm9ZBw3aKD1XVF0qPE6tc08nijPST0YVxGpaUJeeoyY0RIqWycVkhWqhxF6/SVybFhu1jkkd1FZaWZ8dRKp2uOc4dzC53XxjzBi07qIq0G3RJxt3FrtzUSNaBb+FEXEV1brVc5V9RZaB3RPTzealfp0nlH2xn8xvgArtKaZ0v7u8b20DM5jVG+s4m30GH08LYpT+r2s0NJA8Tl6jWtIy+Y8KTe2yM3vqEHr97CjkpEtrMV0fl37Kqbd2IDp5taEIkZFksqOqFu/uxedRbtx3+fmRC3uZVi2SLszUXOwglLY3KJ46iG4SfcwXPd+pZvcTOqaj47HsYr7T7cIhr2U32bm+iXU6ftqrnGtSqyVBqGoJShqfNyqy8yvCPV01DI7Whtti61jdd+heq2y0kDrXHRAZD90H9vNUrTKlL1WxFbbM1HbYiiNEGTFLKAhKZCY0IhuIr6QvL9drJOqjGuoSFoiPlroickmCbXDF4Bf4+O0krUmj3U3oVeKPEYKclJR2owbiK2FSvMWt04ay4uOiKuXRs7i0xRmlYyoIzmaJpZDqdU3QmsQXImhFkdWpmStt0PuESZqRMt1aL0oN2hyreOp1gN560rXrSVl6M6JkZrmCZSh3Eyh1k8rClU6VFs211fH7Y6dQqZejxqvlseRmqIzdy9NQr7JzpWxDDLwWuRTq1i7qe1yEDmyuq8uG+A6w63GGeR31N7Y9lJbxJk0UVNBy+grTNeAV91cTb+1abihBTUUNXnqqzDgMobq7CLjqNRIrnQzlkhrjS2xmgam77jVfbdG48oalZvqoDx/E7TcRrcrNGNOaQ7P9uLqE6M0Rf6rbjP6XpKCJju0NdqdiZq8EBW+ppNxKZ8cEADlwN0AbBnw1eTCVZkZpRWpJ50GXLNS5wISWgmsS2PkqTCtFtVBOVRhln1I6WITtZyHTpq7Dy+7YeQMJmoyrv4Q/NEqr3LKmGyyQfGpsUjUVhNhSaRdek4GssTNlr9pQxRuIYMdgk8zZchzNHv9UVx5sR5qrr1CdRJZ70mtjQ1B6cfCcs8JzUX8fteJRU6SenevadzrFsJEzYmaCp+GZNWDFNcZRVbqWLGqqFERkDZ+V2uoSRw3s5OIkJMgI63G75aYN1X7CJnUkF/ODI2QxhRudpkZd0d1Wqlid5sgF2EdkhMZ4HG68aEmavcHGr8hG6uIJmdETcatxGs0a8FFR4o+rZi3DOom7jqKWJnlPCoj56itsZ0a64q1HOKjJ+OlEXJlXBA9d5eSWgMZQdMsHuoIY+Q4StGm086rXi7EuGe4+8N27zMXsZYjAZHHpUUtN/3eU4Y1itqtdB+9fs3mYV5/7qMykpHU4HuL1HIfX5BFJFGzcso1rETc/Sfi7l/lmdclkXZd6M2b3BL4GF27YQ923zHnUSSt3qq6X2XCllNYaQgaf825lzvpx3UkB3pzGishXUYaNK/66P1l5DxZTSVg3ANM1IRSdaFCJ26Gsak4J4TN0hwRw1gVJmqGYRhG3mCiZhiGYeQNJmqGYRhG3mCiZhiGYeQNJmqGYRh5jM8XoqXXBOn3x8wnJmqGYRhG3mCiZhiGkcekUjEgOcVnWvIp/zFRMwzDMPIGEzXDMAwjbzBRMwzDMPIGEzXDMAwjbzBRMwzDMPIGEzXDMAwjbzBRMwzDMPIGEzXDMAwjbzBRMwzDMPIGEzXDMAwjbzBRMwzDMPIGEzXDMAwjbzBRMwzDMPIGEzXDMAwjbzBRMwzDMPIGEzXDMAwjbzBRMwzDMPIGEzXDMAwjbzBRMwzDMPIGEzXDMAwjbzBRMwzDMPIGEzXDMAwjbzBRMwzDyGN8CPCfAj67P8y9iZphGEY+4wvS0kf0xPs7zzFRMwzDyGdSC0Biik+S3t95jomaYRhGHpPif1Q19+x+wETNMAzDyBtM1AzDMIy8YV1ELZVKIZ5IYmJ6Dl0D47jS1o+TFzvx6getePG9G3jlVCveudCJyx1D6OgbQ9/IJCZm5rEQV0hsGMZGMh9LYGxqDj1DE7jYPog3z93Et966iv/31Yv4nVcu4A9fu4SX37+B09d63GemZhcQT94f91+M/GPNopagmM3OxzEwNo0L7UN47cN2fP+9Fnz7zcv4ox9exO+x0fwBH7/1o8t46d0WvHq6HW+d72TjGmIDmnINKMZ9SBgNw1gfkmxPMTqNM/MxdA1O4FzrAH50tgMvsg1+87XL+C8vnsW/f/6M2377u2dcG33+7Wv8zE1c6RzG0Pisa5faj2FsJdYsajMLXqN5k2L23146i3/2Ryfx754/h//+6jW88G4bXj3Vge+/04r/8coV/Lv/7wP8iz98D//8f5zE737vDF47dQNXbg5hckaeoTUew1gvXOZkZh43+8bwKqOw//L8afzT33sX/+FPz+BPf3QVJy/04HLrIK7QuTzbMojvv8/2+4NL+Kd/+C5+5+ULePdSt9cuuR/D2EqsWtQUWc0uxHG9cwQvvnPdNZQfne7E9Z4xtPdNoHtkGkPT81jwAeHCMCoqClFUHEFBOIBUIoGL/Nx3PujAf/nhJXzvJ1fxweVudA6MY577NAxjdUiEpudiuNQ+iBfeacH/8+I5fPPVq3Q6u3BteArjfD/C9lhbWYiq8kIURMOYiCcxOD6HzsFJXOseww/PdOA7797Ad99vQwvb6fTcQnrvhpH7rFrUlJbop3CdvNyD77x1Fa+evokbfeMIBAOoLIti57ZSHNxVheOH6vHJh3fiC0/u8bZHd+HZBxpQVVmM/ukFvN86gNNXe3Dueh+udY1idGoOCzG712YY2SJBG52cw7XOYZdGfOG9G3iBEVhb7wSioTAO7a3Fo0cbXHv89PGd+OSDO3Di8HYc2lOD5oYK1FYU0SL42A4pbKc78EdvXMaHN/pdKjKZTNktAmNLsGpRi9G7e/fCTbzyQTtO3hjCGP9my0ERvb+febQJf/drx/Ev//In8Vu/+jj+3i88gr/6pYfc9ld+7mH8tZ9/BP/oGyfwz3/lMfzWNx7FV54+gPLKIrQPTeIKI7/B8Zn0rxiGsVLGp+dw5loP/vO338fz77ViYj6Orz+yE//rrz2Gf/O3P4Pf/qvP4B//0gn8za+wHX7pmHv83/n3b//mp/BP/+Jj+Nqz+9iGw25f/UNTeOtsJ05d7UV73xjmEwm7v2ZsCVYlaupJda1rBK9d7sVZitA8Ba2sMIRPHtqOv/Glo/jFZw/iM8d34eF923B4ZxWa68uxs6bk1tZUW4b9DZU4ursGx5vrcHBnNQ431bjP1lHcopFg+pdWSIqCmooxfJwHEtrmVrylkrP8Hp/n3MBEesY8tlSCAr/Ecd954/knF5QfTu8nd0il4vyHx+bKaaljX2aL65FlvAJ05inViSQjfn0nkf1vplQndP2zmYUhpd+bRCo+9bH9Lbu531KKb3Vllkh6Kcfe0RnMxBI40FSFLz+2B7/yqUP46hP7GJHtxHG2xaNN1TjUWIl92yuwl5seD/Jvvf7EkUb8PD/79557GJ95aCfq6JxOT83jrWsDeKd1EFMrvL+WSrCMeU6pxLTXtm4/17tu6fq7oe2R+3b1Y34Nx8ltw49zHZE90PEudR7LbKmE7CPLZKucJ1mVqA0xkjp3ox8/ud6PG4NTKIiE8OCeGnzjqb34mz97DF9+tBlHm7ehvqoEVaWFKCuKoKiAUVx6K2ZEV15cgNryImyvLnXbgR1VeKi5Fru2laGkUPOUrQQf//fDF4rAV1BEL7OEWzGg5yvcfAX8fITPg/RQua+cwE9RD0Xh43G588pmc+df4p2XziknYDn5AyynAh4bj2sV5eTKKBwFArw2vhXMYac2yOvorqH7PW5L7fcOm7t+3NwxqzzuCo8pEOAxhvldHucS+7zjlj4+X4SPgezLTL3vF+hYzjAyKyuJ4nMnmvFrnzuCv/DpQ3j2oSYcoNNYV1mMCr53p23P9kqKWRP+4XOfwDee3Y+H9tWiMBzE2fZhvHetH4OjUyu7361rFVQ5r6LuanP1gpt/A9uibIaOMVLoytkr6yWOZbktwu+wjeaMzVgKZx7ZBsI8x6Ianmfp0ueyzObajq7TRpbHOuNLrSJRrntg6rb/Oz+8QlGbRCMjsX/9Vz6Jzx7bSUEKsz764F+J4VmEDiNzIPqmbwXfd944PfHEtTeQbD+J1PwEW3iW9+PoGfqKqhHY91n46w/CV1KTfmPzSA61IdH9IVIdp5Ca4zlla+h07QIRBA5+FsEDn0m/uHmkYvT4poaQbP0Jkv1XvHNaRSTpr9wN/85H4d+2n2VWkX7147gqnYwh2X0eiQsvMjhU5JRlByR+H4EQAnuegn/7Ufhr96XfWJrUzDiSgy1IXPmBO1evFmeBj4IYKEHwgS8g0Hwi/eLK0PkqNShhSyVTCLD9BQJ+9yhW0pZEZj89w9N48VQb/tP3z6H1xhAe3lWJv/ONh/GJwzuwvaYs/emPk1Jb7HgfyZust32XPHHTeWWJyjb4+F+Cv7wh/cr6klRd7PrQO87RTu84s4Vi5q8/jOBDX6MzIhHO/jw3mlR8AanhDiTa30Oy7e10eWQpTixTX0k1Qo//OlCyjc7ASgOOzSMrUdNH1fX+nYtd+LO3r+Fbr19FWWkUX3lmP379s0ewv6Hi1mfUjoIbre46dApbcrwXqckBVwB8wXtvpUgEWdj+su1AYTm9Gnpfm4yMfmpq2DOOSp2tqsH44Kto3DDDkA2pJAVFwjbRj9TsuHdOq0DGw1dMpyPKcmJ0fkdclaaTND2M5AiNlgRq5dXcQw6TPPqSOmdkffzN5UjF54HZCSTHur1UadZIeOhVV+2Av7TWe+keoJSiejGHgn7XXoMUQw3WPt8+iFdOd+D3XzovI4Hnnm7Gn/vUYTywu9Z9ZilSDBlTU4Nuw8yYV2+zdG4dNJz+Wjouis43AOdksW6445yfXn37KmS9qNpF3Q6t7jw3mJRs29wUz3PAtb1VlYfSACHax7p9bHOFOSnet5O1qM2ywv/4fCe+89YVvPBmCx4/0oC/96uPufShUory9ObUe5GPrpGwsWQbtRmGcW9QynJoYhalhWFEw0FEQp7R0i2Gtt4x/JPf/4m7f35kdzX+5+cewVNs75Fg7hs24/4lq1BK6qfu9vF5er4auxLwoUzd9+vKUZDu3CHh02fGp+cxOD6NuHpFGoaRk8wtxNAzOIFZtelFRCMhbK8pxSd2V6GxqgjdE/OYtWntjC1AVqLmEiTK1fOJvlhWHkW5BlVHQ7dSjcrfF9DjkwfY2j+B/rFpG7xpGDlI38gU+oanXArSuw/304yK0pFq1/Wug0mBmwty5Tkdw9g8shI14USNAuZjI6gqK3QVPsTXMjejlWosCAVc6lbRWkvPKBvPtHvPMIzNR0MAFJm1dI+ivX8cYbZXteHF98AlcgWhIMqKI6hkGy+Pht1nDCPXWXUt1RerCkMoKwh5L9xGWWEEdYzkPmzpx7XukfSrhmFsNuoIogkOzrUPorVvHOUUrtBt98nknIYZrYX5enVJFAfry1F6h7ZuGLnEKiI1enAaa1YaRXFxASLhpcfwaCxaDSM5pSHPtw3i5VNtbsYDwzA2D6Uae4an8PIH7ZieWUAFBa2uouhWB5EMyrxI2PRYX1mITx6px7aKQkZzP01RGkYukpWoqYIrRVFOQdu5vcKJmuZ6XIpIKMgGw8/VlmF8ch4vvdeClq5RTM5odLphGJtB76iWiBrEe5e6URINo7m+AmVFBR+L1DIo/bh7W7mbGKGqhO19UYrSMHKRVdXQ7dUleOxIo2sMy6GB2L/4zAEcqC/D2cvdbtFQ5fENw9gcNBzn5fdbMTM1g0NNVTi6Z/kxcQebavBAcx2qyooRpqNqGLnOqkRNU101VJXgGBvFzqri9Ksfx3UaCQdxeHcNPvlwE37SMohXPuzA5faBj3UhNgxj4xibnMUHlzrx1rlOdA1P46mjO7GdbTgSXn7MmTqC6TaCoro7Dbo2jFxiVbXUpRZLojhOsdqzrdRNi7Vcpr25sRKfeWQPJudieOdqL35wugOdS4yNMQxj/VHK/2rHkFsiSsvSyCn95EO73FIzi3s8LkVRQdjNxVoYCZqoGVuCVddSdfndS7HSjPth16U//cYSKE15aGc1fu6hRoxNz+PfvXIRb17oQu/wVPoThmFsFC1dw/jeezfwr759FmWFYXzl0d041FTtbg8YRr6xalFznUYoZpo4Vc+13QlFcvL2nnlwF54+UI/GaBA/OnkDr51qxdWbQxaxGcYGMDo569ZX+8O3r+M757swWxTBsUMNOHG4wbVdm77OyEfuWT5Bvav27ajCo3vrcLShAle6RvDDs514TTn+oUkTNsNYR5RyvN49ipfPdOCHZ26ia3gGjx9txEP767Gz7s4z7RvGVueeiZqGt2js2gN7avHU8d2YCIfpPXbj/3r+Q7xBYbNUpGGsH0o5fvf9G/i/f3ARFy7348HSQvyHX3sCT++vs5lBjLwm8E9I+vmGkklRKmIrKQqjMBTA+OwCrveOo5ceZSyeRGlJgetlpVkMDMPInpHxGVy40Ys/ev0yvvteG7r6xvHs4e34xWf341PHm1wnEd0yMIx85Z6JWgbNM6eIra4kihnNED48jSs3BjEx4836r0anYQCa4UAZ/+Xu1RmG4a2MoSWftFzM2et9+N6Pr+F7pzrQMTCJxvJCCtoBfOGxPWioKbPB00bec89FTajnpIYEFFDEQkjhau8YWuhRanJVRXKVpVHUVRS6BmiiZhjLk0zBrXp9hoL2/I+v43dfuIDuyVnsqC/Flx7eiS8+1oxDu2rvOGuIYeQTmyJqEir1iCyMhFBFcZudW8D4+Cy6+ibRPzGLqVlGbfQ8teioGqKNjzGMpdGq1T1DU/jx2Q78yetX8eqZTvRS0PY1VeEzx5vw1Sf24WBTNcqKItbb0bgv2BRRy1BYEHIzFmic29T0AroHJ9HFbYTCpt6QheGg62CidOTi5W0M435Hy8fMzcfR1jeODxShvduCNz7sRNfINCoqCvHp4zvwhU/sxuOHG1BJxzEUsCjNuD/YVFETwaAfO+vLEQgF3cDsnt5xdA1Mom1gHKOjk/Aj5dZtK2PUZhGbYXjMM0IbGJvGyx+0UdBa8Wen2jHM9lNdXojje2rw9af34dmjO1BdZoJm3F9suqgJ1yuSDU/pyGk21ilGaeOM3CYXEhiemsfY1ByK+J4mVC2O2iwIxv3NyMQMLrcP4ns/uYYffngT59qH3YK8iIRxiIL2a58+iEf212NbZZFL31uGw7if2HRRc/fXuKnXoxYr9DEYm5mLYWhsBgMTcxiamMWg0pHJFBIpuJSk65ZsvbiM+4zZ+Th6hidx8nqfG1T9yvttONcxjL6RGaTmEjh2oB4/+3gzvvZYM3bUlCBKR9AEzbjf8KXUHzhHmI/FMUgxe+nd6/jTN67gzQt9mI4nAM0kzghN421+6Ylm/PIzB1FRvPyyN4aRb/QMTeKlkzfwB++04LULPeol4r0xzzYyuoB/+w++iF/7yjGUFoatU4hx35IT6ccMaogax1ZeHEVtZTGSbJdziSRGJ+dcv+UpRm5d3WPo6h2lAMboiQZdytKiNiNf0UrVWt3ihx+04fdevoBvv34VV7tGMTOvHsL0SunsHWiuwz/61RP4/IndqK8qdkNmLEIz7ldyStTcvbWgBmeHUVYSRSDgQzyexMT0nFt6fnp6HsMTsy41OR1L0EFNoYTCphkStEkUrTEbW53MYOop1vn2wUm8eaUX33+/Da+f7sCl9hFMz8fYTvyoKorgcHMtPv1wE379s4ews7YUkXDQ2oBxX5NT6cfFxOihqrPIuxdu4vm3r+GPf9yC8fk4ZZgNVjfXKH5NdaX4u184iCePNqF5Rw1KCy1qM7Y+iWQKC/EEWrpH8NKHN/HPvncek4MTSCndGGL95vuVdPw+saMc/9PPPYRPPbwbdRVFVvcNg+RUpLYYOZvqwl9Kb7SGDTZCMZtno+4fnOYbbLx+HxYW4mi/OYrRsWks0HuNU+vUQ1IpScPYigyxLl/rHKIz14k/fqcFL5zqQF/fOJKxBBsFP8A6vqO6GE8d3o6/8PkH8MjB7dhWWWzjOA0jTQ6LmrdeW2HUG6BdoZ6RbNBaUmOMApZgtBZnQx8YncEEXxuenEPnxBzbfAoFmg6I7TvAfdjkrUauo8hMPRs7ByZwrqUPP7nQhdcZob11pQ/XeseQpPOm6CzCel1XXognD23Hlx7djc8c34X6qhI3OYEJmmF45Gz6cSlOXe3Bt9++ht/+/gWMqPOIUDoynvRCu8Iw/txje/DnTuzGA7tr0FhT6lbdNoxcRqnGgbEZvH6mDe+d78Qpitm5zjHMqmkqKyHmE6gqCuORQ9vwjWcP4ouP7rGUo2EswZYSNfWCvNEzgpfeb8XzH7Lxtw8jxShN80Q6UeO2vbIIB+rLcLShHEf31OKB5jr3GAkHaB/MABi5w8x8DG09o7jQOoCz3N64NoDewQmMTcxifC4Oumpe3ebzg01VeOpoI77y5D4c2lmJnXTY3EoWFqEZxkfYUqImZuYWcKN7BH925iZePd+NK9d6MTo1j3mNZxNs5EWRIHaUFmD39nIc2FWD4/vrcbixEs3bvMhNkykbxmaQVCeQRNKNOWuhoP34Ug8u3OhHS/corg1PY16doZLpzAObZmFIdTmKz5/Ygy8+vgePH9zuegdL0AzD+DhbTtQytPeN4YNrffjdH5ynlzuIvrEZxDJipTOi8VBnkoKCEGoZvf3SE3vx3GPNbsbyQoqebqxnxM28XWMjURNTK9OYM82qr/u/r51pxytnOvD9c12YVCqd77lUeho/Px9ivdxVU4IvP9GMrz29H08daUy/axjGndiyojbNiG1kYg7X6e2+9v4NvE4DcaZrDLPqJSYkVPzf7/ejIOint1uIXbWl2NlUhS8c34mH99SirqoYEb5n9yWMjSQWT7j5Sy92DOO9K704yeisY2AC/RMz6Juad2MxvRQ6P8yHAjpc1cURPHFoO545ugNPPtDgxqBVlxV6OzQM445sWVETGqAq7/fs1R4nahrT09Y/4Tzh6YWEd09ChkJRWyzpBqyWMWr71OEGPLZ/Gx7aV4cGCpt6VmoYgGYosYUUjbWiFGMskXBzmE7OLqBvZBonWwZw7kY/zlztx4X2IcwpXa66qY4g6VSjBK2SdVHR2TE6X597eBeeYF1tqiuzXryGsUK2tKgtpnNgHC+fbMEb57pwumUQ7fSEZxMpJG+3BRq4TSHcVlGEzz7chEcpbPsbK9BAQ7K9qgTlWkyRkZsL9CwtaawQNSM1JAnafIyR2fQculgnW3vH8MH1Afy3N69hdHhaswoAETpOSn0vanqqaxG+9rBmCHlwB37m+E4caqpGTXlx+hOGYayEvBG1Od2rGJ/B5ZvDOHWlF+9c6MSZtiF0jsx4BkRbRqN4xlqYVLMyaPJXLdFxbE+1i97cUIC6cpTYzXgjC5Qx0PRV/cNTriPT2Y4hvNE6hO6eMYzztZ5ppRkpaOl7vbeiM/1Nakqj+OqJ3fjk0R14cG+dG2BdEo24uVANw1g5eSNqGbRwYmv3KM5qEOulXpxqHcTV/gkkdCNepyphk0GRMdFrREvZ7K4rxaEdlTi6qxoPcKstL3QrBleWFTrh0zIehrEYF5VRqPooWqMTM25O0ht947hEQTtP5+ps3yTGxme1/IQ3vdXiyJ91L+T3o6q0wKXADzZWuoU95VQpYxDVqu8SP8MwsiLvRE1oMOvkbAznb/Tj5Q878F/fuo7x0WkszMVciuiWsGXQJVBakmwvj+LR3VVutvM9DRX0muuxjwanTgsuuh6TmjhZXzeDcz+i5uLdy1WaMe4m2P4R69iNjkF09o7hqlZt75/CAF93FUX3wjLitKipBfn9ysIIThyux2eP78QThxpwrLnWnCfDWCN5KWoyOppGa3J2Hn0Uswudw/jTn7Tgh6c6MEKjkwrT0CxO6yy6BBEaodJI0KV9aooj2FdTgtqaUhxoqsZjB+uxo66M3nUUYetQcl8yNbuAwfEZXOocwXUK2XVGZCdvjmKYUdoc65s6KKkHbiydVvyIA6XXtMWTeGRvDZ5+oAGfP9GMfXSelBnQ+DPriWsYayMvRW0x6k49ObOAH1/uwVsXunD5+gDOdI2gh0bIDXLNkDE+uhxpg6ShAFXREAppbLZVl+DwzirU8LGB286KQjTXl6OOj1r/zchfhihi7X3juDEwgd6RaW5T6OifQHf/OPqGJtGpwf/qAJJOZ7t6tDg6S7ew8oIgGiheBxj5P3WkAY8c2IbDu2vdpN3mJBnG+pD3oraYARqnty914z+/fBE/vtiNGL1u3WuTKdKCpI6l0oruflz6OaM4pSYf31WFLz+6Gw/vrcPu7ZU0Sn43DZfug2gX/PfWrixVmduoCbjidfrjDZRO0OFRilEdQC60DeCV0+148cNOd89shPUok652aND04jJe1KQUd0mulLY+UFeCZxjtf/2zh3Fkd431bDSMDeC+EjXdaxubnsf1njGcaxvEazRUmntP3nffxJw3ri3jYS9m8SXi+/Kqy8JBVBeEUVoaRREjti8c3o4Hd1Rge0URSgrDbiuKRtx9OK1EbOQuSldPz8VcD9q5+Zgb1N/GKOxi+xBOXu5Fz9AURiZnMUQnaIZ1SEL3MRaLmiL9dJ1pKItiX20JmraX4+kHduDpozvc/dki1h3r2WgY6899JWoZZLz6x2Zw+nofLncM4XrXKC52juDG4CRGpua8Wf8lRHcSI10yGa4YP0eB85UW4ITmlqwpQVVJAYpoyBr5/EBdKWopemVFXu/JAm6RUNCGCmwSquoJbrFYwqULVQ/muc1SyOTotFO8ekenMUlR6x2eQjuF7XLnqBtE7dLTmYjsLvWikOWr8Y61rAcP7arGJ/bWuk5HmqJtD6N6wzA2jvtS1BbT1juGa10jON3Sh5fOdeFS+zAWpucwS+MUW3xp7pZCdBPR8vM0eL6yQuyTZ95Uib3bSt09uGp659sqilFT6g0RUEpSqUpFceocEKDBtE4C64u63HtpxCQfU+7vuVgc44zWxxh59Y/NYnRiFmMTM3j7Si9Od4zgev9EuizT0ZgckDuJmMjUEZan1u8r5GcbWdb7G8rx0J4aPH6kAQ/u24aasiK3PqBhGBvLfS9q8sLVo21ocg4f3hjAhRt9aOsYxDutw+jQDBASKnnodzNI+pwupcQv6EcRI7KKcMDNsh5V9FZdjMfrS11vSqUsFbkVF0ZQUVyAKnr0FSVRlPO5sX6obJU27B2acEI2xb/HGYlrPNkAI7IPeiYwODKNmERO7zFim1GHD5VlBunZcg6NylyRPcWvsqIQn2JU9uCuGjcbyMGdlW5V6lKWc4jv+5fbj2EY68J9L2oiM4ekDF1X/zg6ekbx7vV+nGXU1s5IbpCGcEreu4zS3YxcBhnGTAcTGrQQBetAWQTbKHAF0TDC4SAKiyIopwe/t7IQDeVR1DLCC/CzJUUFKOPniwsyKUsaREYAZhQ/jtKI6uHqJg2eWcAEo+xpilSCf49PzaN7ZApX+sad0zI3E3MTYU/NzGOCn73BSG2Kj1igkCkay2x3Q03GOTHKPvuxnWK2b2cVjlLQTuyuxt76crcidU15oUs3G4Zx7zBRuw0ZSXn0mrfvXOsAXj/bifOt3lySGoO0kEi4VNZHjN9KxGaRIXQo+guHEKawHS0No7E4gmoKXoRefX1tGXZtL3cLnlaVFlLkvC7fMqD6WS9d6XedUFxHlDxOXXpjDpOIcZPjoc1LK2oQNChO85hWBw6tszcwiZt9YxgYnMD87DzGJ+fRMz6LC6MzGJumeMkxWUzmHtndWNxE+FTfiPK6R+lsKLp+/PB2fPmxPXj22A6UsPwK6LCoXAzDuPeYqN2GjKiM5gLFTTOsa8b/m/1jOH2tDy+d7sC1lkH0az7JgvS9Fk9l0t9ehqUuM7/roxhFuYswTWWIjz4ayrCm5WK0tisaREkkiECEkR2ju2iYURz/1uBvDSvYIfGrZUTACC9fU5fqxKFZO9roVHRy0+KairIUlY3T+ZhlVBanoCUWYmif4mf5epzllkwm3QB8ieGMhNE5FEuUwUqj7swWT6KQDsaTD+3AE4frcWx3DZobKrHdrfZQ4BwMRdQ2jMMwNgcTtWWQuMVpHMen59DRN44zNwbQ1jmGKzeHcbF7hBHdAqYYvU24+zDpVOPiCG4l6PLrexmjmxZJiVsVDaRmOIEiM3r/GgsXpUEtKQihglFdNaO4utIClBaEXRdxRR4+il5QC6MWhvh6yC2pozRmoVKZ3Ic6psjg6ij1PKjxdYtEWe8oClyLUU4wmpVzkEHXUelB71QlMN7rznFgpDXDCErRsbrVD3FTSjClyIqfd5/hde5Xl3qKm+6RzfCaTy/E+RhHnFtS++b1H42lvCVdMj+QQdc02/PJlEcg4Abhl/O6KpJurCrB/u0VeHB/HQ41VaKpthTlJVGXIraOPoax+ZioZYnmlDzbOoBv/ugSegYn0TUyjRZGbrHZeWeA5z3L7RnEDGvx2mVctS1GRlt2W6/ruQYC63lEwwuiiJZH8UBVERrLCxnF6V5d9FY0pzRm5v5cKOhz9+wKaLAzaJBwJBz6qKjd7fBvO7yFWMybkT6NFsFUelBVzQkcj1eXRx10FHkNUqz6x2cxMDaDK6Mz6B2aRmpo6qfiJNFVqlCbBOp2kdLTRcKcNbc3AV4DzcAY4aZ7ofW8fvtqil2X/CeONOCZoztREg1Zb0bDyEFM1LJEXcRn5rQk/yxGJ+fcWKZT13rR2snorWcM5wdpjHXvRj3iRMYIr5aliifzUua9zN/6GSdYiuj8CPN5iFuQf2cGgfslfhIEvq/AwsfX/RnjrON0fwe8fWXQ69qWQr/tZtfIHASfpSMnL9rh/zzOpK4H/9YhuyrH7+haatiE5kmMpx9nKWRKGd4StAz6+YyQLXUoi0UuW3Q86WPVefooZLvoGByrLsKeHVU41lyHT+zb5oZiqCejBtZnIl7DMHILE7U1oMG7Wqa/a3ACnf0TuKx1tDpHMMnIY4KCNzE9jw5GHhMzMc9IZ8ThTgKxHqg4MyW62Fi7v7XxH/28DLIedSyLxcK9vug1kXl9KRb/XgaXil30eub54td0XML9Ph+1/8XXZSOvkdCxpK+NnxFgU2WRW9OsnFtFVTH215fjWIPXi1ELyDbUlNIPMCEzjFzHRG2dUOcFjYdq6xlxy/d383nPwCTebRtG59AUFihsM4pMMlY9c9UzNtKM5cawuHpnnkqcuBXy4kdCfhQWhPHE3moc3FGJnXVlTsD2NFSiaVuZl661sjGMLYOJ2jqhVJq7pxaLu44PiuA0W0UPBe5m/ziuMYJ7tXUIrX3jSDGCc+lJ2Uql/nSvyAznxpCJyJQiVbTM6+wrDCNSVojP7anCMSdk5di1rRSN1RpbVuTmZFTHj0g4mA4irWwMY6tgorYBaCyVJk/25hWMux57PcOTONM1hpsa76ZefONzbgmTmwPjGJ2cR0wip5RbRuA2Ov2Wr2RELC1kPj4Wl0exrbIIzYzAKksKUFIWRUl5IR5uqMCe2hJUl3mTUGs9M/USNQxj62Kidg/QsIAFipabyYJR2tjUPG4OT+HKzSGcvtyLjm4KG1/XDPATFMI5ft71HZRhvpUzu437OXq4U5XlNXG9OrkVBwMoDgRQGg6hbmc5Du6uxhP7t2FndTGqSylq6vRRVGADpQ0jzzBRuwfoErvggWKVmVxXM5coitOMGL1Dk2jrn8C5jmH8+GovWgcnMT6bngFjqV6AiuLuZ1HTNbm91upyRILu/lgdo7GHKWKf2FOHxw/Uo6KswOu1GA3xIwE3Ns+N0fP73b01u2dmGPmDidom49bySs9cog4lLX1jbszWxFwMc4rq+LobxzUyhcmpOcQUycUohgtJTCplqeJzW3qHi5Gt3ioG+07nINIiHg34UBbS9FTe8j2aJLi6ogh12iqLEVEKkeJVEQ1jV02JGxi9Z1sZozEbGG0Y9wsmajmIuyfHbXJ6znU0ae0fx9WbIxgansQshW14fAZdU/Pomo4jEYt5M2okNLA5PS8ii1SP8yzZee3QhYkSjTsU9VK6txYxvNPvZF7OPDrR5UbBUXf5qHuqeSy9ZVwkZppGLBBkNBUMooqR1q7iEKrLi1BaFEFBQRDNDVXYu6MS+xornaBF3cwrtl6dYdyvmKjlICoSFYqbpovipsHI6lmpiX3V+URzUeqeXPfoLEZHJzHHqG5BEdyslleJY3o+7pZdaZ2OoWOGopdJZfIzTtycYHi/5T2XsqRxIsN/1iJqPM4lo66MuGoT+p2g3w12rimJ4LAWU6VQFXMriYQAzXkZCaKUf0cLwq6zx25GX7vrK9zsKEodhihgErEQIzilEbVZb0XDuH8xUdtiSOTGpmYxPrPgpuyamVHPyYSbimp+fgHTFLWp+RjGJ2fRPbmAPn4uRoFLuEl/426xbtcrMxanzmnRzIT3nEKTSA9JGOW+MrqzKiQ2jLCKAj6UUpSKdK9LS+jw9QIKkDpnhPlekJufz4NKGTLy2lUcRinFSjPdl1DIAuGQE60CCpYevfXnIqgsibrpvQzDMG7HRC1P0L25TESnmU5GJ2bc3IrqjKIoLhaLceN7FLVJCp3G0U0uJDA+veAmbJ6WKPLzeq+HYqkpq1aLJmMuCAVRQ2GqZfRVRcHSIqgSuNLCkFsrLhr0Udj8CEq4tJAqxa0oqveiFC9GaNyH3rd7YYZhZIOJWp6gYnQFyX8yy+e4RxWv3nMP3mc0hm6WgjariI2iN78Qc5HZHCO8WUZ7rv/JkvnDFeLz0oIl0bDrYajVBdQrUcKlThsSvFsZTqUL9R+fu4mW+Xkvhci33Nv61zAMY2WYqN2HaEiBZkDRemMaQ6cOJkKpTaUx1wMJlITNiRP/0Yz23uKmXicQEyvDMDYCEzXDMAwjb7AbFoZhGEbeYKJmGIZh5A0maoZhGEbeYKJmGIZh5A0maoZhGEbeYKJmGIZh5A0maoZhGEbeYKJmGIZh5A0maoZhGEbeYKJmGIZh5A0maoZhGEbeYKJmGIZh5A0maoZhGEaeAPz/PXamnYcLKgQAAAAASUVORK5CYII=;strokeWidth=1;" vertex="1" parent="1">
          <mxGeometry x="425" y="420" width="111.1" height="60" as="geometry" />
        </mxCell>
        <mxCell id="jXtKK_LHuf7qZaL2mGFT-54" value="" style="endArrow=classic;html=1;rounded=0;strokeWidth=1;entryX=0.16;entryY=0.9;entryDx=0;entryDy=0;entryPerimeter=0;exitX=1;exitY=0.865;exitDx=0;exitDy=0;exitPerimeter=0;" edge="1" parent="1" source="jXtKK_LHuf7qZaL2mGFT-36" target="jXtKK_LHuf7qZaL2mGFT-41">
          <mxGeometry relative="1" as="geometry">
            <mxPoint x="520" y="90" as="sourcePoint" />
            <mxPoint x="840" y="90" as="targetPoint" />
          </mxGeometry>
        </mxCell>
        <mxCell id="jXtKK_LHuf7qZaL2mGFT-55" value="Commit Changes" style="edgeLabel;resizable=0;html=1;align=center;verticalAlign=middle;strokeWidth=1;" connectable="0" vertex="1" parent="jXtKK_LHuf7qZaL2mGFT-54">
          <mxGeometry relative="1" as="geometry" />
        </mxCell>
        <mxCell id="jXtKK_LHuf7qZaL2mGFT-57" value="" style="endArrow=classic;html=1;rounded=0;strokeWidth=1;entryX=1;entryY=0.25;entryDx=0;entryDy=0;" edge="1" parent="1" target="jXtKK_LHuf7qZaL2mGFT-36">
          <mxGeometry relative="1" as="geometry">
            <mxPoint x="760" y="200" as="sourcePoint" />
            <mxPoint x="620" y="390" as="targetPoint" />
          </mxGeometry>
        </mxCell>
        <mxCell id="jXtKK_LHuf7qZaL2mGFT-58" value="Clone Branch" style="edgeLabel;resizable=0;html=1;align=center;verticalAlign=middle;strokeWidth=1;" connectable="0" vertex="1" parent="jXtKK_LHuf7qZaL2mGFT-57">
          <mxGeometry relative="1" as="geometry" />
        </mxCell>
        <mxCell id="jXtKK_LHuf7qZaL2mGFT-59" value="BitBucket" style="text;html=1;align=center;verticalAlign=middle;resizable=0;points=[];autosize=1;strokeColor=none;fillColor=none;" vertex="1" parent="1">
          <mxGeometry x="765" y="144.5" width="70" height="20" as="geometry" />
        </mxCell>
        <mxCell id="jXtKK_LHuf7qZaL2mGFT-43" value="Mirth Instance API&lt;br&gt;" style="text;html=1;align=center;verticalAlign=middle;resizable=0;points=[];autosize=1;strokeColor=none;fillColor=none;strokeWidth=1;" vertex="1" parent="1">
          <mxGeometry x="425" y="405" width="110" height="20" as="geometry" />
        </mxCell>
        <mxCell id="jXtKK_LHuf7qZaL2mGFT-60" value="" style="endArrow=classic;html=1;rounded=0;strokeWidth=1;entryX=0.5;entryY=1;entryDx=0;entryDy=0;exitX=0.5;exitY=0;exitDx=0;exitDy=0;" edge="1" parent="1" source="jXtKK_LHuf7qZaL2mGFT-45" target="jXtKK_LHuf7qZaL2mGFT-36">
          <mxGeometry width="50" height="50" relative="1" as="geometry">
            <mxPoint x="550" y="410" as="sourcePoint" />
            <mxPoint x="600" y="360" as="targetPoint" />
          </mxGeometry>
        </mxCell>
        <mxCell id="jXtKK_LHuf7qZaL2mGFT-61" value="Pull config" style="text;html=1;align=center;verticalAlign=middle;resizable=0;points=[];autosize=1;strokeColor=none;fillColor=none;" vertex="1" parent="1">
          <mxGeometry x="450" y="320" width="70" height="20" as="geometry" />
        </mxCell>
      </root>
    </mxGraphModel>
  </diagram>
</mxfile>
